<svg width="3030" height="3030" viewBox="0 0 3030 3030" fill="none" xmlns="http://www.w3.org/2000/svg">
<path d="M1380.16 1746.38C1380.16 1746.38 1365.11 1692.15 1218.99 1723.6C1066.27 1756.48 1057.81 1848.54 1057.81 1848.54C1033.57 1869.81 1210.88 1912.57 1232.03 1890.37C1234.54 1887.73 1329.87 1824.2 1333.14 1823.88C1341.03 1823.11 1391.64 1750.09 1380.16 1746.38Z" fill="#61757B"/>
<path d="M984.123 1578.61C995.428 1551.75 1026.15 1569.45 1026.15 1569.45C1026.15 1569.45 1015.43 1535.34 1043.96 1525.26C1062.42 1518.74 1078.24 1550.22 1078.24 1550.22C1078.24 1550.22 1073.67 1536.95 1069.59 1522.29C1066.03 1509.56 1072.97 1496.26 1085.4 1491.77C1085.54 1491.72 1085.68 1491.67 1085.82 1491.61C1098.01 1487.18 1111.6 1492.65 1117.22 1504.35C1123.45 1517.27 1128.67 1529.32 1128.67 1529.32C1128.04 1489.87 1165.92 1475.49 1180.19 1519.65C1189.68 1548.99 1259.68 1660.32 1259.68 1660.32L1299.3 1703.62C1298.73 1736.45 1359.56 1838.33 1359.56 1838.33L1150.27 1939.1C1150.27 1939.1 1075.67 1822.48 1056.03 1790.71C1028.58 1746.34 972.806 1605.48 984.123 1578.61Z" fill="#F2BD96"/>
<path d="M1150.28 1943.09C1148.96 1943.09 1147.69 1942.43 1146.94 1941.26C1146.18 1940.09 1072.09 1824.25 1052.65 1792.81C1026.98 1751.28 968.003 1606.69 980.471 1577.09C983.888 1568.96 989.268 1563.61 996.454 1561.2C1005.06 1558.31 1014.34 1560.39 1020.62 1562.66C1018.71 1548.65 1021.69 1528.95 1042.64 1521.54C1052.1 1518.2 1060.67 1522.72 1067.36 1528.97C1066.83 1527.15 1066.3 1525.29 1065.78 1523.4C1061.7 1508.77 1069.74 1493.25 1084.06 1488.08L1085.83 1491.66L1084.47 1487.93C1098.66 1482.77 1114.28 1489.11 1120.81 1502.68C1122.81 1506.82 1124.7 1510.88 1126.36 1514.5C1129.85 1500.65 1138.56 1490.78 1150 1488.88C1161.19 1487 1176.01 1493.82 1183.98 1518.49C1192.97 1546.29 1258.8 1651.51 1262.85 1657.96L1302.23 1701C1302.92 1701.75 1303.28 1702.73 1303.27 1703.75C1302.73 1735.07 1362.37 1835.34 1362.97 1836.35C1363.54 1837.3 1363.69 1838.45 1363.36 1839.52C1363.05 1840.59 1362.28 1841.47 1361.28 1841.96L1151.99 1942.72C1151.44 1942.95 1150.85 1943.09 1150.28 1943.09ZM987.79 1580.17C977.83 1603.83 1029.64 1740.5 1059.4 1788.63C1077.06 1817.18 1139.96 1915.6 1151.72 1934L1353.95 1836.64C1342.99 1817.95 1296.46 1736.78 1295.35 1705.19L1256.74 1663.01C1256.58 1662.83 1256.44 1662.65 1256.31 1662.44C1253.43 1657.87 1185.94 1550.36 1176.41 1520.89C1171.04 1504.28 1161.43 1494.98 1151.29 1496.68C1141.79 1498.25 1132.34 1509.96 1132.64 1529.27C1132.66 1531.16 1131.35 1532.82 1129.5 1533.22C1127.66 1533.61 1125.77 1532.65 1125.02 1530.92C1124.97 1530.8 1119.75 1518.79 1113.63 1506.09C1108.88 1496.23 1097.5 1491.61 1087.16 1495.38L1086.74 1495.54C1076.29 1499.32 1070.43 1510.61 1073.4 1521.26C1077.4 1535.64 1081.93 1548.83 1081.98 1548.96C1082.65 1550.94 1081.69 1553.11 1079.76 1553.92C1077.83 1554.73 1075.6 1553.92 1074.67 1552.05C1074.52 1551.78 1059.94 1523.85 1045.26 1529.04C1020.75 1537.71 1029.53 1567.05 1029.92 1568.3C1030.41 1569.87 1029.88 1571.56 1028.61 1572.58C1027.34 1573.6 1025.57 1573.74 1024.15 1572.93C1024.01 1572.85 1010.06 1564.99 998.938 1568.75C993.97 1570.42 990.322 1574.16 987.79 1580.17Z" fill="#898989"/>
<path d="M1128.66 1529.35C1128.66 1529.35 1149.44 1589.33 1169.26 1618.59Z" fill="white"/>
<path d="M1169.27 1622.56C1168 1622.56 1166.75 1621.96 1165.97 1620.82C1146.09 1591.45 1125.77 1533.12 1124.91 1530.64C1124.19 1528.57 1125.28 1526.31 1127.36 1525.59C1129.43 1524.86 1131.69 1525.97 1132.41 1528.04C1132.61 1528.63 1153.25 1587.86 1172.54 1616.36C1173.76 1618.18 1173.29 1620.65 1171.47 1621.87C1170.81 1622.35 1170.03 1622.56 1169.27 1622.56Z" fill="#898989"/>
<path d="M1078.23 1550.23C1078.23 1550.23 1090.85 1592.35 1120.2 1633.49Z" fill="white"/>
<path d="M1120.19 1637.47C1118.96 1637.47 1117.73 1636.89 1116.96 1635.8C1087.56 1594.59 1074.94 1553.12 1074.4 1551.38C1073.77 1549.28 1074.96 1547.06 1077.07 1546.43C1079.18 1545.8 1081.38 1546.99 1082.01 1549.1C1082.13 1549.51 1094.82 1591.11 1123.42 1631.19C1124.69 1632.97 1124.28 1635.46 1122.48 1636.73C1121.8 1637.23 1120.99 1637.47 1120.19 1637.47Z" fill="#898989"/>
<path d="M1026.14 1569.46C1026.14 1569.46 1039.99 1616.05 1064.83 1649.13Z" fill="white"/>
<path d="M1064.83 1653.09C1063.61 1653.09 1062.43 1652.55 1061.64 1651.51C1036.67 1618.24 1022.9 1572.51 1022.33 1570.59C1021.7 1568.48 1022.9 1566.27 1025.01 1565.64C1027.11 1565.01 1029.32 1566.21 1029.95 1568.32C1030.09 1568.78 1043.91 1614.63 1068 1646.73C1069.32 1648.49 1068.96 1650.97 1067.21 1652.29C1066.49 1652.84 1065.65 1653.09 1064.83 1653.09Z" fill="#898989"/>
<path d="M1871.94 1677.1C1871.94 1677.1 1749.15 1695.9 1698.24 1711.9C1647.31 1727.9 1451.56 1989.71 1451.56 1989.71L1380.15 1746.4C1318.96 1867.37 1147.42 1907.32 1057.81 1848.57C1057.81 1848.57 1191.37 2282.48 1372.01 2325.17C1582.71 2374.96 1842.01 2012.25 1842.01 2012.25L1871.94 1677.1Z" fill="#9CB4BC"/>
<path d="M1372.01 2329.12C1371.7 2329.12 1371.4 2329.09 1371.09 2329.02C1294.97 2311.02 1218.42 2224.76 1143.6 2072.59C1088.13 1959.81 1054.34 1850.8 1054.02 1849.72C1053.52 1848.12 1054.09 1846.38 1055.42 1845.38C1056.76 1844.38 1058.59 1844.32 1059.99 1845.24C1101.31 1872.33 1162.45 1878.77 1223.56 1862.45C1292.23 1844.1 1348 1801.14 1376.61 1744.61C1377.35 1743.14 1378.95 1742.27 1380.55 1742.45C1382.18 1742.61 1383.54 1743.76 1383.99 1745.33L1468.73 2048.72C1469.32 2050.83 1468.08 2053.02 1465.96 2053.62C1463.85 2054.21 1461.66 2052.98 1461.07 2050.85L1379 1756.98C1348.22 1811.19 1292.88 1852.16 1225.62 1870.13C1166.73 1885.86 1107.59 1881.03 1064.85 1857.44C1086.3 1922.61 1211.76 2283.22 1372.93 2321.31C1375.06 2321.82 1376.38 2323.95 1375.88 2326.08C1375.44 2327.89 1373.81 2329.12 1372.01 2329.12Z" fill="#61757B"/>
<path d="M2007.27 1657.51C2058.44 1655.82 2167.93 1661.32 2250.33 1677.11C2310.79 1688.69 2354.71 1741.27 2355.32 1802.83L2363.01 2572.67C2363.01 2652.21 1651.55 2652.21 1651.55 2572.67L1712.85 1812.66C1714.89 1755.65 1754.02 1706.68 1809.21 1692.2C1886.66 1671.87 1957.86 1659.15 2007.27 1657.51Z" fill="#9CB4BC"/>
<path d="M1651.55 2576.63C1651.45 2576.63 1651.34 2576.63 1651.23 2576.61C1649.05 2576.43 1647.41 2574.52 1647.59 2572.34L1708.89 1812.33C1709.06 1810.15 1710.98 1808.47 1713.17 1808.69C1715.35 1808.87 1716.99 1810.79 1716.81 1812.97L1655.5 2572.98C1655.35 2575.05 1653.6 2576.63 1651.55 2576.63Z" fill="#61757B"/>
<path d="M2130.45 2128.73L2048.66 2076.65C2048.66 2076.65 2020.06 2010.19 1958.19 1975.74C1885.16 1935.07 1852.65 1971.1 1852.65 1971.1C1852.65 1971.1 1715.17 1886.6 1690.81 1908.1C1666.44 1929.6 1723.04 1972.7 1735.09 1982.39C1747.14 1992.07 1785.46 2021.2 1785.46 2021.2C1785.46 2021.2 1738.29 2049.69 1778.36 2085.09C1778.36 2085.09 1748.47 2118.96 1790.42 2150.04C1790.42 2150.04 1773.87 2176.58 1815.94 2208.82C1858.01 2241.07 1930.86 2247.43 1950.98 2240.23C1971.11 2233.03 1987.25 2223.84 1987.25 2223.84L2045.81 2272.79L2130.45 2128.73Z" fill="#F2BD96"/>
<path d="M2045.82 2276.74C2044.89 2276.74 2043.99 2276.41 2043.27 2275.81L1986.79 2228.61C1981.51 2231.45 1968.22 2238.28 1952.33 2243.96C1929.69 2252.04 1855.49 2244.1 1813.53 2211.96C1777.23 2184.15 1782.06 2159.84 1785.47 2151.23C1772.74 2141.07 1765.62 2129.56 1764.3 2116.98C1762.78 2102.59 1769.33 2090.88 1773.02 2085.55C1762.3 2075.16 1757.37 2064.21 1758.39 2052.99C1759.77 2037.73 1771.87 2026.35 1778.73 2021.06C1768.33 2013.15 1742.14 1993.15 1732.6 1985.48L1730.69 1983.95C1709.53 1967.09 1681.33 1942.3 1680.81 1921.56C1680.65 1915.1 1683.13 1909.56 1688.18 1905.1C1712.85 1883.35 1829.25 1952.21 1852.15 1966.11C1861.21 1958.37 1895.45 1936.24 1960.14 1972.26C2018.76 2004.9 2047.61 2064.64 2051.81 2073.93L2132.59 2125.37C2134.39 2126.52 2134.96 2128.88 2133.88 2130.74L2049.23 2274.8C2048.64 2275.8 2047.63 2276.49 2046.48 2276.7C2046.26 2276.72 2046.03 2276.74 2045.82 2276.74ZM1987.25 2219.85C1988.16 2219.85 1989.07 2220.16 1989.8 2220.77L2044.76 2266.71L2125.09 2130.01L2046.53 2079.99C2045.86 2079.57 2045.33 2078.94 2045.02 2078.21C2044.74 2077.55 2016.18 2012.56 1956.26 1979.2C1887.18 1940.75 1856.84 1972.4 1855.59 1973.77C1854.3 1975.16 1852.18 1975.47 1850.57 1974.47C1798.38 1942.4 1709.58 1896.82 1693.43 1911.07C1690.18 1913.92 1688.65 1917.29 1688.75 1921.35C1689.23 1940.79 1724.15 1968.59 1735.63 1977.72L1737.57 1979.27C1749.43 1988.81 1787.47 2017.72 1787.85 2018.01C1788.9 2018.81 1789.48 2020.07 1789.42 2021.38C1789.34 2022.69 1788.63 2023.89 1787.51 2024.57C1787.32 2024.69 1767.8 2036.73 1766.29 2053.72C1765.44 2063.17 1770.39 2072.72 1780.98 2082.09C1782.63 2083.54 1782.79 2086.05 1781.34 2087.7C1781.24 2087.82 1770.48 2100.33 1772.2 2116.22C1773.4 2127.3 1780.32 2137.59 1792.79 2146.83C1794.45 2148.06 1794.89 2150.37 1793.79 2152.12C1793.22 2153.07 1779.94 2176.21 1818.37 2205.64C1859.98 2237.54 1931.76 2242.88 1949.65 2236.47C1969.19 2229.49 1985.13 2220.45 1985.29 2220.37C1985.9 2220.02 1986.58 2219.85 1987.25 2219.85Z" fill="#898989"/>
<path d="M1852.65 1971.08C1852.65 1971.08 1893.67 2006.06 1899.01 2008.35C1912.45 2014.11 1929.1 2003.33 1929.1 2003.33" fill="#D1A483"/>
<path d="M1907.73 2014.02C1904.32 2014.02 1900.83 2013.45 1897.46 2012.01C1891.98 2009.66 1859.82 1982.41 1850.09 1974.11C1848.42 1972.68 1848.23 1970.18 1849.64 1968.51C1851.06 1966.84 1853.57 1966.65 1855.24 1968.06C1875.01 1984.92 1897.37 2003.24 1900.6 2004.72C1911.89 2009.54 1926.79 2000.09 1926.95 1999.99C1928.79 1998.81 1931.25 1999.33 1932.44 2001.18C1933.63 2003.02 1933.11 2005.47 1931.27 2006.67C1930.67 2007.03 1919.73 2014.02 1907.73 2014.02Z" fill="#898989"/>
<path d="M1785.45 2021.18C1785.45 2021.18 1808.33 2031.6 1827.68 2037.6Z" fill="white"/>
<path d="M1827.69 2041.58C1827.3 2041.58 1826.9 2041.52 1826.51 2041.4C1807.13 2035.4 1784.75 2025.22 1783.81 2024.8C1781.81 2023.89 1780.93 2021.53 1781.85 2019.54C1782.75 2017.54 1785.12 2016.67 1787.1 2017.58C1787.34 2017.69 1809.98 2027.97 1828.86 2033.83C1830.96 2034.48 1832.13 2036.7 1831.48 2038.8C1830.94 2040.48 1829.38 2041.58 1827.69 2041.58Z" fill="#898989"/>
<path d="M1778.36 2085.07C1778.36 2085.07 1800.33 2099.82 1826.11 2099.9Z" fill="white"/>
<path d="M1826.11 2103.88H1826.1C1799.42 2103.78 1777.09 2089 1776.14 2088.37C1774.33 2087.15 1773.84 2084.69 1775.05 2082.86C1776.26 2081.03 1778.74 2080.54 1780.57 2081.77C1780.77 2081.91 1801.9 2095.85 1826.13 2095.93C1828.32 2095.94 1830.09 2097.72 1830.09 2099.92C1830.08 2102.11 1828.29 2103.88 1826.11 2103.88Z" fill="#898989"/>
<path d="M1790.43 2150.03C1790.43 2150.03 1806.35 2155.67 1823.23 2157.81Z" fill="white"/>
<path d="M1823.22 2161.78C1823.05 2161.78 1822.88 2161.76 1822.71 2161.74C1805.61 2159.57 1789.75 2154 1789.08 2153.77C1787.01 2153.03 1785.93 2150.76 1786.66 2148.7C1787.4 2146.63 1789.66 2145.55 1791.72 2146.28C1791.88 2146.33 1807.48 2151.8 1823.7 2153.86C1825.88 2154.14 1827.42 2156.13 1827.14 2158.31C1826.9 2160.31 1825.19 2161.78 1823.22 2161.78Z" fill="#898989"/>
<path d="M2569.15 2511.57C2490.75 2511.57 2384.42 2484.71 2251.51 2431.2C2113.75 2375.74 1997.27 2310.76 1996.11 2310.1C1994.23 2309.05 1993.53 2306.7 1994.53 2304.78L2127.51 2051.7C2128.45 2049.92 2130.58 2049.12 2132.47 2049.85L2458.34 2177.09L2262.79 1954.94C2253.32 1942.74 2244.77 1929.96 2237.24 1916.78C2236.15 1914.88 2236.81 1912.45 2238.72 1911.36C2240.62 1910.27 2243.04 1910.94 2244.13 1912.84C2251.49 1925.7 2259.82 1938.16 2268.91 1949.88L2475.11 2184.12C2476.32 2185.5 2476.43 2187.53 2475.39 2189.03C2474.33 2190.53 2472.39 2191.11 2470.69 2190.46L2132.9 2058.56L2003.38 2305.05C2045.85 2328.34 2472.14 2557.79 2646.28 2491.48C2648.32 2490.71 2650.63 2491.73 2651.4 2493.79C2652.18 2495.83 2651.15 2498.14 2649.1 2498.91C2626.9 2507.35 2600.22 2511.57 2569.15 2511.57Z" fill="#61757B"/>
<path d="M1484.71 1140.29C1510.09 1216.88 1592.8 1258.44 1669.43 1233.03C1711.21 1300.18 1735.31 1373.99 1742.71 1454.08C1355.61 1624.57 954.862 1755.86 541.898 1852.13C494.423 1781.38 466.966 1708.07 468.626 1631.08C545.218 1605.69 586.768 1522.96 561.37 1446.35C535.973 1369.73 453.249 1328.21 376.645 1353.61C339.905 1282.35 313.66 1209.02 303.36 1132.52C698.16 983.334 1098.43 850.652 1504.17 734.473C1542.63 794.889 1568.41 867.301 1577.45 955.562C1500.82 980.971 1459.3 1063.66 1484.71 1140.29Z" fill="#F1F0EC"/>
<path d="M1484.7 1140.27C1510.09 1216.87 1592.8 1258.43 1669.43 1233.02C1711.21 1300.17 1735.31 1373.98 1742.7 1454.07L1515.08 1550.7L1484.7 1561.58L1215.96 819.214C1506.92 729.478 1504.16 734.46 1504.16 734.46C1542.62 794.876 1568.41 867.288 1577.44 955.549C1500.82 980.959 1459.29 1063.65 1484.7 1140.27Z" fill="#094446"/>
<path d="M728.963 1289.64C717.016 1253.61 716.083 1224.27 726.14 1201.65C736.21 1179.03 754.773 1163.23 781.843 1154.25C809.833 1144.96 834.601 1146.35 856.157 1158.39C877.713 1170.44 894.495 1194.56 906.504 1230.78C918.451 1266.81 919.384 1296.15 909.327 1318.77C899.258 1341.4 880.694 1357.2 853.624 1366.18C825.634 1375.46 800.867 1374.08 779.31 1362.03C757.754 1349.99 740.971 1325.86 728.963 1289.64ZM788.87 1269.17C797.546 1295.33 806.38 1311.89 815.395 1318.85C822.144 1323.91 829.548 1325.11 837.606 1322.44C845.833 1319.72 851.153 1314.3 853.54 1306.2C856.423 1295.29 853.527 1276.76 844.852 1250.6C836.176 1224.44 827.464 1207.95 818.691 1201.1C811.869 1195.86 804.356 1194.58 796.117 1197.32C788.059 1199.99 782.848 1205.38 780.461 1213.48C777.396 1224.45 780.207 1243.02 788.87 1269.17ZM981.278 1559.27L924.207 1578.19L997.794 1082.66L1053.22 1064.29L981.278 1559.27ZM1070.84 1412.34C1058.89 1376.31 1057.94 1346.97 1068.01 1324.35C1078.07 1301.72 1096.83 1285.86 1124.27 1276.77C1151.89 1267.61 1176.5 1269.1 1198.08 1281.23C1219.66 1293.38 1236.43 1317.45 1248.38 1353.49C1260.38 1389.71 1261.35 1419.13 1251.3 1441.75C1241.23 1464.37 1222.66 1480.17 1195.59 1489.15C1167.6 1498.43 1142.81 1497 1121.23 1484.86C1099.64 1472.73 1082.84 1448.56 1070.84 1412.34ZM1130.84 1392.14C1139.52 1418.3 1148.33 1434.77 1157.27 1441.56C1164.08 1446.81 1171.52 1448.1 1179.56 1445.43C1187.79 1442.71 1193.01 1437.33 1195.22 1429.28C1198.28 1418.32 1195.48 1399.75 1186.81 1373.59C1178.13 1347.43 1169.38 1330.84 1160.56 1323.81C1153.8 1318.75 1146.31 1317.57 1138.09 1320.3C1129.86 1323.03 1124.64 1328.42 1122.43 1336.45C1119.37 1347.42 1122.16 1365.98 1130.84 1392.14Z" fill="#575757"/>
<path d="M2194 1679.23C2194 1679.23 2148.26 1477.34 2183.88 1368.24L1955.73 1430.84L1951.05 1680.45C1997.41 1708.61 2087.06 1717.26 2194 1679.23Z" fill="#F2BD96"/>
<path d="M2057.66 1708.53C2009.34 1708.53 1971.9 1697.75 1949 1683.84C1947.78 1683.1 1947.06 1681.78 1947.08 1680.38L1951.76 1430.75C1951.8 1429 1952.98 1427.46 1954.68 1427L2182.83 1364.4C2184.24 1364.01 2185.75 1364.44 2186.76 1365.49C2187.76 1366.54 2188.12 1368.07 2187.66 1369.46C2152.78 1476.28 2197.41 1676.34 2197.87 1678.34C2198.32 1680.3 2197.23 1682.29 2195.33 1682.96C2143.57 1701.38 2097.01 1708.53 2057.66 1708.53ZM1955.08 1678.21C1995.55 1701.59 2080.04 1714.67 2189.38 1676.65C2183.44 1649.25 2148.32 1477.31 2177.99 1373.97L1959.67 1433.87L1955.08 1678.21Z" fill="#898989"/>
<path d="M1934.07 1541.78C1903.54 1541.78 1869.89 1535.69 1842.94 1515.22C1766.21 1456.95 1749.14 1357.19 1793.59 1226.74C1826.89 1128.99 1883.53 1047.33 1884.1 1046.52C1884.9 1045.38 1886.25 1044.74 1887.64 1044.83L2153.72 1063.36C2154.94 1063.45 2156.06 1064.09 2156.74 1065.11C2185.49 1107.82 2232.81 1176.55 2240.7 1184.13C2240.92 1184.19 2241.13 1184.28 2241.35 1184.37C2244.78 1186.02 2244.78 1186.02 2233.96 1227.55C2227.96 1250.57 2219.83 1281.2 2211.65 1311.81C2195.31 1373.03 2178.79 1434.16 2178.79 1434.16C2178.22 1436.28 2176.03 1437.51 2173.92 1436.96C2171.8 1436.39 2170.55 1434.21 2171.12 1432.09C2195.49 1341.91 2231.46 1207.46 2235.37 1189.54C2228.76 1182.96 2210.38 1158.95 2151.22 1071.14L1889.35 1052.9C1880.83 1065.51 1831.22 1140.81 1801.05 1229.44C1757.26 1358.09 1772.96 1452.1 1847.74 1508.9C1901.28 1549.56 1984.07 1530 2008.16 1523.04C2010.27 1522.43 2012.47 1523.64 2013.08 1525.75C2013.68 1527.86 2012.47 1530.06 2010.36 1530.67C1997.31 1534.44 1967.57 1541.78 1934.07 1541.78Z" fill="#F2BD96"/>
<path d="M2160.52 1443.43C2153.57 1443.43 2146.47 1442.79 2139.32 1441.47C2137.16 1441.07 2135.73 1438.99 2136.13 1436.84C2136.53 1434.68 2138.58 1433.25 2140.76 1433.65C2174.97 1439.94 2207.95 1429.72 2226.84 1406.96C2242.76 1387.76 2245.96 1362.76 2235.86 1336.56C2230.21 1321.89 2221.41 1312.81 2209.73 1309.55C2180.12 1301.27 2140.54 1331.49 2140.14 1331.79C2138.41 1333.14 2135.91 1332.81 2134.57 1331.08C2133.22 1329.35 2133.54 1326.85 2135.28 1325.5C2137.03 1324.16 2178.38 1292.56 2211.85 1301.88C2226.1 1305.85 2236.67 1316.55 2243.27 1333.68C2254.46 1362.7 2250.8 1390.51 2232.96 1412.02C2216.23 1432.2 2189.63 1443.43 2160.52 1443.43Z" fill="#A87550"/>
<path d="M2179.86 1345.06C2188.75 1351.77 2193.83 1363.22 2192.83 1374.32C2191.84 1385.42 2184.81 1395.79 2174.86 1400.82" fill="white"/>
<path d="M1951.07 1586.77L1872.96 1681.21L1951.07 1803.47L2029.22 1703.49L1951.07 1586.77Z" fill="white"/>
<path d="M1951.08 1807.45C1951.02 1807.45 1950.95 1807.45 1950.88 1807.45C1949.6 1807.39 1948.42 1806.71 1947.72 1805.62L1869.61 1683.36C1868.68 1681.91 1868.8 1680.02 1869.9 1678.7L1948.01 1584.24C1948.81 1583.27 1950.03 1582.73 1951.27 1582.81C1952.52 1582.87 1953.67 1583.53 1954.37 1584.57L2032.53 1701.29C2033.48 1702.72 2033.41 1704.6 2032.36 1705.95L1954.2 1805.94C1953.45 1806.9 1952.3 1807.45 1951.08 1807.45ZM1877.89 1681.52L1951.42 1796.61L2024.35 1703.31L1950.75 1593.4L1877.89 1681.52Z" fill="#898989"/>
<path d="M2029.23 1703.5L2087.76 1825.42L2231.69 1677.36L2180.46 1602.9L2029.23 1703.5Z" fill="white"/>
<path d="M2087.75 1829.38C2087.53 1829.38 2087.32 1829.37 2087.1 1829.33C2085.82 1829.13 2084.73 1828.3 2084.16 1827.13L2025.63 1705.19C2024.77 1703.41 2025.37 1701.27 2027.01 1700.17L2178.24 1599.57C2180.04 1598.37 2182.48 1598.83 2183.71 1600.62L2234.96 1675.09C2236.03 1676.66 2235.85 1678.75 2234.53 1680.11L2090.6 1828.17C2089.84 1828.96 2088.81 1829.38 2087.75 1829.38ZM2034.3 1704.88L2088.87 1818.56L2226.56 1676.91L2179.39 1608.35L2034.3 1704.88Z" fill="#898989"/>
<path d="M1311.97 1756.18C1302.28 1715.66 1311.08 1573.06 1270.44 1564.77C1188.3 1548.02 1213.03 1736.14 1213.03 1736.14" fill="#F2BD96"/>
<path d="M1311.96 1760.15C1310.17 1760.15 1308.53 1758.93 1308.1 1757.11C1305.12 1744.64 1303.87 1723.46 1302.44 1698.94C1299.35 1646.15 1295.12 1573.86 1269.64 1568.66C1256.89 1566.06 1246.63 1568.59 1238.27 1576.38C1201.08 1611.04 1216.8 1734.39 1216.95 1735.64C1217.24 1737.82 1215.7 1739.81 1213.54 1740.1C1211.34 1740.38 1209.37 1738.85 1209.08 1736.68C1208.39 1731.45 1192.68 1608.02 1232.85 1570.58C1243.08 1561.04 1255.99 1557.78 1271.23 1560.89C1302.69 1567.31 1306.76 1636.99 1310.36 1698.48C1311.78 1722.63 1312.99 1743.48 1315.82 1755.27C1316.33 1757.4 1315.02 1759.55 1312.87 1760.05C1312.58 1760.12 1312.28 1760.15 1311.96 1760.15Z" fill="#F2BD96"/>
<path d="M832.144 2171.66C813.605 2170.91 800.021 2166.28 791.418 2157.76C782.815 2149.26 778.792 2138.04 779.35 2124.12C779.931 2109.72 784.851 2098.62 794.072 2090.84C803.293 2083.06 817.228 2079.55 835.864 2080.31C854.403 2081.06 867.986 2085.7 876.59 2094.21C885.205 2102.72 889.216 2113.94 888.658 2127.87C888.077 2142.27 883.169 2153.37 873.936 2161.15C864.715 2168.91 850.78 2172.43 832.144 2171.66ZM998.997 2102.8L997.797 2132.16L783.881 2012.99L785.045 1984.47L998.997 2102.8ZM833.126 2140.73C846.588 2141.27 855.688 2140.1 860.425 2137.18C863.903 2134.96 865.733 2131.79 865.902 2127.64C866.072 2123.4 864.521 2120.04 861.225 2117.55C856.742 2114.35 847.763 2112.47 834.301 2111.93C820.839 2111.38 811.787 2112.52 807.146 2115.34C803.572 2117.55 801.694 2120.77 801.524 2125.01C801.354 2129.16 802.917 2132.46 806.213 2134.96C810.697 2138.26 819.663 2140.18 833.126 2140.73ZM947.245 2036.5C928.705 2035.74 915.122 2031.12 906.519 2022.6C897.916 2014.09 893.893 2002.77 894.462 1988.66C895.044 1974.44 899.964 1963.45 909.245 1955.68C918.527 1947.9 932.425 1944.38 950.965 1945.15C969.601 1945.91 983.232 1950.54 991.836 1959.04C1000.45 1967.55 1004.47 1978.77 1003.9 1992.69C1003.31 2007.1 998.391 2018.19 989.109 2025.95C979.84 2033.75 965.893 2037.25 947.245 2036.5ZM948.371 2005.56C961.834 2006.11 970.885 2004.92 975.526 2002C979.1 1999.79 980.979 1996.62 981.148 1992.47C981.318 1988.23 979.755 1984.93 976.471 1982.53C971.988 1979.23 963.009 1977.32 949.547 1976.77C936.085 1976.23 926.997 1977.36 922.259 1980.19C918.769 1982.41 916.94 1985.63 916.77 1989.87C916.6 1994.11 918.163 1997.42 921.459 1999.82C925.943 2003.09 934.909 2005.02 948.371 2005.56Z" fill="#094446"/>
<path d="M2491.92 1408.06C2496.26 1390.02 2503.42 1377.6 2513.44 1370.8C2523.45 1364 2535.24 1362.23 2548.8 1365.48C2562.8 1368.85 2572.74 1375.8 2578.58 1386.37C2584.42 1396.92 2585.17 1411.27 2580.81 1429.41C2576.47 1447.45 2569.31 1459.87 2559.29 1466.68C2549.27 1473.48 2537.49 1475.25 2523.93 1472C2509.93 1468.63 2499.99 1461.68 2494.15 1451.11C2488.31 1440.54 2487.57 1426.2 2491.92 1408.06ZM2527.16 1585.09L2498.57 1578.23L2656.92 1391.45L2684.68 1398.11L2527.16 1585.09ZM2522.07 1415.01C2518.92 1428.11 2518.32 1437.27 2520.26 1442.48C2521.75 1446.32 2524.53 1448.74 2528.56 1449.7C2532.68 1450.7 2536.28 1449.81 2539.36 1447.06C2543.37 1443.28 2546.94 1434.84 2550.09 1421.74C2553.23 1408.64 2553.87 1399.54 2552 1394.44C2550.52 1390.5 2547.72 1388.04 2543.6 1387.05C2539.56 1386.08 2536 1386.96 2532.94 1389.71C2528.84 1393.48 2525.22 1401.91 2522.07 1415.01ZM2602.23 1547.17C2606.56 1529.13 2613.73 1516.71 2623.75 1509.9C2633.76 1503.1 2645.65 1501.35 2659.38 1504.66C2673.2 1507.98 2683.04 1514.94 2688.87 1525.55C2694.7 1536.15 2695.45 1550.47 2691.12 1568.53C2686.76 1586.66 2679.58 1599.13 2669.57 1605.93C2659.56 1612.73 2647.77 1614.5 2634.21 1611.25C2620.2 1607.88 2610.27 1600.9 2604.44 1590.3C2598.62 1579.67 2597.87 1565.31 2602.23 1547.17ZM2632.36 1554.26C2629.21 1567.36 2628.62 1576.47 2630.59 1581.59C2632.07 1585.53 2634.82 1587.99 2638.85 1588.95C2642.97 1589.95 2646.53 1589.05 2649.51 1586.29C2653.62 1582.53 2657.23 1574.1 2660.38 1561C2663.52 1547.9 2664.18 1538.75 2662.32 1533.57C2660.82 1529.71 2658.02 1527.3 2653.89 1526.31C2649.77 1525.32 2646.21 1526.21 2643.23 1528.97C2639.12 1532.73 2635.51 1541.16 2632.36 1554.26Z" fill="#094446"/>
<path d="M1604.86 737.395L1772.82 398.406L1952.13 574.262L1604.86 737.395Z" fill="#4285F4"/>
<path d="M1677.59 788.907L1830.32 719.148L1832.39 793.548L1677.59 788.907Z" fill="#D4DCE8"/>
<path d="M1499.81 488.922L1549.71 662.936L1666.47 472.867L1499.81 488.922Z" fill="white"/>
<path d="M1549.7 666.922C1549.52 666.922 1549.35 666.91 1549.17 666.885C1547.61 666.667 1546.32 665.565 1545.89 664.038L1495.99 490.024C1495.66 488.885 1495.86 487.661 1496.52 486.692C1497.19 485.71 1498.25 485.092 1499.43 484.971L1666.1 468.916C1667.59 468.795 1669.06 469.497 1669.85 470.77C1670.65 472.042 1670.65 473.666 1669.86 474.95L1553.08 665.019C1552.36 666.207 1551.06 666.922 1549.7 666.922ZM1504.93 492.423L1551.03 653.181L1658.9 477.592L1504.93 492.423Z" fill="#898989"/>
<path d="M1604.86 737.395L1772.82 398.406L1952.13 574.262L1604.86 737.395Z" fill="#04888C"/>
<path d="M1677.59 788.907L1830.32 719.148L1832.39 793.548L1677.59 788.907Z" fill="#E3E3E3"/>
<path d="M1499.81 488.922L1549.71 662.936L1666.47 472.867L1499.81 488.922Z" fill="white"/>
<path d="M1549.7 666.922C1549.52 666.922 1549.35 666.91 1549.17 666.885C1547.61 666.667 1546.32 665.565 1545.89 664.038L1495.99 490.024C1495.66 488.885 1495.86 487.661 1496.52 486.692C1497.19 485.71 1498.25 485.092 1499.43 484.971L1666.1 468.916C1667.59 468.795 1669.06 469.497 1669.85 470.77C1670.65 472.042 1670.65 473.666 1669.86 474.95L1553.08 665.019C1552.36 666.207 1551.06 666.922 1549.7 666.922ZM1504.93 492.423L1551.03 653.181L1658.9 477.592L1504.93 492.423Z" fill="#898989"/>
<path d="M1171.87 2576.58C1144.13 2576.58 1116.13 2574.98 1088.6 2570.88C1000.86 2557.84 927.791 2520.21 881.528 2464.48C836.937 2468.21 796.308 2463.97 760.308 2451.79C700.05 2431.41 653.593 2387.66 636.035 2334.74C612.382 2263.51 640.373 2189.48 673.719 2113.59C674.604 2111.58 676.954 2110.67 678.954 2111.56C680.965 2112.44 681.874 2114.78 680.989 2116.79C648.285 2191.22 620.816 2263.69 643.572 2332.25C660.354 2382.8 704.945 2424.68 762.853 2444.27C796.393 2455.61 834.126 2459.85 875.542 2456.98C875.348 2456.73 875.154 2456.47 874.96 2456.22C854.41 2429.15 839.348 2389.69 858.748 2360.15C876.681 2332.83 915.044 2328.93 944.949 2334.38C973.8 2339.64 1008.29 2357.24 1010.56 2389.55C1011.81 2407.23 1001.88 2425.74 984.62 2437.86C969.45 2448.51 951.116 2453.31 933.571 2456.91C919.079 2459.88 904.938 2462.09 891.173 2463.58C936.334 2515.52 1006.19 2550.62 1089.77 2563.04C1173.47 2575.47 1262.15 2564.58 1333.41 2555.82C1335.58 2555.56 1337.57 2557.1 1337.83 2559.27C1338.1 2561.45 1336.55 2563.43 1334.38 2563.7C1285.94 2569.63 1229.51 2576.58 1171.87 2576.58ZM921.623 2340.17C899.607 2340.17 877.178 2346.53 865.388 2364.5C848.266 2390.58 862.371 2426.49 881.286 2451.41C882.509 2453.02 883.757 2454.62 885.018 2456.19C900.2 2454.76 915.868 2452.4 931.971 2449.1C948.681 2445.69 966.069 2441.15 980.052 2431.34C991.794 2423.09 1003.89 2407.93 1002.63 2390.09C1000.8 2364.1 971.619 2347.31 943.519 2342.18C936.564 2340.91 929.112 2340.17 921.623 2340.17Z" fill="#094446"/>
<path d="M2009.28 1526.85C1958.97 1541.39 1890.12 1546.04 1845.34 1512.05C1661.33 1372.3 1887.37 1048.79 1887.37 1048.79L2153.45 1067.32C2153.45 1067.32 2237.04 1191.49 2239.6 1187.99C2242.14 1184.49 2174.97 1433.12 2174.97 1433.12" fill="#F2BD96"/>
<path d="M2162.41 1433.18C2162.41 1433.18 2158.76 1321.89 2142.63 1342.98C2142.63 1342.98 1982.72 1321.83 2063.37 1181.62C2063.37 1181.62 1916.78 1227.83 1874.6 1164.54L1809.88 1210.52C1809.88 1210.52 1756.68 1163.93 1762.26 1093.21C1767.85 1022.48 1847.25 1039.24 1847.25 1039.24C1847.25 1039.24 1832.98 988.992 1877.65 954.252C1922.32 919.512 1988.09 984.036 1988.09 984.036C1988.09 984.036 1986.85 925.098 2046.41 928.2C2105.96 931.302 2218.88 1055.38 2231.29 1159.61C2231.29 1159.61 2347.29 1161.89 2359.7 1246.26C2372.1 1330.63 2269.76 1406.52 2269.76 1406.52C2269.76 1406.52 2354.66 1481.08 2175.37 1536.3L2162.41 1433.18Z" fill="#353535"/>
<path d="M1985.07 1285.38C1983.91 1285.38 1982.78 1284.89 1981.99 1283.93C1978.15 1279.24 1972.59 1275.99 1966.33 1274.78C1960.01 1273.56 1953.21 1274.46 1947.22 1277.35C1945.25 1278.29 1942.87 1277.47 1941.93 1275.48C1940.98 1273.51 1941.81 1271.13 1943.79 1270.19C1951.31 1266.58 1959.85 1265.44 1967.85 1266.99C1975.92 1268.55 1983.13 1272.78 1988.14 1278.9C1989.54 1280.6 1989.28 1283.1 1987.59 1284.49C1986.85 1285.08 1985.95 1285.38 1985.07 1285.38Z" fill="#A87550"/>
<path d="M1971.44 1312.05C1969.67 1323.12 1961.99 1331.1 1954.24 1329.86C1946.55 1328.62 1941.73 1318.64 1943.5 1307.55C1945.26 1296.53 1952.95 1288.54 1960.69 1289.79C1968.37 1291.04 1973.19 1301.02 1971.44 1312.05Z" fill="#A87550"/>
<path d="M1873.72 1265.21C1872.57 1265.21 1871.43 1264.71 1870.65 1263.76C1866.8 1259.07 1861.24 1255.82 1854.99 1254.61C1848.75 1253.4 1841.78 1254.34 1835.88 1257.18C1833.91 1258.12 1831.53 1257.3 1830.59 1255.31C1829.64 1253.34 1830.47 1250.96 1832.45 1250.02C1839.98 1246.4 1848.52 1245.27 1856.5 1246.82C1864.57 1248.38 1871.78 1252.61 1876.8 1258.73C1878.19 1260.42 1877.94 1262.93 1876.24 1264.31C1875.5 1264.91 1874.61 1265.21 1873.72 1265.21Z" fill="#A87550"/>
<path d="M1860.09 1291.9C1858.32 1302.98 1850.64 1310.95 1842.9 1309.72C1835.21 1308.48 1830.38 1298.5 1832.15 1287.41C1833.92 1276.38 1841.6 1268.4 1849.35 1269.64C1857.03 1270.89 1861.86 1280.88 1860.09 1291.9Z" fill="#A87550"/>
<path d="M1903.39 1472.26C1899 1472.26 1894.44 1471.47 1890.12 1469.35C1888.16 1468.38 1887.33 1466.01 1888.3 1464.03C1889.26 1462.07 1891.65 1461.24 1893.62 1462.21C1901.04 1465.85 1909.85 1464.1 1915.93 1462.01C1937.32 1454.64 1953.43 1433.74 1955.13 1411.18C1955.28 1408.98 1957.19 1407.35 1959.38 1407.52C1961.57 1407.67 1963.21 1409.59 1963.04 1411.77C1961.11 1437.4 1942.8 1461.15 1918.51 1469.51C1914.3 1470.97 1908.99 1472.26 1903.39 1472.26Z" fill="#A87550"/>
<path d="M1896.1 1391.92C1895.86 1391.92 1895.62 1391.9 1895.36 1391.85C1879.77 1388.93 1868.13 1373.13 1869.96 1357.36C1871.3 1345.89 1878.66 1336.58 1885.15 1328.37C1892.46 1319.1 1898.86 1310.64 1902.91 1300.96C1907.39 1290.23 1908.01 1279.58 1904.64 1270.95C1903.84 1268.91 1904.86 1266.6 1906.9 1265.8C1908.94 1265 1911.25 1266.02 1912.05 1268.06C1916.15 1278.61 1915.51 1291.37 1910.24 1304.01C1905.81 1314.62 1899.07 1323.55 1891.37 1333.28C1885.26 1341.03 1878.92 1349.04 1877.84 1358.27C1876.49 1369.84 1885.36 1381.87 1896.81 1384.03C1898.97 1384.43 1900.39 1386.52 1899.99 1388.67C1899.64 1390.59 1897.97 1391.92 1896.1 1391.92Z" fill="#A87550"/>
<path d="M2137.71 1328.66C2137.71 1328.66 2214.23 1269.42 2239.55 1335.13C2264.89 1400.84 2206.51 1449.8 2140.03 1437.57" fill="#F2BD96"/>
<path d="M2174.85 1404.81C2173.4 1404.81 2172 1404.01 2171.3 1402.62C2170.31 1400.66 2171.1 1398.27 2173.06 1397.28C2181.78 1392.87 2187.99 1383.72 2188.86 1373.98C2189.73 1364.24 2185.25 1354.13 2177.44 1348.24C2175.69 1346.92 2175.35 1344.43 2176.67 1342.68C2177.99 1340.92 2180.49 1340.58 2182.23 1341.91C2192.18 1349.42 2197.87 1362.29 2196.77 1374.69C2195.66 1387.1 2187.76 1398.76 2176.63 1404.38C2176.06 1404.67 2175.46 1404.81 2174.85 1404.81Z" fill="#A87550"/>
<path d="M2153.12 1974.95C2141.69 1974.95 2130.51 1978.34 2121.01 1984.69C2111.5 1991.04 2104.09 2000.07 2099.71 2010.64C2095.34 2021.2 2094.19 2032.82 2096.42 2044.04C2098.65 2055.25 2104.16 2065.55 2112.24 2073.64C2120.33 2081.72 2130.63 2087.23 2141.85 2089.46C2153.06 2091.69 2164.68 2090.55 2175.25 2086.17C2185.81 2081.79 2194.84 2074.38 2201.19 2064.88C2207.54 2055.37 2210.94 2044.19 2210.94 2032.76L2153.12 2032.76L2153.12 1974.95Z" fill="#373737"/>
<path d="M2220.9 2022.79C2220.9 2015.2 2219.41 2007.68 2216.5 2000.67C2213.6 1993.65 2209.34 1987.28 2203.97 1981.91C2198.6 1976.54 2192.23 1972.29 2185.22 1969.38C2178.2 1966.48 2170.68 1964.98 2163.09 1964.98L2163.09 2022.79L2220.9 2022.79Z" fill="white"/>
<path d="M2250.33 1677.1C2250.33 1677.1 2396.47 1695.96 2493.46 1769.68C2590.44 1843.41 2859.13 2414.69 2647.68 2495.2C2461.36 2566.14 1998.05 2306.64 1998.05 2306.64L2131.02 2053.56L2472.12 2186.76L2265.76 1952.33C2210.32 1880.82 2229.56 1798.78 2244.78 1709.58L2250.33 1677.1Z" fill="#9CB4BC"/>
</svg>
