<svg width="2327" height="2326" viewBox="0 0 2327 2326" fill="none" xmlns="http://www.w3.org/2000/svg">
<g clip-path="url(#clip0_579_30)">
<path d="M43.1086 625.888C31.1161 625.888 21.3076 616.079 21.3076 604.087V460.137C21.3076 448.144 31.1161 438.336 43.1086 438.336C55.1011 438.336 64.9096 448.144 64.9096 460.137V604.094C64.9096 616.079 55.1011 625.888 43.1086 625.888Z" fill="#343534"/>
<path d="M43.1086 840.376C31.1161 840.376 21.3076 830.567 21.3076 818.575V674.625C21.3076 662.633 31.1161 652.824 43.1086 652.824C55.1011 652.824 64.9096 662.633 64.9096 674.625V818.583C64.9096 830.567 55.1011 840.376 43.1086 840.376Z" fill="#343534"/>
<path d="M1087.03 2325.97H179.776C104.288 2325.97 43.0957 2264.77 43.0957 2189.29V136.68C43.0957 61.1926 104.288 0 179.776 0H1087.02C1162.51 0 1223.7 61.1926 1223.7 136.68V2189.28C1223.71 2264.77 1162.52 2325.97 1087.03 2325.97Z" fill="#343534"/>
<path d="M1181.4 136.765V2189.23C1181.4 2241.24 1139.11 2283.52 1087.1 2283.52H179.687C127.68 2283.52 85.3945 2241.24 85.3945 2189.23V136.765C85.3945 84.7501 127.68 42.4648 179.687 42.4648H1087.1C1139.11 42.4648 1181.4 84.7422 1181.4 136.765Z" fill="white"/>
<path opacity="0.32" d="M1181.41 136.765V169.234H85.4141V136.765C85.4141 84.7501 127.699 42.4648 179.706 42.4648H1087.12C1139.12 42.4648 1181.41 84.7422 1181.41 136.765Z" fill="#6994DA"/>
<path d="M633.416 142.836C655.833 142.836 674.006 124.664 674.006 102.246C674.006 79.829 655.833 61.6562 633.416 61.6562C610.998 61.6562 592.826 79.829 592.826 102.246C592.826 124.664 610.998 142.836 633.416 142.836Z" fill="#343534"/>
<path d="M227.775 80.5742H154.708V98.7641H227.775V80.5742Z" fill="#343534"/>
<path d="M227.775 114.762H154.708V132.952H227.775V114.762Z" fill="#343534"/>
<path d="M1224.24 797.716C1212.25 797.716 1202.44 787.907 1202.44 775.915V631.965C1202.44 619.973 1212.25 610.164 1224.24 610.164C1236.24 610.164 1246.05 619.973 1246.05 631.965V775.923C1246.05 787.907 1236.24 797.716 1224.24 797.716Z" fill="#343534"/>
<path d="M1008.75 1419.04H293.542C279.697 1419.04 268.477 1407.82 268.477 1393.99V678.772C268.477 664.943 279.705 653.715 293.542 653.715H1008.74C1022.59 653.715 1033.8 664.943 1033.8 678.772V1393.99C1033.81 1407.82 1022.59 1419.04 1008.75 1419.04Z" fill="#C3C3C3"/>
<path d="M980.919 1391.2H265.713C251.883 1391.2 240.655 1379.99 240.655 1366.16V650.944C240.655 637.099 251.883 625.887 265.713 625.887H980.912C994.757 625.887 1005.98 637.099 1005.98 650.944V1366.16C1005.98 1379.99 994.757 1391.2 980.919 1391.2Z" fill="#F8FBFF"/>
<path d="M711.688 912.243C709.338 912.243 707.438 910.343 707.438 907.993V844.475C707.438 813.244 682.034 787.832 650.795 787.832C619.58 787.832 594.175 813.236 594.175 844.475V907.993C594.175 910.343 592.275 912.243 589.926 912.243C587.576 912.243 585.676 910.343 585.676 907.993V844.475C585.676 808.552 614.888 779.34 650.795 779.34C686.717 779.34 715.93 808.552 715.93 844.475V907.993C715.938 910.343 714.03 912.243 711.688 912.243Z" fill="#4A4A4A"/>
<path d="M729.652 877.379H471.73L441.453 1237.78H699.375L729.652 877.379Z" fill="#12797C"/>
<path d="M774.895 877.379H729.645L699.368 1237.78H739.532H765.016H805.172L774.895 877.379Z" fill="#094446"/>
<path d="M699.368 1237.78L752.274 1190.38L805.172 1237.78H699.368Z" fill="#0E5E61"/>
<path d="M529.041 912.823C529.041 906.989 533.772 902.258 539.606 902.258C545.441 902.258 550.172 906.989 550.172 912.823C550.172 918.65 545.441 923.389 539.606 923.389C533.772 923.389 529.041 918.65 529.041 912.823Z" fill="#094446"/>
<path d="M650.809 912.823C650.809 906.989 655.54 902.258 661.375 902.258C667.201 902.258 671.94 906.989 671.94 912.823C671.94 918.65 667.201 923.389 661.375 923.389C655.532 923.389 650.809 918.65 650.809 912.823Z" fill="#094446"/>
<path d="M661.372 912.243C659.023 912.243 657.123 910.343 657.123 907.993V844.475C657.123 813.244 631.718 787.832 600.48 787.832C569.264 787.832 543.86 813.236 543.86 844.475V907.993C543.86 910.343 541.96 912.243 539.61 912.243C537.261 912.243 535.36 910.343 535.36 907.993V844.475C535.36 808.552 564.573 779.34 600.48 779.34C636.402 779.34 665.614 808.552 665.614 844.475V907.993C665.622 910.343 663.722 912.243 661.372 912.243Z" fill="#4A4A4A"/>
<path d="M1817.67 2325.97C1816.73 2325.97 1815.77 2325.87 1814.8 2325.68C1807.26 2324.08 1802.43 2316.7 1804.01 2309.15L2040.98 1181.75C2042.57 1174.22 2049.93 1169.42 2057.49 1170.96C2065.03 1172.56 2069.86 1179.95 2068.28 1187.48L1831.31 2314.88C1829.93 2321.46 1824.13 2325.97 1817.67 2325.97Z" fill="#094446"/>
<path d="M1544.03 2325.97C1543.08 2325.97 1542.12 2325.87 1541.15 2325.68C1533.61 2324.08 1528.78 2316.7 1530.37 2309.15L1767.34 1181.75C1768.93 1174.22 1776.29 1169.42 1783.86 1170.96C1791.39 1172.56 1796.23 1179.95 1794.64 1187.48L1557.67 2314.88C1556.29 2321.46 1550.49 2325.97 1544.03 2325.97Z" fill="#094446"/>
<path d="M2018.23 1371.85H1744.61C1736.9 1371.85 1730.66 1365.6 1730.66 1357.9C1730.66 1350.2 1736.9 1343.95 1744.61 1343.95H2018.23C2025.94 1343.95 2032.18 1350.2 2032.18 1357.9C2032.18 1365.6 2025.94 1371.85 2018.23 1371.85Z" fill="#094446"/>
<path d="M1977.15 1567.12H1703.52C1695.82 1567.12 1689.57 1560.87 1689.57 1553.17C1689.57 1545.47 1695.82 1539.22 1703.52 1539.22H1977.15C1984.85 1539.22 1991.09 1545.47 1991.09 1553.17C1991.1 1560.87 1984.86 1567.12 1977.15 1567.12Z" fill="#094446"/>
<path d="M1936.07 1762.28H1662.45C1654.75 1762.28 1648.5 1756.03 1648.5 1748.33C1648.5 1740.63 1654.75 1734.38 1662.45 1734.38H1936.07C1943.77 1734.38 1950.02 1740.63 1950.02 1748.33C1950.03 1756.03 1943.78 1762.28 1936.07 1762.28Z" fill="#094446"/>
<path d="M1895.14 1957.45H1621.4C1613.7 1957.45 1607.46 1951.21 1607.46 1943.51C1607.46 1935.8 1613.7 1929.56 1621.4 1929.56H1895.14C1902.84 1929.56 1909.09 1935.8 1909.09 1943.51C1909.09 1951.21 1902.84 1957.45 1895.14 1957.45Z" fill="#094446"/>
<path d="M1854.07 2152.73H1580.34C1572.63 2152.73 1566.39 2146.49 1566.39 2138.78C1566.39 2131.08 1572.63 2124.84 1580.34 2124.84H1854.07C1861.78 2124.84 1868.02 2131.08 1868.02 2138.78C1868.02 2146.49 1861.78 2152.73 1854.07 2152.73Z" fill="#094446"/>
<path d="M2017.79 2325.97C2018.74 2325.97 2019.7 2325.87 2020.67 2325.68C2028.21 2324.08 2033.04 2316.7 2031.46 2309.15L1794.49 1181.75C1792.89 1174.22 1785.53 1169.42 1777.97 1170.96C1770.43 1172.56 1765.6 1179.95 1767.18 1187.48L2004.15 2314.88C2005.53 2321.46 2011.33 2325.97 2017.79 2325.97Z" fill="#094446"/>
<path d="M2291.47 2325.97C2292.42 2325.97 2293.38 2325.87 2294.35 2325.68C2301.89 2324.08 2306.72 2316.7 2305.14 2309.15L2068.17 1181.75C2066.58 1174.22 2059.22 1169.42 2051.65 1170.96C2044.12 1172.56 2039.28 1179.95 2040.87 1187.48L2277.84 2314.88C2279.21 2321.46 2285.01 2325.97 2291.47 2325.97Z" fill="#094446"/>
<path d="M1817.27 1371.85H2090.9C2098.6 1371.85 2104.85 1365.6 2104.85 1357.9C2104.85 1350.2 2098.6 1343.95 2090.9 1343.95H1817.27C1809.57 1343.95 1803.32 1350.2 1803.32 1357.9C1803.32 1365.6 1809.57 1371.85 1817.27 1371.85Z" fill="#094446"/>
<path d="M1858.32 1567.12H2131.95C2139.65 1567.12 2145.9 1560.87 2145.9 1553.17C2145.9 1545.47 2139.65 1539.22 2131.95 1539.22H1858.32C1850.62 1539.22 1844.37 1545.47 1844.37 1553.17C1844.37 1560.87 1850.62 1567.12 1858.32 1567.12Z" fill="#094446"/>
<path d="M1899.41 1762.28H2173.03C2180.73 1762.28 2186.98 1756.03 2186.98 1748.33C2186.98 1740.63 2180.73 1734.38 2173.03 1734.38H1899.41C1891.7 1734.38 1885.46 1740.63 1885.46 1748.33C1885.46 1756.03 1891.7 1762.28 1899.41 1762.28Z" fill="#094446"/>
<path d="M1940.36 1957.45H2214.09C2221.8 1957.45 2228.04 1951.21 2228.04 1943.51C2228.04 1935.8 2221.8 1929.56 2214.09 1929.56H1940.36C1932.65 1929.56 1926.41 1935.8 1926.41 1943.51C1926.4 1951.21 1932.64 1957.45 1940.36 1957.45Z" fill="#094446"/>
<path d="M1981.4 2152.73H2255.14C2262.85 2152.73 2269.09 2146.49 2269.09 2138.78C2269.09 2131.08 2262.85 2124.84 2255.14 2124.84H1981.4C1973.7 2124.84 1967.46 2131.08 1967.46 2138.78C1967.46 2146.49 1973.71 2152.73 1981.4 2152.73Z" fill="#094446"/>
<path d="M2088.74 1202.02H1746.75C1743.3 1202.02 1740.49 1199.22 1740.49 1195.76V1162.98C1740.49 1159.53 1743.29 1156.72 1746.75 1156.72H2088.73C2092.19 1156.72 2094.99 1159.52 2094.99 1162.98V1195.76C2095 1199.21 2092.19 1202.02 2088.74 1202.02Z" fill="#094446"/>
<path d="M1734.06 536.305L1738.79 567.276L1726 571.51C1726 571.51 1687.42 599.556 1674.74 561.165C1669.81 546.216 1686.28 533.065 1699.67 541.375C1699.86 541.493 1700.05 541.612 1700.24 541.73C1700.69 542.022 1701.22 541.462 1700.88 541.028L1692.76 530.786C1691.38 529.043 1691.63 526.512 1693.33 525.077C1694.89 523.761 1697.18 523.784 1698.71 525.133L1709.07 534.239C1711.38 536.274 1714.4 537.322 1717.48 537.165L1734.06 536.305Z" fill="#F2BD96"/>
<path d="M1722.31 536.912L1731.26 574.561L1869.1 534.279C1907.1 507.66 1955.16 463.144 1955.16 463.144L1922.34 405.602L1849.98 487.499L1722.31 536.912Z" fill="#CBCBCB"/>
<path d="M1927.28 1085.58L1928.65 1131.99L1969.26 1130.8L1967.9 1084.39L1927.28 1085.58Z" fill="#A7A7A7"/>
<path d="M1971.76 1155.73L1875.28 1158.56C1873.83 1158.6 1872.94 1157.36 1872.42 1155.54C1870.46 1148.65 1874.85 1141.55 1881.22 1140.36C1892.96 1138.16 1910.43 1128.78 1926.94 1114.87C1927.34 1114.54 1927.81 1114.35 1928.31 1114.33L1967.94 1113.17C1969.19 1113.13 1970.25 1114.16 1970.42 1115.53L1974.72 1151.89C1974.95 1153.9 1973.57 1155.68 1971.76 1155.73Z" fill="#343534"/>
<path d="M2181.15 1055.08L2206.11 1094.23L2240.37 1072.4L2215.42 1033.24L2181.15 1055.08Z" fill="#A7A7A7"/>
<path d="M2255.4 1092.4L2174 1144.28C2172.78 1145.06 2171.38 1144.44 2170 1143.14C2164.78 1138.24 2164.91 1129.89 2169.77 1125.6C2178.73 1117.7 2188.92 1100.69 2195.97 1080.28C2196.14 1079.8 2196.45 1079.39 2196.87 1079.12L2230.31 1057.81C2231.36 1057.14 2232.8 1057.47 2233.65 1058.56L2255.97 1087.59C2257.19 1089.2 2256.93 1091.43 2255.4 1092.4Z" fill="#343534"/>
<path d="M1929.97 682.415C1929.97 682.415 1883.64 853.393 1883.97 890.38C1884.38 936.016 1919.98 1100.43 1919.98 1100.43L1972.68 1099.33C1972.68 1099.33 1957.85 938.476 1958.68 916.486C1959.52 894.496 2010.9 774.247 2010.9 774.247C2010.9 774.247 2038.44 880.351 2048.46 908.223C2058.47 936.095 2187.61 1072.52 2187.61 1072.52L2231.02 1047.95C2231.02 1047.95 2128.07 906.244 2124.49 888.503C2120.91 870.763 2093.24 676.762 2093.24 676.762L1929.97 682.415Z" fill="#343534"/>
<path d="M1926.74 686.126C1926.74 686.126 1917.71 564.246 1913.15 478.942L1910.86 435.939C1909.68 413.878 1926.56 395.034 1948.62 393.835C1959.84 393.228 1988.83 391.691 2016.84 390.208C2052.29 388.332 2082.5 415.628 2084.23 451.086C2088.41 537.351 2094.42 658.964 2096.6 676.602C2100.99 712.059 1926.74 686.126 1926.74 686.126Z" fill="#CBCBCB"/>
<path d="M1973.38 392.802C1972.98 389.262 1972.69 386.723 1972.69 386.723C1972.69 386.723 1955.2 384.641 1953.49 383.908C1950.08 382.449 1944.56 371.435 1943.79 358.133C1943.02 344.832 1943.72 331.302 1944.06 325.712C1944.39 320.121 1945.74 297.587 1966.47 288.985C1987.2 280.383 2014.73 290.538 2022.25 311.164C2029.77 331.799 2026.84 347.844 2023 354.191C2019.15 360.546 2016.13 371.687 2015.73 376C2015.57 377.695 2015.81 383.127 2016.17 389.112C2016.83 400.332 2008.73 410.156 1997.59 411.662C1985.66 413.286 1974.74 404.771 1973.38 392.802Z" fill="#F2BD96"/>
<path d="M2011.46 335.975C2009.87 338.356 2007.83 343.836 2007.83 343.836C2004.48 340.036 1999.8 314.71 2002.86 307.969C2001.49 312.542 1964.73 305.919 1955.19 303.412C1953.21 302.891 1950.58 303.711 1949.42 305.801C1948.15 308.063 1945.05 318.984 1944.38 321.814C1943.94 317.722 1944.05 313.748 1943.95 309.656C1943.86 305.777 1931.49 291.127 1936.75 283.676C1944.41 272.859 1989.94 278.149 1995.44 279.253C2001.48 280.467 2020.38 287.65 2021.84 296.237C2028.7 299.761 2033.47 303.948 2032.72 317.02C2032.36 323.32 2031.73 329.652 2031.16 335.959C2030.58 342.212 2028.45 347.502 2026.38 353.4C2024.61 358.438 2022.42 363.295 2020.5 368.255C2020.16 369.13 2017.45 376.392 2015.78 375.824C2015.5 375.729 2013.55 369.351 2013.08 367.719C2012.33 365.125 2012.43 362.499 2012.41 359.858C2012.4 358.872 2012.17 357.721 2012.63 356.798C2013.35 355.363 2015.09 355.568 2016.43 355.221C2020.64 354.11 2022.79 349.915 2023.43 345.902C2024.11 341.565 2023.88 335.833 2019.11 333.917C2016.63 332.924 2013.47 333.531 2011.74 335.644C2011.62 335.731 2011.54 335.849 2011.46 335.975Z" fill="#343534"/>
<path d="M1883.98 509.857H1660.76L1531.43 237.719H1701.39L1883.98 509.857Z" fill="#094446"/>
<path d="M1660.76 509.857H1437.54L1359.08 237.719H1531.43L1660.76 509.857Z" fill="#EDEEF1"/>
<path d="M1437.54 509.857H1214.33L1186.73 237.719H1359.07L1437.54 509.857Z" fill="#094446"/>
<path d="M1214.32 509.857H991.102L1014.37 237.719H1186.72L1214.32 509.857Z" fill="#EDEEF1"/>
<path d="M991.108 509.857H767.894L842.025 237.719H1014.38L991.108 509.857Z" fill="#094446"/>
<path d="M767.9 509.857H544.687L669.689 237.719H842.032L767.9 509.857Z" fill="#EDEEF1"/>
<path d="M544.68 509.857H321.458L495.614 237.719H669.683L544.68 509.857Z" fill="#094446"/>
<path d="M1772.37 681.449C1710.73 681.449 1660.77 631.484 1660.77 569.842V509.863H1883.98V569.842C1883.98 631.484 1834.01 681.449 1772.37 681.449Z" fill="#0E5E61"/>
<path d="M1549.15 681.449C1487.5 681.449 1437.54 631.484 1437.54 569.842V509.863H1660.75V569.842C1660.75 631.484 1610.79 681.449 1549.15 681.449Z" fill="#D7D8DB"/>
<path d="M1325.94 681.449C1264.3 681.449 1214.33 631.484 1214.33 569.842V509.863H1437.54V569.842C1437.54 631.484 1387.58 681.449 1325.94 681.449Z" fill="#0E5E61"/>
<path d="M1102.71 681.449C1041.07 681.449 991.102 631.484 991.102 569.842V509.863H1214.32V569.842C1214.32 631.484 1164.35 681.449 1102.71 681.449Z" fill="#D7D8DB"/>
<path d="M879.501 681.449C817.859 681.449 767.894 631.484 767.894 569.842V509.863H991.108V569.842C991.108 631.484 941.135 681.449 879.501 681.449Z" fill="#0E5E61"/>
<path d="M656.293 681.449C594.651 681.449 544.687 631.484 544.687 569.842V509.863H767.9V569.842C767.9 631.484 717.928 681.449 656.293 681.449Z" fill="#D7D8DB"/>
<path d="M433.065 681.449C371.423 681.449 321.458 631.484 321.458 569.842V509.863H544.672V569.842C544.672 631.484 494.7 681.449 433.065 681.449Z" fill="#0E5E61"/>
<path d="M1758.94 560.04L1758.03 591.358L1744.69 593.219C1744.69 593.219 1701.68 613.868 1696.13 573.822C1693.96 558.227 1712.53 548.253 1724.2 558.834C1724.37 558.984 1724.53 559.133 1724.69 559.291C1725.09 559.662 1725.71 559.196 1725.45 558.715L1719.3 547.172C1718.25 545.209 1718.95 542.765 1720.88 541.661C1722.66 540.644 1724.9 541.078 1726.17 542.678L1734.72 553.496C1736.63 555.916 1739.41 557.485 1742.47 557.888L1758.94 560.04Z" fill="#F2BD96"/>
<path d="M1747.76 556.564L1749.79 595.206L1892.62 580.375C1934.8 561.026 2025.82 476.196 2025.82 476.196L1964.16 449.27L1882.24 530.915L1747.76 556.564Z" fill="#CBCBCB"/>
<path d="M255.876 1607.03L233.32 1567.68V1558.41H240.839C243.846 1558.41 246.477 1557.99 248.733 1557.15C251.072 1556.24 252.994 1554.94 254.497 1553.27C256.085 1551.6 257.171 1549.59 257.755 1547.25H233.32V1537.98H257.63C257.129 1535.81 256.252 1533.89 254.999 1532.22C253.829 1530.55 252.242 1529.25 250.237 1528.33C248.315 1527.33 245.976 1526.83 243.219 1526.83H233.32V1517.56H289.835V1526.83H270.161C271.581 1528.42 272.751 1530.13 273.67 1531.97C274.672 1533.8 275.34 1535.81 275.675 1537.98H289.835V1547.25H275.925C275.09 1553.44 272.709 1558.28 268.783 1561.79C264.856 1565.22 259.802 1567.55 253.62 1568.81L278.181 1607.03H255.876Z" fill="#343434"/>
<path d="M330.161 1588.73L362.988 1563.68C367.08 1560.5 369.962 1557.75 371.633 1555.41C373.387 1553.07 374.264 1550.56 374.264 1547.89C374.264 1545.13 373.345 1542.96 371.507 1541.37C369.753 1539.79 367.414 1538.99 364.491 1538.99C361.568 1538.99 358.769 1539.91 356.096 1541.75C353.507 1543.5 350.5 1546.34 347.075 1550.27L330.662 1536.61C333.001 1533.61 335.382 1530.93 337.804 1528.59C340.226 1526.26 342.815 1524.29 345.572 1522.71C348.412 1521.12 351.502 1519.91 354.844 1519.07C358.268 1518.24 362.11 1517.82 366.37 1517.82C371.131 1517.82 375.475 1518.53 379.401 1519.95C383.41 1521.29 386.835 1523.17 389.675 1525.59C392.515 1528.01 394.728 1530.98 396.315 1534.48C397.902 1537.91 398.696 1541.67 398.696 1545.76V1546.01C398.696 1549.52 398.236 1552.65 397.318 1555.41C396.482 1558.16 395.188 1560.75 393.433 1563.18C391.679 1565.51 389.549 1567.77 387.044 1569.94C384.538 1572.11 381.656 1574.37 378.398 1576.71L363.363 1587.23H399.573V1607.03H330.161V1588.73ZM450.068 1587.23C452.491 1587.23 454.704 1586.65 456.709 1585.48C458.714 1584.31 460.384 1582.68 461.721 1580.59C463.141 1578.42 464.226 1575.91 464.978 1573.07C465.73 1570.15 466.106 1566.93 466.106 1563.43V1563.18C466.106 1559.67 465.688 1556.45 464.853 1553.53C464.101 1550.6 463.015 1548.1 461.595 1546.01C460.175 1543.84 458.463 1542.17 456.458 1541C454.454 1539.75 452.24 1539.12 449.818 1539.12C447.396 1539.12 445.182 1539.7 443.177 1540.87C441.256 1542.04 439.586 1543.67 438.166 1545.76C436.746 1547.85 435.66 1550.35 434.908 1553.28C434.156 1556.2 433.78 1559.42 433.78 1562.92V1563.18C433.78 1566.68 434.156 1569.94 434.908 1572.95C435.743 1575.87 436.871 1578.42 438.291 1580.59C439.711 1582.68 441.423 1584.31 443.428 1585.48C445.433 1586.65 447.646 1587.23 450.068 1587.23ZM449.818 1608.78C443.553 1608.78 437.915 1607.61 432.903 1605.27C427.892 1602.85 423.632 1599.59 420.124 1595.5C416.699 1591.32 414.026 1586.48 412.105 1580.97C410.267 1575.45 409.348 1569.61 409.348 1563.43V1563.18C409.348 1556.99 410.309 1551.15 412.23 1545.63C414.151 1540.04 416.866 1535.19 420.374 1531.1C423.882 1526.92 428.142 1523.62 433.154 1521.2C438.166 1518.78 443.804 1517.57 450.068 1517.57C456.333 1517.57 461.929 1518.78 466.858 1521.2C471.869 1523.54 476.129 1526.8 479.637 1530.98C483.146 1535.07 485.818 1539.87 487.656 1545.38C489.577 1550.9 490.538 1556.74 490.538 1562.92V1563.18C490.538 1569.36 489.577 1575.24 487.656 1580.84C485.818 1586.35 483.104 1591.2 479.512 1595.38C476.004 1599.47 471.744 1602.73 466.732 1605.15C461.721 1607.57 456.082 1608.78 449.818 1608.78ZM541.59 1587.23C544.013 1587.23 546.226 1586.65 548.231 1585.48C550.235 1584.31 551.906 1582.68 553.242 1580.59C554.662 1578.42 555.748 1575.91 556.5 1573.07C557.252 1570.15 557.628 1566.93 557.628 1563.43V1563.18C557.628 1559.67 557.21 1556.45 556.375 1553.53C555.623 1550.6 554.537 1548.1 553.117 1546.01C551.697 1543.84 549.985 1542.17 547.98 1541C545.976 1539.75 543.762 1539.12 541.34 1539.12C538.917 1539.12 536.704 1539.7 534.699 1540.87C532.778 1542.04 531.108 1543.67 529.688 1545.76C528.268 1547.85 527.182 1550.35 526.43 1553.28C525.678 1556.2 525.302 1559.42 525.302 1562.92V1563.18C525.302 1566.68 525.678 1569.94 526.43 1572.95C527.265 1575.87 528.393 1578.42 529.813 1580.59C531.233 1582.68 532.945 1584.31 534.95 1585.48C536.955 1586.65 539.168 1587.23 541.59 1587.23ZM541.34 1608.78C535.075 1608.78 529.437 1607.61 524.425 1605.27C519.414 1602.85 515.154 1599.59 511.646 1595.5C508.221 1591.32 505.548 1586.48 503.627 1580.97C501.789 1575.45 500.87 1569.61 500.87 1563.43V1563.18C500.87 1556.99 501.831 1551.15 503.752 1545.63C505.673 1540.04 508.388 1535.19 511.896 1531.1C515.404 1526.92 519.664 1523.62 524.676 1521.2C529.688 1518.78 535.326 1517.57 541.59 1517.57C547.855 1517.57 553.451 1518.78 558.379 1521.2C563.391 1523.54 567.651 1526.8 571.159 1530.98C574.667 1535.07 577.34 1539.87 579.178 1545.38C581.099 1550.9 582.06 1556.74 582.06 1562.92V1563.18C582.06 1569.36 581.099 1575.24 579.178 1580.84C577.34 1586.35 574.626 1591.2 571.034 1595.38C567.526 1599.47 563.266 1602.73 558.254 1605.15C553.242 1607.57 547.604 1608.78 541.34 1608.78Z" fill="#343434"/>
<rect x="502.866" y="1910.98" width="256.241" height="256.241" rx="30.8977" fill="#094446" stroke="#094446" stroke-width="2.19949"/>
<path d="M630.741 2028.18V2014.23H616.792V2004.93H630.741V1990.98H640.04V2004.93H653.989V2014.23H640.04V2028.18H630.741ZM612.143 2088.62C609.586 2088.62 607.396 2087.71 605.575 2085.89C603.754 2084.07 602.844 2081.88 602.844 2079.33C602.844 2076.77 603.754 2074.58 605.575 2072.76C607.396 2070.94 609.586 2070.03 612.143 2070.03C614.7 2070.03 616.889 2070.94 618.71 2072.76C620.531 2074.58 621.442 2076.77 621.442 2079.33C621.442 2081.88 620.531 2084.07 618.71 2085.89C616.889 2087.71 614.7 2088.62 612.143 2088.62ZM658.638 2088.62C656.081 2088.62 653.892 2087.71 652.071 2085.89C650.25 2084.07 649.339 2081.88 649.339 2079.33C649.339 2076.77 650.25 2074.58 652.071 2072.76C653.892 2070.94 656.081 2070.03 658.638 2070.03C661.196 2070.03 663.385 2070.94 665.206 2072.76C667.027 2074.58 667.937 2076.77 667.937 2079.33C667.937 2081.88 667.027 2084.07 665.206 2085.89C663.385 2087.71 661.196 2088.62 658.638 2088.62ZM612.143 2065.38C608.656 2065.38 605.982 2063.85 604.122 2060.79C602.263 2057.72 602.224 2054.68 604.006 2051.66L610.283 2040.27L593.545 2004.93H584.246V1995.63H599.473L619.233 2037.48H651.896L669.913 2004.93L678.05 2009.35L660.033 2041.9C659.181 2043.45 658.057 2044.65 656.662 2045.5C655.267 2046.35 653.679 2046.78 651.896 2046.78H617.257L612.143 2056.08H667.937V2065.38H612.143Z" fill="white"/>
<path d="M647.835 1568.37V1556.84L638.26 1568.37H647.835ZM647.835 1576.62H628.398L626.564 1568.77L647.376 1544H658.614V1568.31H663.716V1576.62H658.614V1584.42H647.835V1576.62ZM686.332 1575.36C687.44 1575.36 688.453 1575.1 689.371 1574.56C690.288 1574.03 691.052 1573.28 691.664 1572.32C692.314 1571.33 692.811 1570.18 693.155 1568.88C693.499 1567.55 693.671 1566.07 693.671 1564.47V1564.35C693.671 1562.75 693.48 1561.28 693.097 1559.94C692.753 1558.6 692.256 1557.46 691.607 1556.5C690.957 1555.51 690.173 1554.74 689.256 1554.21C688.339 1553.63 687.326 1553.35 686.217 1553.35C685.109 1553.35 684.096 1553.61 683.179 1554.15C682.299 1554.68 681.535 1555.43 680.885 1556.39C680.235 1557.34 679.738 1558.49 679.394 1559.83C679.05 1561.16 678.878 1562.63 678.878 1564.24V1564.35C678.878 1565.96 679.05 1567.45 679.394 1568.83C679.777 1570.16 680.293 1571.33 680.942 1572.32C681.592 1573.28 682.376 1574.03 683.293 1574.56C684.211 1575.1 685.223 1575.36 686.332 1575.36ZM686.217 1585.22C683.351 1585.22 680.77 1584.69 678.477 1583.62C676.184 1582.51 674.234 1581.02 672.629 1579.15C671.062 1577.24 669.839 1575.02 668.96 1572.5C668.119 1569.97 667.698 1567.3 667.698 1564.47V1564.35C667.698 1561.53 668.138 1558.85 669.017 1556.33C669.896 1553.77 671.138 1551.55 672.744 1549.68C674.349 1547.77 676.298 1546.26 678.592 1545.15C680.885 1544.04 683.465 1543.49 686.332 1543.49C689.199 1543.49 691.76 1544.04 694.015 1545.15C696.308 1546.22 698.257 1547.71 699.863 1549.62C701.468 1551.49 702.691 1553.69 703.532 1556.21C704.411 1558.74 704.851 1561.41 704.851 1564.24V1564.35C704.851 1567.18 704.411 1569.88 703.532 1572.44C702.691 1574.96 701.449 1577.18 699.805 1579.09C698.2 1580.96 696.251 1582.45 693.957 1583.56C691.664 1584.67 689.084 1585.22 686.217 1585.22ZM746.445 1578.69C747.439 1578.69 748.241 1578.27 748.853 1577.43C749.465 1576.59 749.77 1575.54 749.77 1574.27V1574.16C749.77 1572.86 749.445 1571.79 748.796 1570.95C748.184 1570.11 747.381 1569.69 746.388 1569.69C745.356 1569.69 744.534 1570.11 743.922 1570.95C743.349 1571.75 743.062 1572.8 743.062 1574.1V1574.22C743.062 1575.48 743.387 1576.55 744.037 1577.43C744.687 1578.27 745.489 1578.69 746.445 1578.69ZM719.613 1559.02C720.606 1559.02 721.409 1558.6 722.021 1557.76C722.632 1556.92 722.938 1555.87 722.938 1554.61V1554.49C722.938 1553.23 722.613 1552.18 721.963 1551.34C721.352 1550.46 720.549 1550.02 719.555 1550.02C718.561 1550.02 717.759 1550.44 717.147 1551.28C716.536 1552.12 716.23 1553.17 716.23 1554.44V1554.55C716.23 1555.85 716.555 1556.92 717.205 1557.76C717.854 1558.6 718.657 1559.02 719.613 1559.02ZM746.388 1585C744.821 1585 743.406 1584.71 742.145 1584.14C740.884 1583.56 739.794 1582.8 738.877 1581.84C737.998 1580.85 737.31 1579.7 736.813 1578.4C736.316 1577.1 736.068 1575.73 736.068 1574.27V1574.16C736.068 1572.67 736.316 1571.27 736.813 1569.97C737.31 1568.67 737.998 1567.55 738.877 1566.59C739.794 1565.6 740.884 1564.81 742.145 1564.24C743.445 1563.67 744.878 1563.38 746.445 1563.38C748.012 1563.38 749.426 1563.67 750.688 1564.24C751.949 1564.78 753.019 1565.54 753.898 1566.53C754.816 1567.49 755.523 1568.62 756.02 1569.92C756.517 1571.22 756.765 1572.61 756.765 1574.1V1574.22C756.765 1575.67 756.517 1577.06 756.02 1578.4C755.523 1579.7 754.816 1580.85 753.898 1581.84C752.981 1582.8 751.873 1583.56 750.573 1584.14C749.312 1584.71 747.917 1585 746.388 1585ZM744.61 1544.29H752.35L721.39 1584.42H713.65L744.61 1544.29ZM719.555 1565.33C717.988 1565.33 716.574 1565.06 715.313 1564.53C714.051 1563.95 712.962 1563.19 712.044 1562.23C711.165 1561.24 710.477 1560.09 709.98 1558.79C709.484 1557.49 709.235 1556.1 709.235 1554.61V1554.49C709.235 1553 709.484 1551.61 709.98 1550.31C710.477 1549.01 711.165 1547.88 712.044 1546.93C712.962 1545.93 714.051 1545.15 715.313 1544.57C716.612 1544 718.045 1543.71 719.613 1543.71C721.18 1543.71 722.594 1544 723.855 1544.57C725.117 1545.15 726.187 1545.93 727.066 1546.93C727.983 1547.88 728.691 1549.01 729.187 1550.31C729.684 1551.61 729.933 1552.98 729.933 1554.44V1554.55C729.933 1556.04 729.684 1557.44 729.187 1558.74C728.691 1560.04 727.983 1561.18 727.066 1562.18C726.149 1563.13 725.04 1563.9 723.741 1564.47C722.479 1565.04 721.084 1565.33 719.555 1565.33ZM793.904 1574.56C797.229 1574.56 799.905 1573.68 801.931 1571.92C803.956 1570.16 804.969 1567.66 804.969 1564.41V1564.3C804.969 1561.09 803.956 1558.6 801.931 1556.84C799.905 1555.05 797.229 1554.15 793.904 1554.15H789.374V1574.56H793.904ZM778.252 1544.29H793.732C797.325 1544.29 800.516 1544.78 803.307 1545.78C806.135 1546.73 808.505 1548.09 810.416 1549.85C812.365 1551.61 813.837 1553.71 814.831 1556.16C815.863 1558.56 816.379 1561.22 816.379 1564.13V1564.24C816.379 1567.15 815.863 1569.84 814.831 1572.32C813.799 1574.77 812.308 1576.89 810.359 1578.69C808.409 1580.48 806.001 1581.9 803.135 1582.93C800.306 1583.92 797.095 1584.42 793.502 1584.42H778.252V1544.29ZM821.691 1553.4H832.584V1584.42H821.691V1553.4ZM821.461 1542.57H832.814V1550.59H821.461V1542.57ZM850.977 1585.11C848.34 1585.11 845.779 1584.75 843.295 1584.02C840.81 1583.26 838.478 1582.09 836.3 1580.52L840.37 1573.93C842.167 1575.11 843.983 1576.01 845.817 1576.62C847.69 1577.2 849.429 1577.48 851.035 1577.48C852.869 1577.48 853.787 1576.93 853.787 1575.82V1575.71C853.787 1575.1 853.366 1574.62 852.525 1574.27C851.684 1573.93 850.442 1573.53 848.799 1573.07C847.27 1572.69 845.836 1572.25 844.499 1571.75C843.161 1571.22 841.995 1570.59 841.001 1569.86C840.007 1569.09 839.224 1568.18 838.65 1567.11C838.077 1566.04 837.79 1564.72 837.79 1563.15V1563.04C837.79 1561.39 838.096 1559.94 838.708 1558.68C839.358 1557.38 840.237 1556.31 841.345 1555.47C842.454 1554.59 843.753 1553.92 845.244 1553.46C846.773 1553 848.435 1552.77 850.232 1552.77C852.525 1552.77 854.78 1553.1 856.997 1553.75C859.214 1554.36 861.221 1555.24 863.017 1556.39L859.291 1563.27C857.685 1562.39 856.061 1561.7 854.417 1561.2C852.774 1560.67 851.34 1560.4 850.117 1560.4C849.276 1560.4 848.646 1560.55 848.225 1560.86C847.805 1561.13 847.595 1561.47 847.595 1561.89V1562C847.595 1562.62 848.015 1563.11 848.856 1563.49C849.735 1563.84 850.996 1564.26 852.64 1564.76C854.169 1565.18 855.602 1565.65 856.94 1566.19C858.278 1566.69 859.444 1567.32 860.437 1568.08C861.431 1568.81 862.215 1569.71 862.788 1570.78C863.361 1571.85 863.648 1573.13 863.648 1574.62V1574.73C863.648 1576.45 863.342 1577.96 862.731 1579.26C862.119 1580.52 861.259 1581.59 860.151 1582.47C859.042 1583.35 857.705 1584 856.137 1584.42C854.57 1584.88 852.85 1585.11 850.977 1585.11ZM883.066 1585.17C880.734 1585.17 878.574 1584.75 876.587 1583.91C874.599 1583.03 872.879 1581.86 871.427 1580.41C870.013 1578.96 868.885 1577.26 868.044 1575.31C867.241 1573.32 866.84 1571.24 866.84 1569.06V1568.94C866.84 1566.76 867.241 1564.7 868.044 1562.75C868.885 1560.76 870.032 1559.04 871.484 1557.59C872.937 1556.1 874.676 1554.93 876.702 1554.09C878.766 1553.21 881.021 1552.77 883.467 1552.77C886.678 1552.77 889.353 1553.4 891.494 1554.67C893.634 1555.93 895.373 1557.61 896.711 1559.71L889.315 1565.21C888.551 1564.18 887.729 1563.38 886.85 1562.81C885.971 1562.23 884.862 1561.95 883.524 1561.95C882.645 1561.95 881.823 1562.14 881.059 1562.52C880.333 1562.86 879.702 1563.36 879.167 1564.01C878.632 1564.62 878.211 1565.35 877.906 1566.19C877.6 1566.99 877.447 1567.87 877.447 1568.83V1568.94C877.447 1569.94 877.6 1570.87 877.906 1571.75C878.211 1572.59 878.632 1573.34 879.167 1573.99C879.702 1574.6 880.352 1575.1 881.116 1575.48C881.881 1575.82 882.722 1575.99 883.639 1575.99C884.939 1575.99 886.028 1575.71 886.907 1575.13C887.824 1574.56 888.723 1573.78 889.602 1572.78L896.883 1578.06C895.431 1580.2 893.615 1581.92 891.436 1583.22C889.258 1584.52 886.467 1585.17 883.066 1585.17ZM916.683 1575.94C917.677 1575.94 918.575 1575.76 919.377 1575.42C920.18 1575.04 920.849 1574.54 921.384 1573.93C921.957 1573.28 922.397 1572.53 922.703 1571.69C923.009 1570.85 923.162 1569.97 923.162 1569.06V1568.94C923.162 1567.99 922.99 1567.09 922.645 1566.25C922.34 1565.41 921.881 1564.68 921.269 1564.07C920.696 1563.42 920.008 1562.9 919.205 1562.52C918.403 1562.14 917.524 1561.95 916.568 1561.95C915.574 1561.95 914.676 1562.14 913.873 1562.52C913.071 1562.86 912.383 1563.36 911.809 1564.01C911.274 1564.62 910.854 1565.35 910.548 1566.19C910.242 1567.03 910.089 1567.91 910.089 1568.83V1568.94C910.089 1569.9 910.242 1570.8 910.548 1571.64C910.892 1572.48 911.351 1573.22 911.924 1573.87C912.536 1574.48 913.243 1574.98 914.045 1575.36C914.848 1575.75 915.727 1575.94 916.683 1575.94ZM916.568 1585.17C914.084 1585.17 911.79 1584.75 909.688 1583.91C907.624 1583.06 905.827 1581.92 904.299 1580.47C902.77 1578.98 901.585 1577.26 900.744 1575.31C899.903 1573.36 899.482 1571.27 899.482 1569.06V1568.94C899.482 1566.72 899.903 1564.64 900.744 1562.69C901.623 1560.7 902.827 1558.98 904.356 1557.53C905.885 1556.04 907.7 1554.88 909.803 1554.03C911.905 1553.16 914.198 1552.72 916.683 1552.72C919.167 1552.72 921.441 1553.16 923.506 1554.03C925.608 1554.88 927.423 1556.02 928.952 1557.47C930.481 1558.93 931.666 1560.63 932.507 1562.58C933.348 1564.53 933.768 1566.61 933.768 1568.83V1568.94C933.768 1571.16 933.329 1573.26 932.45 1575.25C931.609 1577.2 930.424 1578.92 928.895 1580.41C927.366 1581.86 925.55 1583.03 923.448 1583.91C921.346 1584.75 919.053 1585.17 916.568 1585.17ZM948.69 1585.11C945.364 1585.11 942.765 1584.1 940.892 1582.07C939.057 1580.05 938.14 1577.26 938.14 1573.7V1553.4H949.034V1570.2C949.034 1571.92 949.435 1573.22 950.238 1574.1C951.04 1574.98 952.11 1575.42 953.448 1575.42C954.748 1575.42 955.818 1574.98 956.659 1574.1C957.538 1573.22 957.978 1571.92 957.978 1570.2V1553.4H968.871V1584.42H957.978V1580.18C956.984 1581.48 955.742 1582.63 954.251 1583.62C952.76 1584.61 950.906 1585.11 948.69 1585.11ZM974.707 1553.4H985.601V1557.76C986.098 1557.11 986.652 1556.48 987.263 1555.87C987.875 1555.26 988.563 1554.72 989.327 1554.26C990.092 1553.81 990.933 1553.44 991.85 1553.17C992.767 1552.87 993.78 1552.72 994.889 1552.72C998.214 1552.72 1000.79 1553.73 1002.63 1555.75C1004.5 1557.78 1005.44 1560.57 1005.44 1564.13V1584.42H994.545V1567.62C994.545 1565.9 994.143 1564.6 993.341 1563.72C992.538 1562.85 991.487 1562.41 990.187 1562.41C988.85 1562.41 987.741 1562.85 986.862 1563.72C986.021 1564.6 985.601 1565.9 985.601 1567.62V1584.42H974.707V1553.4ZM1023.37 1585.05C1020.08 1585.05 1017.52 1584.27 1015.69 1582.7C1013.85 1581.13 1012.94 1578.5 1012.94 1574.79V1562.18H1009.27V1553.4H1012.94V1545.55H1023.83V1553.4H1031.05V1562.18H1023.83V1572.67C1023.83 1573.78 1024.08 1574.58 1024.58 1575.08C1025.07 1575.54 1025.82 1575.76 1026.81 1575.76C1027.54 1575.76 1028.25 1575.67 1028.93 1575.48C1029.62 1575.29 1030.29 1575.04 1030.94 1574.73V1583.28C1029.95 1583.81 1028.82 1584.23 1027.56 1584.54C1026.3 1584.88 1024.9 1585.05 1023.37 1585.05Z" fill="#FF5454"/>
<path d="M252.736 1656.91H264.488L274.061 1672.44L283.634 1656.91H295.386V1697.04H284.322V1673.99L274.061 1689.7H273.832L263.628 1674.1V1697.04H252.736V1656.91ZM301.415 1685.86H312.765V1697.04H301.415V1685.86ZM337.254 1676.17C339.165 1676.17 340.636 1675.75 341.668 1674.91C342.7 1674.03 343.216 1672.86 343.216 1671.41V1671.3C343.216 1669.69 342.681 1668.51 341.61 1667.74C340.54 1666.94 339.069 1666.54 337.196 1666.54H329.916V1676.17H337.254ZM318.795 1656.91H337.77C340.865 1656.91 343.483 1657.29 345.623 1658.05C347.763 1658.82 349.502 1659.89 350.84 1661.26C353.209 1663.56 354.394 1666.67 354.394 1670.61V1670.72C354.394 1673.82 353.649 1676.38 352.158 1678.4C350.668 1680.43 348.662 1681.98 346.139 1683.05L355.713 1697.04H342.872L334.789 1684.88H334.674H329.916V1697.04H318.795V1656.91ZM358.909 1685.86H370.259V1697.04H358.909V1685.86ZM392.684 1676.86C394.671 1676.86 396.219 1676.4 397.327 1675.48C398.474 1674.53 399.047 1673.24 399.047 1671.64V1671.53C399.047 1669.81 398.474 1668.51 397.327 1667.63C396.219 1666.71 394.652 1666.25 392.626 1666.25H387.41V1676.86H392.684ZM376.289 1656.91H393.486C396.009 1656.91 398.302 1657.23 400.365 1657.88C402.429 1658.49 404.187 1659.41 405.639 1660.63C407.092 1661.82 408.2 1663.29 408.964 1665.05C409.767 1666.81 410.168 1668.79 410.168 1671.01V1671.12C410.168 1673.49 409.729 1675.58 408.85 1677.37C408.009 1679.17 406.824 1680.68 405.295 1681.9C403.767 1683.12 401.932 1684.04 399.792 1684.65C397.69 1685.26 395.397 1685.57 392.913 1685.57H387.41V1697.04H376.289V1656.91Z" fill="#B9B9B9"/>
<path d="M443.407 1697.04L433.088 1679.03V1674.79H436.528C437.904 1674.79 439.108 1674.6 440.14 1674.22C441.21 1673.8 442.089 1673.21 442.777 1672.44C443.503 1671.68 443.999 1670.76 444.267 1669.69H433.088V1665.45H444.21C443.98 1664.46 443.579 1663.58 443.006 1662.81C442.471 1662.05 441.745 1661.45 440.827 1661.03C439.948 1660.58 438.878 1660.35 437.617 1660.35H433.088V1656.1H458.942V1660.35H449.942C450.592 1661.07 451.127 1661.86 451.547 1662.7C452.006 1663.54 452.312 1664.46 452.465 1665.45H458.942V1669.69H452.579C452.197 1672.52 451.108 1674.74 449.312 1676.34C447.515 1677.91 445.203 1678.98 442.375 1679.55L453.611 1697.04H443.407ZM483.378 1666.25H464.805V1656.91H495.703V1665.28L477.99 1697.04H465.722L483.378 1666.25ZM518.362 1687.98C519.47 1687.98 520.483 1687.71 521.4 1687.18C522.317 1686.64 523.082 1685.89 523.693 1684.94C524.343 1683.95 524.84 1682.8 525.184 1681.5C525.528 1680.16 525.7 1678.69 525.7 1677.09V1676.97C525.7 1675.37 525.509 1673.89 525.126 1672.56C524.782 1671.22 524.286 1670.07 523.636 1669.12C522.986 1668.12 522.203 1667.36 521.286 1666.82C520.368 1666.25 519.356 1665.96 518.247 1665.96C517.139 1665.96 516.126 1666.23 515.209 1666.77C514.33 1667.3 513.566 1668.05 512.916 1669C512.266 1669.96 511.769 1671.1 511.425 1672.44C511.082 1673.78 510.91 1675.25 510.91 1676.86V1676.97C510.91 1678.58 511.082 1680.07 511.425 1681.44C511.808 1682.78 512.324 1683.95 512.973 1684.94C513.623 1685.89 514.406 1686.64 515.324 1687.18C516.241 1687.71 517.254 1687.98 518.362 1687.98ZM518.247 1697.84C515.381 1697.84 512.801 1697.3 510.508 1696.23C508.215 1695.12 506.266 1693.63 504.661 1691.76C503.094 1689.85 501.871 1687.63 500.992 1685.11C500.151 1682.59 499.731 1679.91 499.731 1677.09V1676.97C499.731 1674.14 500.171 1671.47 501.05 1668.95C501.929 1666.38 503.171 1664.17 504.776 1662.3C506.381 1660.38 508.33 1658.88 510.623 1657.77C512.916 1656.66 515.496 1656.1 518.362 1656.1C521.228 1656.1 523.789 1656.66 526.044 1657.77C528.337 1658.84 530.286 1660.33 531.891 1662.24C533.496 1664.11 534.719 1666.31 535.56 1668.83C536.439 1671.35 536.878 1674.03 536.878 1676.86V1676.97C536.878 1679.8 536.439 1682.49 535.56 1685.05C534.719 1687.58 533.477 1689.79 531.833 1691.7C530.228 1693.58 528.279 1695.07 525.986 1696.18C523.693 1697.28 521.114 1697.84 518.247 1697.84ZM560.237 1687.98C561.345 1687.98 562.358 1687.71 563.275 1687.18C564.192 1686.64 564.956 1685.89 565.568 1684.94C566.218 1683.95 566.714 1682.8 567.058 1681.5C567.402 1680.16 567.574 1678.69 567.574 1677.09V1676.97C567.574 1675.37 567.383 1673.89 567.001 1672.56C566.657 1671.22 566.16 1670.07 565.511 1669.12C564.861 1668.12 564.077 1667.36 563.16 1666.82C562.243 1666.25 561.23 1665.96 560.122 1665.96C559.014 1665.96 558.001 1666.23 557.084 1666.77C556.205 1667.3 555.44 1668.05 554.791 1669C554.141 1669.96 553.644 1671.1 553.3 1672.44C552.956 1673.78 552.784 1675.25 552.784 1676.86V1676.97C552.784 1678.58 552.956 1680.07 553.3 1681.44C553.682 1682.78 554.198 1683.95 554.848 1684.94C555.498 1685.89 556.281 1686.64 557.198 1687.18C558.116 1687.71 559.128 1687.98 560.237 1687.98ZM560.122 1697.84C557.256 1697.84 554.676 1697.3 552.383 1696.23C550.09 1695.12 548.141 1693.63 546.536 1691.76C544.969 1689.85 543.746 1687.63 542.867 1685.11C542.026 1682.59 541.606 1679.91 541.606 1677.09V1676.97C541.606 1674.14 542.045 1671.47 542.924 1668.95C543.803 1666.38 545.045 1664.17 546.65 1662.3C548.256 1660.38 550.205 1658.88 552.498 1657.77C554.791 1656.66 557.37 1656.1 560.237 1656.1C563.103 1656.1 565.663 1656.66 567.918 1657.77C570.211 1658.84 572.16 1660.33 573.765 1662.24C575.371 1664.11 576.594 1666.31 577.434 1668.83C578.313 1671.35 578.753 1674.03 578.753 1676.86V1676.97C578.753 1679.8 578.313 1682.49 577.434 1685.05C576.594 1687.58 575.352 1689.79 573.708 1691.7C572.103 1693.58 570.154 1695.07 567.861 1696.18C565.568 1697.28 562.988 1697.84 560.122 1697.84Z" fill="#B9B9B9"/>
<line x1="238.159" y1="1679.53" x2="589.131" y2="1679.53" stroke="#B9B9B9" stroke-width="3.58286"/>
<path d="M594.821 998.962C587.046 998.962 579.445 1001.27 572.98 1005.59C566.515 1009.91 561.477 1016.05 558.501 1023.23C555.526 1030.41 554.747 1038.32 556.264 1045.94C557.781 1053.57 561.525 1060.57 567.023 1066.07C572.521 1071.57 579.526 1075.31 587.151 1076.83C594.777 1078.35 602.681 1077.57 609.865 1074.59C617.048 1071.62 623.188 1066.58 627.507 1060.11C631.827 1053.65 634.133 1046.05 634.133 1038.27L594.821 1038.27L594.821 998.962Z" fill="white"/>
<path d="M640.912 1031.49C640.912 1026.33 639.895 1021.21 637.919 1016.44C635.944 1011.67 633.048 1007.34 629.397 1003.69C625.747 1000.04 621.413 997.144 616.644 995.168C611.874 993.193 606.762 992.176 601.6 992.176L601.6 1031.49L640.912 1031.49Z" fill="white"/>
</g>
<defs>
<clipPath id="clip0_579_30">
<rect width="2325.97" height="2325.97" fill="white" transform="translate(0.391602)"/>
</clipPath>
</defs>
</svg>
