<svg width="4047" height="2699" viewBox="0 0 4047 2699" fill="none" xmlns="http://www.w3.org/2000/svg">
<path d="M2023.3 2386.8C2792.05 2386.8 3415.24 2344.76 3415.24 2292.89C3415.24 2241.03 2792.05 2198.98 2023.3 2198.98C1254.56 2198.98 631.362 2241.03 631.362 2292.89C631.362 2344.76 1254.56 2386.8 2023.3 2386.8Z" fill="#DADADA"/>
<path d="M1438.91 324.383H829.313C810.689 324.383 795.592 339.48 795.592 358.104V2219.28C795.592 2237.9 810.689 2253 829.313 2253H1438.91C1457.53 2253 1472.63 2237.9 1472.63 2219.28V358.104C1472.63 339.48 1457.53 324.383 1438.91 324.383Z" fill="#094446"/>
<path d="M1512.33 311.605H902.733C884.109 311.605 869.011 326.703 869.011 345.327V2219.27C869.011 2237.89 884.109 2252.99 902.733 2252.99H1512.33C1530.95 2252.99 1546.05 2237.89 1546.05 2219.27V345.327C1546.05 326.703 1530.95 311.605 1512.33 311.605Z" fill="white"/>
<path d="M1540.87 311.605H931.278C912.654 311.605 897.556 326.703 897.556 345.327V2219.27C897.556 2237.89 912.654 2252.99 931.278 2252.99H1540.87C1559.5 2252.99 1574.59 2237.89 1574.59 2219.27V345.327C1574.59 326.703 1559.5 311.605 1540.87 311.605Z" fill="#107477"/>
<path d="M934.268 382.59H1546.05V2089.86H934.268V382.59Z" fill="#F7F7F7"/>
<path d="M835.259 694.996H821.164C818.298 694.996 815.976 697.319 815.976 700.184V1028.59C815.976 1031.46 818.298 1033.78 821.164 1033.78H835.259C838.124 1033.78 840.447 1031.46 840.447 1028.59V700.184C840.447 697.319 838.124 694.996 835.259 694.996Z" fill="white"/>
<path d="M935.354 1122.83H1547.14V2190.35H935.354V1122.83Z" fill="white"/>
<path d="M1036.48 1122.86H1112.95V1254.39H1036.48V1122.86ZM1036.48 1554.14H1112.95V2190.36H1036.48V1554.14ZM1264.87 1352.26H1547.08V1404.26H1264.87V1352.26Z" fill="#D0D3D8"/>
<path d="M935.356 1808.02L1547.14 2012.96V1896.73L935.423 1740.37L935.356 1808.02ZM935.423 1704.89L997.47 1725.28V1594.76L935.423 1564.18V1704.89ZM935.423 2110.7L997.47 2133.13V1886.38L935.423 1861.91V2110.7ZM1227.91 1554.15C1227.91 1554.15 1221.79 1576.41 1162.65 1586.61L1174.89 1666.14H1333.95L1313.56 1554.14L1227.91 1554.15ZM1172.85 1694.69V1757.91L1350.26 1798.69L1342.11 1694.69H1172.85ZM1401.25 1798.69L1547.14 1843.56V1694.69H1382.89L1401.25 1798.69ZM1353.4 1554.14L1380.18 1666.13H1547.13V1569.23L1540.73 1554.14H1353.4ZM1333.95 1433.66L1353.41 1526.22H1538.3L1506.67 1433.66H1333.95ZM1136.14 2190.37H1360.46V1988.34L1136.14 1914.93V2190.37ZM1411.15 2190.37H1547.14V2052.65L1411.15 2004.66V2190.37ZM1089.93 1235.26C1029.18 1235.26 974.324 1255.25 935.354 1287.34V1521.19C974.324 1553.29 1029.18 1573.27 1089.93 1573.27C1208.19 1573.27 1304.05 1497.59 1304.05 1404.28C1304.05 1310.94 1208.19 1235.26 1089.93 1235.26Z" fill="#D0D3D8"/>
<path d="M1089.97 1526.23C1175.3 1526.23 1244.48 1471.63 1244.48 1404.27C1244.48 1336.92 1175.3 1282.32 1089.97 1282.32C1004.63 1282.32 935.455 1336.92 935.455 1404.27C935.455 1471.63 1004.63 1526.23 1089.97 1526.23Z" fill="white"/>
<path d="M1172.87 878.453C1173.2 878.449 1173.53 878.441 1173.85 878.441H1171.89C1172.21 878.441 1172.54 878.449 1172.87 878.453ZM1171.89 1194.08H1173.85C1173.85 1194.08 1173.51 1193.72 1172.87 1193.03C1172.23 1193.72 1171.89 1194.08 1171.89 1194.08Z" fill="#CBCBCB"/>
<path d="M1172.87 878.441C1133.81 878.983 1057.59 911.844 1070.58 1005.51C1082.87 1094.18 1163.07 1182.52 1172.87 1193.02C1182.66 1182.52 1262.86 1094.18 1275.15 1005.51C1288.14 911.844 1211.92 878.983 1172.87 878.441ZM1173.1 1018.82C1164.92 1018.82 1156.92 1016.39 1150.11 1011.85C1143.3 1007.3 1138 1000.84 1134.87 993.274C1131.74 985.712 1130.92 977.392 1132.51 969.365C1134.11 961.337 1138.05 953.964 1143.84 948.176C1149.63 942.389 1157 938.448 1165.03 936.851C1173.06 935.254 1181.38 936.074 1188.94 939.206C1196.5 942.338 1202.96 947.642 1207.51 954.447C1212.06 961.252 1214.48 969.253 1214.48 977.437C1214.48 988.413 1210.12 998.938 1202.36 1006.7C1194.6 1014.46 1184.08 1018.82 1173.1 1018.82L1173.1 1018.82Z" fill="#094446"/>
<path d="M1173.1 934.328C1164.57 934.328 1156.23 936.857 1149.14 941.594C1142.06 946.331 1136.53 953.065 1133.27 960.942C1130 968.82 1129.15 977.488 1130.81 985.851C1132.48 994.214 1136.58 1001.9 1142.61 1007.92C1148.64 1013.95 1156.32 1018.06 1164.69 1019.72C1173.05 1021.39 1181.72 1020.53 1189.6 1017.27C1197.47 1014.01 1204.21 1008.48 1208.94 1001.39C1213.68 994.302 1216.21 985.966 1216.21 977.44C1216.2 966.01 1211.65 955.052 1203.57 946.969C1195.48 938.887 1184.53 934.341 1173.1 934.328ZM1173.1 1017.09C1165.25 1017.09 1157.59 1014.77 1151.07 1010.41C1144.55 1006.05 1139.46 999.861 1136.46 992.616C1133.46 985.37 1132.68 977.397 1134.21 969.705C1135.74 962.013 1139.51 954.948 1145.06 949.403C1150.6 943.857 1157.67 940.081 1165.36 938.55C1173.05 937.02 1181.03 937.806 1188.27 940.807C1195.52 943.808 1201.71 948.89 1206.07 955.411C1210.42 961.932 1212.75 969.598 1212.75 977.441C1212.74 987.954 1208.56 998.033 1201.12 1005.47C1193.69 1012.9 1183.61 1017.08 1173.1 1017.09Z" fill="white"/>
<path d="M1172.88 876.734H1172.84C1148.66 877.07 1114.19 889.131 1091.7 915.322C1071.49 938.86 1063.8 969.291 1068.86 1005.77C1081.24 1095.13 1162.38 1184.34 1171.59 1194.22L1172.86 1195.58L1174.12 1194.22C1183.34 1184.34 1264.47 1095.11 1276.86 1005.77C1281.91 969.291 1274.23 938.86 1254.01 915.322C1231.52 889.132 1197.06 877.07 1172.88 876.734ZM1273.43 1005.3C1261.64 1090.39 1186.46 1175.66 1172.86 1190.49C1159.25 1175.66 1084.08 1090.41 1072.28 1005.3C1067.37 969.842 1074.79 940.327 1094.33 917.575C1116.11 892.212 1149.46 880.526 1172.86 880.193C1196.26 880.526 1229.61 892.212 1251.39 917.575C1270.93 940.328 1278.35 969.842 1273.43 1005.3Z" fill="white"/>
<path d="M1176.95 1254.39C1199.48 1254.39 1217.74 1244.72 1217.74 1232.8C1217.74 1220.87 1199.48 1211.2 1176.95 1211.2C1154.43 1211.2 1136.17 1220.87 1136.17 1232.8C1136.17 1244.72 1154.43 1254.39 1176.95 1254.39Z" fill="#094446"/>
<path d="M1176.93 1209.46C1153.09 1209.46 1134.41 1219.7 1134.41 1232.78C1134.41 1245.86 1153.09 1256.1 1176.93 1256.1C1200.77 1256.1 1219.44 1245.86 1219.44 1232.78C1219.44 1219.7 1200.77 1209.46 1176.93 1209.46ZM1176.93 1252.65C1155.76 1252.65 1137.87 1243.55 1137.87 1232.78C1137.87 1222.01 1155.76 1212.92 1176.93 1212.92C1198.1 1212.92 1215.98 1222.01 1215.98 1232.78C1215.98 1243.55 1198.1 1252.65 1176.93 1252.65ZM1468.15 380.156V648.531H1691.44V690.352C1691.42 696.829 1693.09 703.198 1696.3 708.824C1699.51 714.449 1704.14 719.134 1709.73 722.409C1719.86 728.283 1733.15 732.304 1746.82 726.082C1759.76 720.198 1767.69 706.861 1767.69 692.646V648.531L1553.56 380.156H1468.15Z" fill="white"/>
<path d="M1391.7 380.156V648.531H1614.99V690.352C1614.97 696.829 1616.64 703.198 1619.85 708.824C1623.06 714.449 1627.69 719.134 1633.28 722.409C1643.41 728.283 1656.7 732.304 1670.37 726.082C1683.31 720.198 1691.23 706.861 1691.23 692.646V648.531L1477.11 380.156H1391.7Z" fill="#094446"/>
<path d="M1315.24 380.156V648.531H1538.53V690.352C1538.5 696.829 1540.18 703.198 1543.39 708.824C1546.6 714.449 1551.23 719.134 1556.82 722.409C1566.95 728.283 1580.23 732.304 1593.91 726.082C1606.85 720.198 1614.77 706.861 1614.77 692.646V648.531L1400.65 380.156H1315.24Z" fill="white"/>
<path d="M1239.55 379.156V648.34H1461.83V690.355C1461.81 696.778 1463.46 703.096 1466.63 708.682C1469.8 714.269 1474.37 718.93 1479.9 722.205C1489.93 728.087 1503.09 732.119 1516.64 725.893C1529.45 720.002 1537.28 706.755 1537.28 692.65V648.34L1324.44 379.156H1239.55Z" fill="#094446"/>
<path d="M1162.27 380.156V648.531H1385.56V690.352C1385.53 696.829 1387.21 703.198 1390.42 708.824C1393.63 714.449 1398.26 719.134 1403.84 722.409C1413.97 728.283 1427.26 732.304 1440.94 726.082C1453.88 720.198 1461.8 706.861 1461.8 692.646V648.531L1247.68 380.156H1162.27Z" fill="white"/>
<path d="M1085.81 380.156V648.531H1309.09V690.352C1309.07 696.829 1310.75 703.198 1313.95 708.824C1317.16 714.449 1321.79 719.134 1327.38 722.409C1337.51 728.283 1350.8 732.304 1364.48 726.082C1377.41 720.198 1385.34 706.861 1385.34 692.646V648.531L1171.21 380.156H1085.81Z" fill="#094446"/>
<path d="M1009.34 380.156V648.531H1232.63V690.352C1232.61 696.829 1234.28 703.198 1237.49 708.824C1240.7 714.449 1245.33 719.134 1250.92 722.409C1261.05 728.283 1274.34 732.304 1288.01 726.082C1300.95 720.198 1308.88 706.861 1308.88 692.646V648.531L1094.75 380.156H1009.34Z" fill="white"/>
<path d="M932.882 380.156V658.857H1156.17V690.352C1156.15 696.829 1157.82 703.198 1161.03 708.824C1164.24 714.449 1168.87 719.134 1174.46 722.409C1184.59 728.283 1197.88 732.304 1211.55 726.082C1224.49 720.198 1232.41 706.861 1232.41 692.646V648.531L1018.29 380.156H932.882Z" fill="#094446"/>
<path d="M3148.66 2208.12C3229.38 2127.4 3229.38 1996.53 3148.66 1915.82C3067.95 1835.1 2937.08 1835.1 2856.36 1915.82C2775.64 1996.53 2775.64 2127.4 2856.36 2208.12C2937.08 2288.84 3067.95 2288.84 3148.66 2208.12Z" fill="#A9A9A9"/>
<path d="M3119.96 2175.22C3182.51 2112.67 3182.51 2011.27 3119.96 1948.72C3057.42 1886.18 2956.01 1886.18 2893.47 1948.72C2830.92 2011.27 2830.92 2112.67 2893.47 2175.22C2956.01 2237.76 3057.42 2237.76 3119.96 2175.22Z" fill="#D2D4D8"/>
<path d="M3022.37 2127.57C3058.59 2116.6 3079.07 2078.34 3068.1 2042.11C3057.13 2005.89 3018.88 1985.41 2982.65 1996.38C2946.43 2007.35 2925.95 2045.61 2936.92 2081.83C2947.89 2118.06 2986.14 2138.53 3022.37 2127.57Z" fill="#094446"/>
<path d="M2839.41 1283.27C2776.08 1275.32 2753.72 1319.53 2753.72 1319.53L2783.11 1411.8L2850.91 1407.38C2854.08 1407.18 2857.1 1406.04 2859.6 1404.09C2862.1 1402.14 2863.95 1399.48 2864.9 1396.46C2868.81 1383.84 2872.32 1357.56 2863.64 1306.71C2862.64 1300.73 2859.75 1295.22 2855.39 1291C2851.03 1286.78 2845.42 1284.07 2839.41 1283.27Z" fill="#0D6467"/>
<path d="M2869.01 1671.59L2855.44 1834.57L2994.41 1792.2C2993.09 1789.38 2987.98 1778.14 2970.74 1739.62C2941.92 1675.18 2869.01 1671.59 2869.01 1671.59ZM2994.41 1792.2C2995.31 1794.1 2994.48 1792.18 2994.48 1792.18L2994.41 1792.2Z" fill="#12797C"/>
<path d="M2994.5 1792.18C2880.24 1802.53 2837.82 1846.44 2837.82 1846.44L2746.42 2040.74L3192.89 1948.25C3192.89 1948.25 3108.76 1781.82 2994.5 1792.18Z" fill="#12797C"/>
<mask id="mask0_579_108" style="mask-type:luminance" maskUnits="userSpaceOnUse" x="2746" y="1791" width="447" height="250">
<path d="M3192.89 1948.24C3192.89 1948.24 3108.76 1781.81 2994.5 1792.17C2880.24 1802.52 2837.82 1846.43 2837.82 1846.43L2746.43 2040.73L3192.89 1948.24Z" fill="white"/>
</mask>
<g mask="url(#mask0_579_108)">
<path d="M3200.83 1928.85C3187.97 1916.9 3168.5 1916.38 3150.95 1917.11C3066.12 1920.61 2982.42 1936.93 2898.25 1948.01C2891.49 1948.9 2884.5 1949.74 2877.96 1947.84C2871.41 1945.95 2865.37 1940.57 2864.9 1933.77C2864.39 1926.47 2870.18 1920.25 2876.28 1916.19C2882.38 1912.14 2889.4 1909.05 2893.88 1903.26C2898.37 1897.47 2898.83 1887.61 2892.5 1883.93C2889.7 1882.3 2886.01 1882.11 2883.84 1879.71C2879.17 1874.52 2886.12 1867.24 2891.59 1862.9C2909.45 1848.72 2917.64 1823.42 2911.45 1801.46C2910.83 1799.24 2909.99 1796.94 2908.22 1795.47C2905.59 1793.27 2901.75 1793.53 2898.36 1794.03C2856.92 1800.08 2819.37 1823.28 2789.99 1853.12C2760.61 1882.96 2738.65 1919.25 2719.02 1956.24C2710.89 1971.58 2703 1987.38 2700.05 2004.49C2697.1 2021.59 2699.7 2040.42 2710.73 2053.82C2725.78 2072.11 2751.97 2076.03 2775.64 2076.74C2824.22 2078.22 2872.67 2071.7 2920.7 2064.24C3011.18 2050.18 3104.02 2031.56 3179.71 1980.04C3189.99 1973.04 3200.6 1964.39 3203.05 1952.2C3204.55 1944.69 3202.68 1936.97 3200.82 1929.54L3200.83 1928.85Z" fill="#094446"/>
</g>
<path d="M1901.54 2283.42C2015.69 2283.42 2108.23 2190.89 2108.23 2076.74C2108.23 1962.58 2015.69 1870.05 1901.54 1870.05C1787.39 1870.05 1694.85 1962.58 1694.85 2076.74C1694.85 2190.89 1787.39 2283.42 1901.54 2283.42Z" fill="#A9A9A9"/>
<path d="M2018.99 2189.99C2081.54 2127.45 2081.54 2026.04 2018.99 1963.49C1956.45 1900.95 1855.04 1900.95 1792.5 1963.49C1729.95 2026.04 1729.95 2127.45 1792.5 2189.99C1855.04 2252.54 1956.45 2252.54 2018.99 2189.99Z" fill="#D2D4D8"/>
<path d="M1901.54 2145.29C1939.39 2145.29 1970.07 2114.6 1970.07 2076.75C1970.07 2038.91 1939.39 2008.22 1901.54 2008.22C1863.69 2008.22 1833.01 2038.91 1833.01 2076.75C1833.01 2114.6 1863.69 2145.29 1901.54 2145.29Z" fill="#094446"/>
<path d="M2836.24 1536.13C2818.16 1464.48 2815.89 1351.87 2760.5 1310.02C2705.11 1268.17 2684.76 1341.7 2684.76 1341.7C2728.85 1363.17 2761.63 1557.61 2779.72 1643.52C2797.8 1729.43 2745.8 1963.43 2542.33 1995.08C2338.85 2026.74 2247.29 1839.09 2272.88 1735.09C2200.12 1730.56 2155.72 1656.33 2155.72 1656.33C2155.72 1656.33 2095.81 1661.61 1868.59 1662.74C1680.76 1726.88 1658.54 1970 1656.86 2059.82C1656.78 2064.21 1657.57 2068.57 1659.18 2072.66C1660.8 2076.74 1663.21 2080.46 1666.28 2083.6C1669.34 2086.74 1673 2089.24 1677.04 2090.96C1681.08 2092.67 1685.43 2093.57 1689.82 2093.59L2127.46 2095.69C2127.46 2095.69 2500.5 2157.87 2699.46 2067.83C2898.41 1977.79 2896.15 1701.17 2884.85 1651.43C2873.54 1601.69 2851.22 1595.48 2836.24 1536.13Z" fill="#094446"/>
<mask id="mask1_579_108" style="mask-type:luminance" maskUnits="userSpaceOnUse" x="1656" y="1297" width="1234" height="820">
<path d="M2684.77 1341.7C2684.77 1341.7 2705.12 1268.17 2760.51 1310.03C2815.9 1351.88 2818.17 1464.49 2836.25 1536.14C2851.23 1595.49 2873.55 1601.7 2884.86 1651.44C2896.16 1701.18 2898.42 1977.8 2699.47 2067.83C2500.51 2157.87 2127.47 2095.7 2127.47 2095.7L1689.82 2093.6C1685.43 2093.57 1681.09 2092.68 1677.05 2090.96C1673.01 2089.25 1669.35 2086.75 1666.28 2083.61C1663.22 2080.46 1660.81 2076.74 1659.19 2072.66C1657.58 2068.58 1656.79 2064.22 1656.87 2059.83C1658.55 1970.01 1680.77 1726.89 1868.6 1662.75C2095.82 1661.62 2155.73 1656.33 2155.73 1656.33C2155.73 1656.33 2200.13 1730.57 2272.89 1735.09C2247.29 1839.09 2338.86 2026.74 2542.34 1995.09C2745.81 1963.44 2797.81 1729.44 2779.73 1643.53C2761.64 1557.62 2728.86 1363.18 2684.77 1341.7Z" fill="white"/>
</mask>
<g mask="url(#mask1_579_108)">
<path d="M2678.48 1205.13L2681.12 1273.66C2681.12 1273.66 2834.96 1395.23 2822.25 1641.23C2809.53 1887.22 2794.27 1999.4 2588.26 2039.96C2382.25 2080.52 2109.88 2033.3 2037.51 1985.7C2206.76 1834.55 2095.2 1579.18 1825.26 1706.86C1666.42 1781.99 1535.32 2155.9 1535.32 2155.9L2662.8 2194.97L3056.23 1654.49L2894.24 1282.29L2678.48 1205.13Z" fill="#12797C"/>
</g>
<path d="M1872.22 1618.21H2157.24C2158.52 1618.21 2159.8 1618.47 2160.99 1618.96C2162.17 1619.45 2163.25 1620.17 2164.16 1621.08C2165.07 1621.99 2165.79 1623.07 2166.29 1624.26C2166.78 1625.45 2167.03 1626.72 2167.03 1628.01V1655.15C2167.03 1656.44 2166.78 1657.71 2166.29 1658.9C2165.79 1660.09 2165.07 1661.17 2164.16 1662.08C2163.25 1662.98 2162.17 1663.71 2160.99 1664.2C2159.8 1664.69 2158.52 1664.94 2157.24 1664.94H1872.22C1869.62 1664.94 1867.13 1663.91 1865.29 1662.08C1863.45 1660.24 1862.42 1657.75 1862.42 1655.15V1628.01C1862.42 1625.41 1863.45 1622.92 1865.29 1621.08C1867.13 1619.25 1869.62 1618.21 1872.22 1618.21Z" fill="#094446"/>
<path d="M2122.93 1599.72C2122.93 1599.72 2158.53 1727.75 2272.86 1735.1C2319.37 1700.06 2367.03 1599.72 2367.03 1599.72C2367.03 1599.72 2195.84 1564.97 2156.84 1549.71C2117.84 1534.45 2122.93 1599.72 2122.93 1599.72Z" fill="#094446"/>
<path d="M2026.85 1697.79C1738.59 1646.92 1608.35 2076.88 1674.85 2089.94C1732.94 2101.36 2127.46 2095.71 2127.46 2095.71C2127.46 2095.71 2315.11 1748.66 2026.85 1697.79Z" fill="#CDCDCD"/>
<path d="M1900.83 1880.02C1776.74 1880.02 1676.15 1977.77 1676.15 2098.35H2125.5C2125.5 1977.77 2024.91 1880.02 1900.83 1880.02Z" fill="white"/>
<path d="M1977.84 1976.41H1825.24C1824.78 1976.41 1824.34 1976.59 1824.02 1976.92C1823.7 1977.24 1823.51 1977.68 1823.51 1978.14C1823.51 1978.6 1823.7 1979.04 1824.02 1979.36C1824.34 1979.69 1824.78 1979.87 1825.24 1979.87H1977.84C1978.3 1979.87 1978.74 1979.69 1979.07 1979.36C1979.39 1979.04 1979.57 1978.6 1979.57 1978.14C1979.57 1977.68 1979.39 1977.24 1979.07 1976.92C1978.74 1976.59 1978.3 1976.41 1977.84 1976.41ZM1967.67 2002.77H1832.03C1831.57 2002.77 1831.13 2002.95 1830.8 2003.28C1830.48 2003.6 1830.3 2004.04 1830.3 2004.5C1830.3 2004.96 1830.48 2005.4 1830.8 2005.72C1831.13 2006.05 1831.57 2006.23 1832.03 2006.23H1967.67C1968.13 2006.23 1968.57 2006.05 1968.89 2005.72C1969.22 2005.4 1969.4 2004.96 1969.4 2004.5C1969.4 2004.04 1969.22 2003.6 1968.89 2003.28C1968.57 2002.95 1968.13 2002.77 1967.67 2002.77H1967.67ZM1951.84 2030.67H1851.24C1850.78 2030.67 1850.34 2030.85 1850.02 2031.18C1849.69 2031.5 1849.51 2031.94 1849.51 2032.4C1849.51 2032.86 1849.69 2033.3 1850.02 2033.62C1850.34 2033.95 1850.78 2034.13 1851.24 2034.13H1951.84C1952.3 2034.13 1952.74 2033.95 1953.07 2033.62C1953.39 2033.3 1953.57 2032.86 1953.57 2032.4C1953.57 2031.94 1953.39 2031.5 1953.07 2031.18C1952.74 2030.85 1952.3 2030.67 1951.84 2030.67Z" fill="#094446"/>
<path d="M2702.3 1323.92C2698.11 1323.92 2694.01 1325.16 2690.53 1327.49C2687.05 1329.82 2684.33 1333.12 2682.73 1336.99C2681.13 1340.86 2680.71 1345.12 2681.53 1349.23C2682.34 1353.34 2684.36 1357.11 2687.32 1360.07C2690.28 1363.04 2694.06 1365.05 2698.17 1365.87C2702.27 1366.69 2706.53 1366.27 2710.4 1364.66C2714.27 1363.06 2717.58 1360.35 2719.91 1356.86C2722.23 1353.38 2723.48 1349.29 2723.48 1345.1C2723.48 1342.32 2722.93 1339.56 2721.86 1336.99C2720.8 1334.42 2719.24 1332.09 2717.27 1330.12C2715.31 1328.15 2712.97 1326.59 2710.4 1325.53C2707.83 1324.47 2705.08 1323.92 2702.3 1323.92Z" fill="white"/>
<path d="M1975.74 2158.64C1975.74 2158.64 1920.59 2231.81 1867.27 2242.81C1813.96 2253.8 1816.34 2279.63 1849.14 2285.07C1881.94 2290.51 2026.31 2285.07 2049.29 2271.48C2072.27 2257.88 2055.95 2180.17 2055.95 2180.17L1975.74 2158.64Z" fill="#292929"/>
<mask id="mask2_579_108" style="mask-type:luminance" maskUnits="userSpaceOnUse" x="1825" y="2158" width="237" height="130">
<path d="M1975.78 2158.64C1975.78 2158.64 1920.63 2231.81 1867.31 2242.81C1814 2253.81 1816.38 2279.64 1849.18 2285.07C1881.97 2290.51 2026.35 2285.07 2049.33 2271.48C2072.31 2257.88 2055.99 2180.17 2055.99 2180.17L1975.78 2158.64Z" fill="white"/>
</mask>
<g mask="url(#mask2_579_108)">
<path d="M2056 2253.45C1943.66 2285.9 1813.78 2263.91 1813.78 2263.91L1837.12 2310.27L2078.43 2292.89C2078.43 2292.89 2093.83 2242.52 2056 2253.45Z" fill="white"/>
<path d="M1966.1 2206.41C1961.32 2206.41 1956.65 2207.83 1952.68 2210.48C1948.7 2213.14 1945.61 2216.91 1943.78 2221.33C1941.95 2225.74 1941.47 2230.6 1942.4 2235.29C1943.34 2239.97 1945.64 2244.28 1949.02 2247.66C1952.39 2251.03 1956.7 2253.34 1961.39 2254.27C1966.07 2255.2 1970.93 2254.72 1975.35 2252.89C1979.76 2251.06 1983.53 2247.97 1986.19 2243.99C1988.84 2240.02 1990.26 2235.35 1990.26 2230.57C1990.25 2224.17 1987.71 2218.02 1983.18 2213.49C1978.65 2208.97 1972.5 2206.42 1966.1 2206.41ZM1966.1 2251.27C1962 2251.27 1958 2250.06 1954.6 2247.78C1951.19 2245.51 1948.54 2242.28 1946.97 2238.49C1945.41 2234.71 1945 2230.55 1945.79 2226.53C1946.59 2222.52 1948.57 2218.83 1951.46 2215.93C1954.36 2213.04 1958.05 2211.07 1962.06 2210.27C1966.08 2209.47 1970.24 2209.88 1974.02 2211.44C1977.81 2213.01 1981.04 2215.67 1983.31 2219.07C1985.59 2222.47 1986.8 2226.48 1986.8 2230.57C1986.8 2236.06 1984.61 2241.32 1980.73 2245.2C1976.85 2249.08 1971.59 2251.27 1966.1 2251.27Z" fill="white"/>
</g>
<path d="M2067.86 1368.06L1830.84 1394.5C1829.67 1394.63 1828.56 1395.11 1827.66 1395.87C1826.75 1396.63 1826.1 1397.65 1825.78 1398.78C1816.13 1433 1745.43 1685.93 1747.34 1750.66C1749.16 1812.93 1801.78 2058.59 1812.67 2108.85C1813.57 2113.01 1821.83 2137.65 1825.3 2135.2C1841.32 2123.9 1870.98 2111.21 1902.32 2120.92C1906.24 2122.14 1928.53 2119.65 1928.37 2115.55C1925.94 2053.08 1889.86 1850 1871.37 1781.11C1871.05 1779.96 1871.1 1778.75 1871.49 1777.63C1892.21 1718.18 1923.22 1641.33 1939.82 1600.92C1942.29 1594.89 1951.26 1596.67 1951.26 1603.18V1843.57C1951.26 1923.88 1953.75 2153.08 1951.11 2195.3C1950.88 2198.88 1951.11 2195.3 1954.69 2195.05C1976.2 2193.56 2000.2 2172.93 2056.45 2208.53C2060.26 2210.94 2065.23 2207.86 2065.25 2203.35C2065.62 2137.49 2068.85 2171.57 2065.22 2077.08C2061.4 1977.65 2070.34 1872.16 2066.98 1824.91C2066.94 1824.44 2066.97 1823.97 2067.05 1823.51C2084.8 1724.69 2075.69 1598.05 2084.84 1554.16C2092.91 1515.44 2078.08 1400.23 2074.41 1373.15C2074.2 1371.62 2073.4 1370.22 2072.18 1369.27C2070.95 1368.32 2069.4 1367.88 2067.86 1368.06Z" fill="#CBCBCB"/>
<mask id="mask3_579_108" style="mask-type:luminance" maskUnits="userSpaceOnUse" x="1747" y="1368" width="341" height="842">
<path d="M1830.8 1394.48C1829.63 1394.61 1828.52 1395.09 1827.62 1395.85C1826.72 1396.61 1826.06 1397.63 1825.74 1398.76C1816.09 1432.98 1745.4 1685.91 1747.3 1750.64C1749.12 1812.91 1801.74 2058.57 1812.63 2108.83C1813.53 2112.99 1821.79 2137.63 1825.26 2135.18C1841.28 2123.88 1870.94 2111.19 1902.28 2120.91C1906.2 2122.12 1928.49 2119.63 1928.33 2115.53C1925.9 2053.07 1889.82 1849.98 1871.33 1781.09C1871.01 1779.94 1871.06 1778.73 1871.45 1777.61C1892.17 1718.16 1923.18 1641.31 1939.78 1600.9C1942.25 1594.87 1951.22 1596.65 1951.22 1603.16V1843.55C1951.22 1923.86 1953.71 2153.06 1951.07 2195.28C1950.84 2198.86 1951.07 2195.28 1954.65 2195.03C1976.16 2193.54 2029.49 2194.12 2056.41 2208.51C2057.31 2209.01 2058.33 2209.26 2059.36 2209.24C2060.39 2209.22 2061.39 2208.94 2062.28 2208.42C2063.17 2207.9 2063.9 2207.15 2064.42 2206.26C2064.93 2205.37 2065.21 2204.36 2065.21 2203.33C2065.58 2137.47 2068.81 2171.55 2065.18 2077.06C2061.36 1977.63 2070.3 1872.14 2066.94 1824.89C2066.9 1824.42 2066.93 1823.95 2067.01 1823.49C2084.76 1724.67 2075.65 1598.03 2084.8 1554.14C2092.87 1515.42 2078.05 1400.21 2074.37 1373.13C2074.16 1371.6 2073.36 1370.2 2072.14 1369.25C2070.91 1368.3 2069.36 1367.86 2067.82 1368.04L1830.8 1394.48Z" fill="white"/>
</mask>
<g mask="url(#mask3_579_108)">
<path d="M1829.08 1791.69C1853.75 1769.41 1855.05 1787.19 1884.63 1787.19C1840.44 1750.21 1794.54 1787.19 1794.54 1787.19C1794.54 1787.19 1757.51 1736.48 1781.79 1641.56C1806.06 1546.64 1855.05 1378.24 1855.05 1378.24L1834.85 1367.98L1747.28 1518.28L1694.83 1788.6L1773.54 2167.2L1862.39 2158.61L1855.05 2098.33C1855.05 2098.33 1851.32 2052.57 1832 1997.49C1812.68 1942.41 1814.61 1913.9 1832 1855.25C1849.39 1796.61 1804.42 1813.97 1829.08 1791.69ZM1981.95 1798.66C1981.95 1798.66 2004.26 1581.49 1983.87 1564.15C1963.48 1546.8 1930.08 1624.69 1930.08 1624.69L1934.25 1814.52L1922.62 2213.24L1978.32 2189.89C1978.32 2189.89 1981.83 2142.3 1967.65 2076.73C1953.46 2011.16 1974.45 2033.7 1977.82 1938.13C1981.18 1842.55 1953.76 1890.46 1992.03 1858.84C2030.3 1827.21 2118.46 1895.54 2084.82 1861.88C2051.18 1828.22 1981.95 1798.66 1981.95 1798.66Z" fill="#B0B0B0"/>
<path d="M1887.4 1351.73C1882.92 1365.79 1777.84 1696.56 1780.06 1745C1782.28 1793.28 1865.64 2144.12 1869.19 2159.03L1872.55 2158.23C1871.68 2154.58 1785.72 1792.8 1783.51 1744.84C1781.32 1697.02 1889.6 1356.22 1890.69 1352.78L1887.4 1351.73Z" fill="white"/>
<path d="M1903.2 1357.85C1898.73 1371.91 1793.64 1702.68 1795.86 1751.12C1798.08 1799.4 1881.44 2150.24 1884.99 2165.15L1888.36 2164.35C1887.49 2160.7 1801.52 1798.92 1799.32 1750.96C1797.12 1703.14 1905.4 1362.34 1906.5 1358.9L1903.2 1357.85Z" fill="white"/>
</g>
<path d="M1921.27 2105.82C1921.27 2105.82 1879.97 2058.23 1822.04 2117.19C1820.84 2118.43 1820.09 2120.05 1819.91 2121.77C1819.73 2123.5 1820.14 2125.23 1821.07 2126.7C1825.35 2133.71 1813.8 2161.03 1789.13 2192.61C1740.11 2255.36 1696.92 2302.5 1745.35 2309.79C1793.79 2317.09 1960.66 2234.64 1954.69 2195.02C1948.72 2155.41 1921.27 2105.82 1921.27 2105.82Z" fill="#292929"/>
<mask id="mask4_579_108" style="mask-type:luminance" maskUnits="userSpaceOnUse" x="1724" y="2087" width="231" height="224">
<path d="M1822.05 2117.21C1820.85 2118.46 1820.1 2120.07 1819.92 2121.8C1819.74 2123.52 1820.15 2125.25 1821.08 2126.72C1825.35 2133.73 1813.8 2161.05 1789.13 2192.64C1740.12 2255.39 1696.92 2302.52 1745.36 2309.82C1793.8 2317.11 1960.67 2234.67 1954.7 2195.05C1948.73 2155.43 1921.28 2105.84 1921.28 2105.84C1921.28 2105.84 1879.98 2058.26 1822.05 2117.21Z" fill="white"/>
</mask>
<g mask="url(#mask4_579_108)">
<path d="M1958.76 2184.48C1906.31 2168.32 1808.53 2228.98 1771.82 2253.45C1766.95 2235.71 1766.02 2217.12 1769.1 2198.98L1710.64 2236.92L1698.41 2340.14L1912.53 2276.25C1912.53 2276.25 2011.2 2200.63 1958.76 2184.48Z" fill="white"/>
<path d="M1855.56 2137.53C1850.57 2137.53 1845.69 2139.01 1841.53 2141.78C1837.38 2144.56 1834.14 2148.5 1832.23 2153.12C1830.32 2157.73 1829.82 2162.81 1830.79 2167.71C1831.77 2172.61 1834.17 2177.11 1837.71 2180.64C1841.24 2184.17 1845.74 2186.58 1850.64 2187.55C1855.53 2188.52 1860.61 2188.02 1865.23 2186.11C1869.84 2184.2 1873.79 2180.96 1876.56 2176.81C1879.34 2172.66 1880.82 2167.78 1880.82 2162.78C1880.81 2156.09 1878.15 2149.67 1873.41 2144.93C1868.68 2140.2 1862.26 2137.53 1855.56 2137.53ZM1855.56 2184.58C1851.25 2184.58 1847.04 2183.3 1843.45 2180.9C1839.87 2178.51 1837.08 2175.1 1835.43 2171.12C1833.78 2167.14 1833.35 2162.76 1834.19 2158.53C1835.03 2154.3 1837.1 2150.42 1840.15 2147.37C1843.2 2144.32 1847.08 2142.25 1851.31 2141.4C1855.54 2140.56 1859.92 2141 1863.9 2142.65C1867.89 2144.29 1871.29 2147.09 1873.68 2150.67C1876.08 2154.26 1877.36 2158.47 1877.36 2162.78C1877.35 2168.56 1875.05 2174.1 1870.97 2178.19C1866.88 2182.27 1861.34 2184.57 1855.56 2184.58Z" fill="white"/>
</g>
<path d="M1837.35 2229.7C1779.8 2258.32 1738.44 2292.15 1744.96 2305.26C1751.48 2318.37 1803.41 2305.79 1860.96 2277.18C1918.5 2248.56 1959.87 2214.74 1953.35 2201.63C1946.83 2188.52 1894.89 2201.09 1837.35 2229.7Z" fill="black"/>
<path d="M1646.42 1044.17C1646.42 1068.64 1663.26 1101.2 1663.26 1101.2L1728.68 1089.53V1024.11L1671.91 972.793C1671.91 972.793 1646.42 1019.7 1646.42 1044.17Z" fill="#F2BD96"/>
<path d="M1624.49 927.93L1618.37 943.734L1690.76 1062.52L1758.06 1019.29L1680.06 898.871L1624.49 927.93Z" fill="#D9D9D9"/>
<path d="M1637.74 937.121L1701.57 1035.52L1738.17 1011.04L1678.01 915.199L1637.74 937.121Z" fill="white"/>
<mask id="mask5_579_108" style="mask-type:luminance" maskUnits="userSpaceOnUse" x="1618" y="898" width="141" height="165">
<path d="M1624.45 927.938L1618.33 943.742L1690.72 1062.53L1758.02 1019.3L1680.02 898.879L1624.45 927.938Z" fill="white"/>
</mask>
<g mask="url(#mask5_579_108)">
<path d="M1695.82 1048.46L1618.37 920.055L1603.3 947.724L1682.39 1071.37L1763.26 1027.27L1758.06 1011.71L1695.82 1048.46Z" fill="#727272"/>
</g>
<path d="M1827.11 682.441L1812.55 713.292L1946.44 843.13C1946.44 843.13 2015.71 817.781 2004.65 752.731C1993.59 687.68 1827.11 682.441 1827.11 682.441Z" fill="black"/>
<path d="M1932.65 805.341C1932.65 805.341 1898.72 780.235 1898.72 741.233C1884.75 752.876 1845.16 745.89 1845.75 713.293C1846.33 680.695 1812.56 713.293 1812.56 713.293C1812.56 713.293 1832.86 783.436 1786.95 797.763C1810.24 818.5 1809.68 848.154 1826.93 871.108C1837.29 884.881 1867.89 879.568 1878.37 874.985C1881.16 899.081 1881.25 933.764 1881.25 933.764L1956.22 904.745L1946.45 831.461L1932.65 805.341Z" fill="#F2BD96"/>
<mask id="mask6_579_108" style="mask-type:luminance" maskUnits="userSpaceOnUse" x="1786" y="698" width="171" height="236">
<path d="M1812.55 713.274C1812.55 713.274 1832.85 783.417 1786.94 797.744C1810.22 818.482 1809.66 848.136 1826.92 871.09C1837.27 884.863 1867.88 879.55 1878.36 874.966C1881.14 899.062 1881.23 933.745 1881.23 933.745L1956.2 904.727L1946.43 831.441L1932.63 805.323C1932.63 805.323 1898.7 780.216 1898.7 741.215C1884.74 752.857 1845.15 745.872 1845.73 713.273C1846.31 680.675 1812.55 713.273 1812.55 713.273V713.274Z" fill="white"/>
</mask>
<g mask="url(#mask6_579_108)">
<path d="M1878.37 687.219H1821.26L1809.54 722.453C1809.54 722.453 1820.75 712.257 1834.01 733.669C1847.26 755.081 1882.1 778.08 1892.34 765.367C1911.67 809.381 1929.85 846.07 1949.74 856.145C1969.62 866.221 1965.54 796.376 1965.54 796.376L1878.37 687.219ZM1857.38 879.659C1825.85 881.006 1850.83 917.713 1850.83 917.713C1850.83 917.713 1921.18 900.889 1909.2 853.985C1909.2 853.985 1888.91 878.311 1857.38 879.659Z" fill="#E6A577"/>
</g>
<path d="M1843.03 750.587C1842.59 750.696 1842.21 750.973 1841.98 751.36C1841.74 751.746 1841.66 752.21 1841.76 752.652C1841.87 753.095 1842.14 753.479 1842.52 753.723C1842.9 753.967 1843.36 754.051 1843.81 753.957C1844.01 753.913 1864.12 749.461 1869.83 760.488C1869.93 760.69 1870.07 760.869 1870.25 761.015C1870.42 761.162 1870.62 761.273 1870.84 761.341C1871.05 761.41 1871.28 761.436 1871.51 761.417C1871.74 761.397 1871.96 761.334 1872.16 761.229C1872.36 761.125 1872.54 760.982 1872.68 760.808C1872.83 760.635 1872.94 760.434 1873.01 760.218C1873.08 760.001 1873.1 759.773 1873.09 759.547C1873.07 759.321 1873 759.1 1872.9 758.899C1865.96 745.493 1843.97 750.372 1843.03 750.587Z" fill="black"/>
<path d="M1853.01 783.452C1856.71 783.452 1859.71 779.412 1859.71 774.429C1859.71 769.446 1856.71 765.406 1853.01 765.406C1849.32 765.406 1846.32 769.446 1846.32 774.429C1846.32 779.412 1849.32 783.452 1853.01 783.452Z" fill="black"/>
<path d="M1938.3 637.482C1856.55 611.145 1837.45 659.311 1820.42 694.674C1820.42 694.674 1753.62 715.193 1775.45 732.221C1797.28 749.247 1898.13 737.022 1921.71 723.488C1988.07 755.795 2008.15 764.963 2008.15 764.963C2008.15 764.963 2042.64 671.099 1938.3 637.482Z" fill="#CBCBCB"/>
<path d="M1878.38 874.981C1891.48 874.981 1912.66 855.258 1921.62 841.851C1930.58 828.445 1956.84 774.409 1963.29 743.618C1946.88 735.694 1939.14 731.945 1939.14 731.945C1939.14 731.945 1912.95 840.777 1878.38 874.981Z" fill="black"/>
<mask id="mask7_579_108" style="mask-type:luminance" maskUnits="userSpaceOnUse" x="1771" y="629" width="243" height="136">
<path d="M1820.4 694.686C1820.4 694.686 1753.6 715.206 1775.43 732.231C1797.26 749.257 1898.11 737.035 1921.69 723.5C1988.05 755.807 2008.13 764.975 2008.13 764.975C2008.13 764.975 2042.62 671.111 1938.28 637.494C1856.53 611.157 1837.43 659.323 1820.4 694.686Z" fill="white"/>
</mask>
<g mask="url(#mask7_579_108)">
<path d="M1921.68 723.49C1855.41 675.041 1820.4 694.676 1820.4 694.676L1774.51 686.29L1745.96 751.327C1745.96 751.327 1987.95 771.94 1921.68 723.49ZM1982.52 724.357C1973.68 773.299 1970.07 774.424 1970.07 774.424L2028.06 788.933L2046.41 656.381L1956.2 635.988C1956.2 635.988 1991.35 675.414 1982.52 724.356L1982.52 724.357Z" fill="#B0B0B0"/>
<path opacity="0.51" d="M1949.2 676.772C1949.2 676.772 1964.84 673.952 1980.47 698.814C1996.1 723.676 1981.15 643.464 1949.2 676.772Z" fill="white"/>
<path opacity="0.51" d="M1943.02 673.887C1947.33 672.869 1950 668.552 1948.98 664.243C1947.97 659.934 1943.65 657.266 1939.34 658.283C1935.03 659.3 1932.36 663.618 1933.38 667.927C1934.4 672.236 1938.71 674.904 1943.02 673.887Z" fill="white"/>
</g>
<path d="M1867.46 837.548C1850.23 846.44 1829.87 841.497 1829.67 841.445C1829.23 841.333 1828.75 841.403 1828.36 841.639C1827.97 841.874 1827.68 842.256 1827.57 842.701C1827.46 843.146 1827.53 843.617 1827.76 844.011C1828 844.404 1828.38 844.688 1828.83 844.8C1833.62 845.873 1838.51 846.399 1843.42 846.367C1850.9 846.367 1860.26 845.157 1869.04 840.622C1869.44 840.407 1869.74 840.044 1869.87 839.611C1870.01 839.178 1869.97 838.71 1869.76 838.307C1869.55 837.905 1869.19 837.6 1868.76 837.458C1868.33 837.316 1867.86 837.349 1867.46 837.549L1867.46 837.548Z" fill="#D89D67"/>
<path d="M1884.07 809.394C1895.91 809.394 1905.51 805.6 1905.51 800.92C1905.51 796.239 1895.91 792.445 1884.07 792.445C1872.22 792.445 1862.62 796.239 1862.62 800.92C1862.62 805.6 1872.22 809.394 1884.07 809.394Z" fill="#E6A577"/>
<path d="M2050.33 926.642C2036.49 909.47 2023.15 903.741 2002.14 899.723C1995.82 898.541 1988.79 897.48 1980.85 896.318C1977.8 882.043 1968.62 886.121 1909.21 896.318C1849.83 906.514 1843.43 933.759 1843.43 933.759C1843.43 933.759 1842.53 933.963 1840.88 934.35C1830.23 936.889 1819.63 939.629 1809.09 942.568C1794.02 946.769 1776.8 952.051 1763.67 957.496C1734.1 969.731 1713.71 1089.03 1713.71 1089.03L1708.61 1082.91C1708.61 1082.91 1698.42 1084.95 1658.65 1103.3C1646.41 1208.33 1703.51 1278.68 1737.16 1296.02C1770.18 1313.02 1800.26 1218.09 1801.38 1214.55C1800.95 1216.5 1794.16 1248.87 1791.2 1304.7C1788.14 1362.33 1826.89 1368.41 1826.89 1368.41C1826.89 1368.41 1818.73 1371.47 1826.89 1394.92C1873.79 1433.67 2065.48 1388.8 2065.48 1388.8L2083.43 1024.1L2084.71 998.118V998.097L2084.86 995.222C2084.86 995.222 2085.88 982.987 2062.43 944.241C2058.78 938.116 2054.74 932.237 2050.33 926.642Z" fill="#CBCBCB"/>
<mask id="mask8_579_108" style="mask-type:luminance" maskUnits="userSpaceOnUse" x="1656" y="887" width="429" height="524">
<path d="M1843.37 933.765C1843.37 933.765 1849.76 906.522 1909.16 896.326C1968.56 886.13 1977.74 882.05 1980.79 896.326C2022.6 902.443 2038.91 905.502 2062.37 944.248C2085.82 982.994 2084.8 995.23 2084.8 995.23L2065.42 1388.81C2065.42 1388.81 1873.73 1433.67 1826.83 1394.93C1818.67 1371.48 1826.83 1368.42 1826.83 1368.42C1826.83 1368.42 1788.08 1362.34 1791.14 1304.71C1794.2 1247.08 1801.34 1214.45 1801.34 1214.45C1801.34 1214.45 1770.75 1313.36 1737.1 1296.02C1703.45 1278.69 1646.35 1208.33 1658.59 1103.31C1698.36 1084.96 1708.55 1082.92 1708.55 1082.92L1713.65 1089.04C1713.65 1089.04 1734.04 969.74 1763.61 957.503C1793.18 945.267 1843.37 933.765 1843.37 933.765Z" fill="white"/>
</mask>
<g mask="url(#mask8_579_108)">
<path d="M2001.24 887.087C2001.24 887.087 1930.66 890.888 1920.83 909.921C1920.83 909.921 1968.46 886.809 2065.23 909.921C2162 933.034 2001.24 887.087 2001.24 887.087ZM1716.81 1072.83C1716.81 1072.83 1690.25 1141.04 1695.49 1189.98C1700.72 1238.92 1730.01 1241.98 1720.84 1200.18C1711.66 1158.37 1716.81 1072.83 1716.81 1072.83ZM1983.9 1368C1913.55 1390.02 1873.78 1365.36 1889.08 1352.26C1904.37 1339.17 1929.86 1332.73 1889.08 1328.29C1848.29 1323.85 1852.37 1316.42 1829.26 1288.69C1806.16 1260.97 1879.9 1254.22 1837.08 1189.98C1794.25 1125.74 1848.29 1085.98 1819.74 1062.53C1791.19 1039.08 1811.58 1122.68 1805.47 1189.98C1799.35 1257.28 1758.05 1297.14 1758.05 1297.14L1708.59 1368L1860.53 1446.93L2096.22 1416.34L2087.22 1335.79C2087.22 1335.79 2054.26 1345.99 1983.9 1368Z" fill="#B0B0B0"/>
</g>
<path d="M1682.89 1045.1C1682.89 1045.1 1694.78 1024.71 1682.89 1017.57C1671 1010.43 1663.17 1052.48 1663.17 1052.48L1701.2 1074.67C1704.56 1063.45 1682.89 1045.1 1682.89 1045.1V1045.1Z" fill="#F2BD96"/>
<path d="M1685.08 1044.7C1686.78 1041.43 1688.11 1037.98 1689.04 1034.42C1691.18 1025.77 1689.37 1019.43 1683.79 1016.08C1682.86 1015.47 1681.79 1015.12 1680.69 1015.04C1679.58 1014.96 1678.47 1015.16 1677.46 1015.62C1667.73 1020 1662.09 1048.88 1661.48 1052.16C1661.41 1052.6 1661.52 1053.06 1661.78 1053.43C1662.04 1053.79 1662.43 1054.05 1662.87 1054.13C1663.32 1054.21 1663.77 1054.12 1664.15 1053.87C1664.52 1053.62 1664.79 1053.23 1664.88 1052.79C1666.45 1044.38 1672.02 1021.86 1678.88 1018.77C1679.38 1018.54 1679.93 1018.44 1680.48 1018.49C1681.03 1018.54 1681.56 1018.73 1682.01 1019.04C1692.3 1025.22 1681.52 1044.03 1681.41 1044.22L1680.68 1045.47L1681.78 1046.41C1687.57 1051.31 1702.05 1065.86 1699.56 1074.16C1699.49 1074.38 1699.47 1074.61 1699.49 1074.83C1699.52 1075.06 1699.58 1075.28 1699.69 1075.48C1699.8 1075.68 1699.94 1075.86 1700.12 1076C1700.3 1076.14 1700.5 1076.25 1700.72 1076.32C1700.93 1076.38 1701.16 1076.4 1701.39 1076.38C1701.61 1076.36 1701.83 1076.29 1702.03 1076.18C1702.23 1076.07 1702.41 1075.93 1702.55 1075.75C1702.7 1075.58 1702.81 1075.37 1702.87 1075.16C1704.44 1069.91 1701.68 1062.98 1694.65 1054.56C1691.69 1051.06 1688.49 1047.76 1685.08 1044.7Z" fill="#F2BD96"/>
<path d="M1840.86 934.361C1830.21 936.901 1819.61 939.641 1809.07 942.58L1821.42 975.351L1868.25 1101.21C1868.25 1101.21 1903.69 1127.44 1894.84 1062.53C1888.11 1013.04 1855.81 957.792 1840.86 934.361ZM2084.69 998.109L2050.31 926.654C2036.47 909.482 2023.13 903.752 2002.12 899.734C2016.22 930.752 2053.27 1014.91 2050.52 1037C2048.11 1056.31 2070.3 1037 2083.41 1024.11C2088.79 1018.85 2092.65 1014.65 2092.65 1014.65L2084.69 998.129V998.109Z" fill="#B0B0B0"/>
<path d="M1823.52 938.68C1781.81 929.59 1781.81 950.83 1781.81 950.83C1781.81 950.83 1850.66 1094.81 1854.73 1173.66C1858.81 1252.52 1884.64 1200.17 1884.64 1200.17C1884.64 1200.17 1857.58 946.101 1823.52 938.68ZM2065.22 924.873C2028.27 903.474 2013.8 901.496 2013.8 901.496C2013.8 901.496 2082.65 1045.48 2086.73 1124.33C2090.81 1203.18 2116.64 1150.84 2116.64 1150.84C2116.64 1150.84 2109.83 950.714 2065.22 924.873Z" fill="#787878"/>
<path d="M1842.51 1378.25L2026.04 1446.92L2185.11 1340.88V1109.69L1848.76 1130.55L1842.51 1378.25Z" fill="#787878"/>
<mask id="mask9_579_108" style="mask-type:luminance" maskUnits="userSpaceOnUse" x="1842" y="1109" width="344" height="338">
<path d="M1848.72 1130.57L1842.47 1378.27L2026 1446.94L2185.06 1340.9V1109.71L1848.72 1130.57Z" fill="white"/>
</mask>
<g mask="url(#mask9_579_108)">
<path d="M2027.73 1493.85L2200.05 1352.28L2209.23 1074.68L2022.64 1106.46L2027.73 1493.85Z" fill="#2D2D2D"/>
</g>
<path d="M1867.27 1074.66L1837.07 1086.66V1126.55L2021.96 1189.98L2195.98 1104.34V1062.53L2094.02 998.289L1867.27 1074.66Z" fill="#707070"/>
<mask id="mask10_579_108" style="mask-type:luminance" maskUnits="userSpaceOnUse" x="1837" y="998" width="359" height="192">
<path d="M1867.26 1074.65L2094 998.281L2195.96 1062.52V1104.34L2021.95 1189.97L1837.05 1126.54V1086.65L1867.26 1074.65Z" fill="white"/>
</mask>
<g mask="url(#mask10_579_108)">
<path d="M1828.4 1083.85L1824.81 1145.63L2016.5 1211.2L2213.29 1119.12V1053.86L2022.62 1148.89L1828.4 1083.85Z" fill="#292929"/>
</g>
<path d="M1892.11 1291.07C1889.66 1305.42 1901.63 1308.24 1914.46 1307.39C1927.74 1306.54 1941.95 1301.74 1941.95 1301.74L1945.77 1250.06L1946.8 1236.38L1894.75 1232.59C1894.75 1232.59 1898 1256.67 1892.11 1291.07Z" fill="white"/>
<path d="M1914.59 1306.45C1914.53 1306.77 1914.49 1307.08 1914.45 1307.39C1927.73 1306.54 1941.93 1301.74 1941.93 1301.74L1945.76 1250.05L1917.23 1247.97C1917.23 1247.97 1920.48 1272.05 1914.59 1306.45Z" fill="#D3D3D3"/>
<path d="M1922.09 1314.86C1917.09 1344.07 1971.93 1325.53 1971.93 1325.53L1976.78 1260.17L1924.74 1256.38C1924.74 1256.38 1927.98 1280.46 1922.09 1314.86Z" fill="white"/>
<path d="M1921.51 1290.9L1884.66 1278.31V1352.26L1978.08 1383.97L1983.91 1298.89L1939.16 1294.69C1933.15 1294.13 1927.23 1292.86 1921.51 1290.9Z" fill="#292929"/>
<path d="M1086.37 1316.54C1063.52 1316.54 1041.18 1321.99 1022.18 1332.2C1003.18 1342.42 988.367 1356.93 979.622 1373.91C970.877 1390.9 968.588 1409.58 973.047 1427.61C977.505 1445.64 988.51 1462.2 1004.67 1475.2C1020.83 1488.19 1041.42 1497.05 1063.83 1500.63C1086.24 1504.22 1109.48 1502.38 1130.59 1495.34C1151.7 1488.31 1169.75 1476.4 1182.44 1461.11C1195.14 1445.83 1201.92 1427.86 1201.92 1409.48L1086.37 1409.48L1086.37 1316.54Z" fill="#373737"/>
<path d="M1216.99 1394.41C1216.99 1382.2 1214 1370.12 1208.19 1358.84C1202.39 1347.57 1193.87 1337.32 1183.15 1328.69C1172.42 1320.06 1159.68 1313.21 1145.66 1308.54C1131.64 1303.87 1116.62 1301.47 1101.44 1301.47L1101.44 1394.41L1216.99 1394.41Z" fill="#B7B7B7"/>
</svg>
