<svg width="10518" height="2291" viewBox="0 0 10518 2291" fill="none" xmlns="http://www.w3.org/2000/svg">
<path d="M101.846 134.445C101.846 140.742 100.672 146.292 98.3237 151.095C95.9756 155.898 92.7737 159.901 88.7179 163.103C84.662 166.305 79.9125 168.759 74.4692 170.467C69.0258 172.068 63.2089 172.869 57.0185 172.869H34.7649V208.891H15.0729V96.8222H59.2599C65.7705 96.8222 71.6408 97.7294 76.8706 99.5438C82.2072 101.252 86.69 103.76 90.3188 107.068C94.0545 110.377 96.8829 114.326 98.804 118.916C100.832 123.505 101.846 128.682 101.846 134.445ZM81.8337 134.925C81.8337 128.201 79.6457 123.185 75.2696 119.876C70.8936 116.461 65.0234 114.753 57.6589 114.753H34.7649V155.098H57.6589C65.1301 155.098 71.0004 153.283 75.2696 149.654C79.6457 145.919 81.8337 141.009 81.8337 134.925ZM140.905 111.391H120.092V92.9798H140.905V111.391ZM140.264 208.891H120.893V124.359H140.264V208.891ZM239.226 194.962C235.064 199.658 230.314 203.501 224.977 206.489C219.641 209.371 212.863 210.812 204.645 210.812C198.348 210.812 192.531 209.691 187.194 207.45C181.858 205.102 177.215 201.953 173.266 198.004C169.423 193.948 166.382 189.305 164.14 184.075C162.006 178.739 160.938 173.029 160.938 166.945C160.938 160.861 162.006 155.151 164.14 149.815C166.382 144.478 169.423 139.782 173.266 135.726C177.215 131.67 181.858 128.468 187.194 126.12C192.638 123.772 198.508 122.598 204.805 122.598C212.81 122.598 219.427 123.932 224.657 126.6C229.994 129.269 234.637 132.791 238.586 137.167L226.578 150.135C223.59 147.04 220.388 144.531 216.972 142.61C213.664 140.582 209.555 139.568 204.645 139.568C201.123 139.568 197.867 140.315 194.879 141.81C191.89 143.197 189.329 145.118 187.194 147.573C185.06 150.028 183.352 152.91 182.071 156.218C180.897 159.42 180.31 162.889 180.31 166.625C180.31 170.467 180.897 174.043 182.071 177.351C183.352 180.66 185.113 183.542 187.354 185.997C189.596 188.451 192.264 190.426 195.359 191.92C198.454 193.308 201.87 194.002 205.606 194.002C210.195 194.002 214.197 193.041 217.613 191.12C221.135 189.092 224.444 186.53 227.539 183.435L239.226 194.962ZM301.39 158.78L336.132 208.891H313.718L288.262 172.388L276.415 184.716V208.891H257.043V92.0192H276.415V161.822L311.476 124.359H335.011L301.39 158.78ZM404.216 172.068V124.359H423.587V208.891H404.216V195.763C401.441 199.818 397.972 203.341 393.809 206.329C389.647 209.211 384.31 210.652 377.799 210.652C368.194 210.652 360.776 207.717 355.546 201.846C350.316 195.976 347.701 188.078 347.701 178.152V124.359H367.073V172.388C367.073 179.006 368.621 184.129 371.716 187.758C374.918 191.28 379.4 193.041 385.164 193.041C390.821 193.041 395.41 191.226 398.932 187.598C402.455 183.862 404.216 178.686 404.216 172.068ZM535.354 166.625C535.354 173.669 534.234 179.913 531.992 185.356C529.858 190.8 526.923 195.442 523.187 199.285C519.558 203.02 515.342 205.849 510.539 207.77C505.843 209.691 500.987 210.652 495.97 210.652C489.033 210.652 483.269 209.157 478.68 206.169C474.09 203.18 470.301 199.712 467.313 195.763V234.506H447.941V124.359H467.313V138.448C470.408 133.965 474.25 130.229 478.84 127.241C483.429 124.146 489.14 122.598 495.97 122.598C500.987 122.598 505.843 123.558 510.539 125.48C515.236 127.401 519.398 130.283 523.027 134.125C526.763 137.861 529.751 142.45 531.992 147.893C534.234 153.337 535.354 159.58 535.354 166.625ZM515.662 166.625C515.662 162.462 515.022 158.727 513.741 155.418C512.46 152.003 510.699 149.121 508.458 146.773C506.323 144.425 503.762 142.61 500.773 141.329C497.892 140.049 494.796 139.408 491.488 139.408C488.179 139.408 485.03 140.049 482.042 141.329C479.053 142.61 476.438 144.478 474.197 146.933C471.956 149.281 470.141 152.109 468.754 155.418C467.473 158.727 466.833 162.462 466.833 166.625C466.833 170.787 467.473 174.523 468.754 177.832C470.141 181.14 471.956 184.022 474.197 186.477C476.438 188.825 479.053 190.639 482.042 191.92C485.03 193.201 488.179 193.841 491.488 193.841C494.796 193.841 497.892 193.201 500.773 191.92C503.762 190.639 506.323 188.825 508.458 186.477C510.699 184.129 512.46 181.3 513.741 177.992C515.022 174.576 515.662 170.787 515.662 166.625Z" fill="#2D332F"/>
<path d="M1718.82 2172.85L1683.44 2225.68H1682.8L1647.74 2173.17V2253.22H1628.37V2141.15H1649.34L1683.44 2194.14L1717.54 2141.15H1738.51V2253.22H1718.82V2172.85ZM1786.25 2155.72H1765.44V2137.31H1786.25V2155.72ZM1785.61 2253.22H1766.24V2168.69H1785.61V2253.22ZM1894.02 2253.22H1874.64V2239.13C1871.55 2243.51 1867.65 2247.24 1862.96 2250.34C1858.37 2253.43 1852.66 2254.98 1845.83 2254.98C1840.81 2254.98 1835.95 2254.02 1831.26 2252.1C1826.56 2250.18 1822.4 2247.35 1818.77 2243.61C1815.14 2239.77 1812.21 2235.13 1809.96 2229.68C1807.72 2224.24 1806.6 2218 1806.6 2210.95C1806.6 2203.91 1807.67 2197.66 1809.8 2192.22C1812.05 2186.78 1814.98 2182.19 1818.61 2178.45C1822.24 2174.61 1826.4 2171.73 1831.1 2169.81C1835.9 2167.89 1840.81 2166.93 1845.83 2166.93C1852.76 2166.93 1858.53 2168.42 1863.12 2171.41C1867.71 2174.4 1871.55 2177.87 1874.64 2181.81V2136.35H1894.02V2253.22ZM1874.96 2210.95C1874.96 2206.79 1874.27 2203.05 1872.88 2199.75C1871.6 2196.44 1869.84 2193.61 1867.6 2191.26C1865.36 2188.81 1862.74 2186.94 1859.75 2185.66C1856.77 2184.38 1853.67 2183.74 1850.47 2183.74C1847.16 2183.74 1844.01 2184.38 1841.02 2185.66C1838.14 2186.83 1835.58 2188.59 1833.34 2190.94C1831.1 2193.29 1829.34 2196.17 1828.06 2199.59C1826.77 2202.89 1826.13 2206.68 1826.13 2210.95C1826.13 2215.11 1826.77 2218.9 1828.06 2222.32C1829.34 2225.63 1831.1 2228.46 1833.34 2230.8C1835.58 2233.15 1838.14 2234.97 1841.02 2236.25C1844.01 2237.53 1847.16 2238.17 1850.47 2238.17C1853.67 2238.17 1856.77 2237.53 1859.75 2236.25C1862.74 2234.97 1865.36 2233.15 1867.6 2230.8C1869.84 2228.35 1871.6 2225.47 1872.88 2222.16C1874.27 2218.85 1874.96 2215.11 1874.96 2210.95ZM2001.27 2253.22H1981.9V2239.13C1978.8 2243.51 1974.91 2247.24 1970.21 2250.34C1965.62 2253.43 1959.91 2254.98 1953.08 2254.98C1948.06 2254.98 1943.21 2254.02 1938.51 2252.1C1933.81 2250.18 1929.65 2247.35 1926.02 2243.61C1922.39 2239.77 1919.46 2235.13 1917.22 2229.68C1914.98 2224.24 1913.86 2218 1913.86 2210.95C1913.86 2203.91 1914.92 2197.66 1917.06 2192.22C1919.3 2186.78 1922.23 2182.19 1925.86 2178.45C1929.49 2174.61 1933.65 2171.73 1938.35 2169.81C1943.15 2167.89 1948.06 2166.93 1953.08 2166.93C1960.02 2166.93 1965.78 2168.42 1970.37 2171.41C1974.96 2174.4 1978.8 2177.87 1981.9 2181.81V2136.35H2001.27V2253.22ZM1982.22 2210.95C1982.22 2206.79 1981.52 2203.05 1980.14 2199.75C1978.85 2196.44 1977.09 2193.61 1974.85 2191.26C1972.61 2188.81 1970 2186.94 1967.01 2185.66C1964.02 2184.38 1960.92 2183.74 1957.72 2183.74C1954.41 2183.74 1951.26 2184.38 1948.28 2185.66C1945.39 2186.83 1942.83 2188.59 1940.59 2190.94C1938.35 2193.29 1936.59 2196.17 1935.31 2199.59C1934.03 2202.89 1933.39 2206.68 1933.39 2210.95C1933.39 2215.11 1934.03 2218.9 1935.31 2222.32C1936.59 2225.63 1938.35 2228.46 1940.59 2230.8C1942.83 2233.15 1945.39 2234.97 1948.28 2236.25C1951.26 2237.53 1954.41 2238.17 1957.72 2238.17C1960.92 2238.17 1964.02 2237.53 1967.01 2236.25C1970 2234.97 1972.61 2233.15 1974.85 2230.8C1977.09 2228.35 1978.85 2225.47 1980.14 2222.16C1981.52 2218.85 1982.22 2215.11 1982.22 2210.95ZM2045.92 2253.22H2026.55V2136.35H2045.92V2253.22ZM2085.97 2217.84C2087.14 2224.77 2089.92 2230.11 2094.29 2233.85C2098.67 2237.47 2104.01 2239.29 2110.3 2239.29C2115.11 2239.29 2119.27 2238.44 2122.79 2236.73C2126.31 2235.02 2129.78 2232.51 2133.2 2229.2L2144.56 2239.29C2140.51 2244.09 2135.65 2247.93 2130 2250.82C2124.45 2253.7 2117.78 2255.14 2109.98 2255.14C2103.9 2255.14 2098.19 2254.07 2092.85 2251.94C2087.62 2249.8 2083.03 2246.81 2079.08 2242.97C2075.24 2239.13 2072.2 2234.54 2069.96 2229.2C2067.72 2223.76 2066.6 2217.73 2066.6 2211.11C2066.6 2205.03 2067.61 2199.32 2069.64 2193.98C2071.67 2188.64 2074.5 2184 2078.12 2180.05C2081.86 2176 2086.24 2172.8 2091.25 2170.45C2096.27 2168.1 2101.82 2166.93 2107.9 2166.93C2114.63 2166.93 2120.5 2168.15 2125.51 2170.61C2130.64 2173.06 2134.85 2176.37 2138.16 2180.53C2141.58 2184.7 2144.14 2189.55 2145.85 2195.1C2147.55 2200.65 2148.41 2206.47 2148.41 2212.55C2148.41 2213.41 2148.35 2214.26 2148.25 2215.11C2148.25 2215.97 2148.19 2216.88 2148.09 2217.84H2085.97ZM2085.81 2205.03H2129.2C2128.88 2201.93 2128.18 2199.05 2127.11 2196.38C2126.05 2193.61 2124.61 2191.26 2122.79 2189.34C2120.98 2187.31 2118.79 2185.71 2116.23 2184.54C2113.77 2183.36 2110.94 2182.77 2107.74 2182.77C2101.77 2182.77 2096.8 2184.86 2092.85 2189.02C2089.01 2193.07 2086.66 2198.41 2085.81 2205.03ZM2238.14 2181.81C2241.56 2177.33 2245.56 2173.76 2250.15 2171.09C2254.85 2168.31 2260.4 2166.93 2266.8 2166.93C2276.09 2166.93 2283.35 2169.75 2288.58 2175.41C2293.81 2180.96 2296.42 2188.91 2296.42 2199.26V2253.22H2277.05V2205.19C2277.05 2198.46 2275.55 2193.34 2272.57 2189.82C2269.58 2186.3 2265.36 2184.54 2259.92 2184.54C2254.58 2184.54 2250.21 2186.35 2246.79 2189.98C2243.48 2193.5 2241.83 2198.68 2241.83 2205.51V2253.22H2222.46V2205.03C2222.46 2198.41 2220.96 2193.34 2217.97 2189.82C2214.98 2186.3 2210.77 2184.54 2205.32 2184.54C2199.88 2184.54 2195.51 2186.4 2192.2 2190.14C2188.89 2193.87 2187.23 2199.05 2187.23 2205.67V2253.22H2167.86V2168.69H2187.23V2181.49C2188.62 2179.57 2190.12 2177.76 2191.72 2176.05C2193.32 2174.34 2195.13 2172.8 2197.16 2171.41C2199.29 2170.02 2201.64 2168.95 2204.2 2168.21C2206.87 2167.35 2209.81 2166.93 2213.01 2166.93C2219.09 2166.93 2224.22 2168.31 2228.38 2171.09C2232.65 2173.76 2235.9 2177.33 2238.14 2181.81ZM2334.71 2217.84C2335.89 2224.77 2338.66 2230.11 2343.04 2233.85C2347.42 2237.47 2352.75 2239.29 2359.05 2239.29C2363.85 2239.29 2368.02 2238.44 2371.54 2236.73C2375.06 2235.02 2378.53 2232.51 2381.94 2229.2L2393.31 2239.29C2389.25 2244.09 2384.4 2247.93 2378.74 2250.82C2373.19 2253.7 2366.52 2255.14 2358.73 2255.14C2352.65 2255.14 2346.94 2254.07 2341.6 2251.94C2336.37 2249.8 2331.78 2246.81 2327.83 2242.97C2323.99 2239.13 2320.95 2234.54 2318.71 2229.2C2316.46 2223.76 2315.34 2217.73 2315.34 2211.11C2315.34 2205.03 2316.36 2199.32 2318.38 2193.98C2320.41 2188.64 2323.24 2184 2326.87 2180.05C2330.61 2176 2334.98 2172.8 2340 2170.45C2345.01 2168.1 2350.56 2166.93 2356.65 2166.93C2363.37 2166.93 2369.24 2168.15 2374.26 2170.61C2379.38 2173.06 2383.6 2176.37 2386.91 2180.53C2390.32 2184.7 2392.88 2189.55 2394.59 2195.1C2396.3 2200.65 2397.15 2206.47 2397.15 2212.55C2397.15 2213.41 2397.1 2214.26 2396.99 2215.11C2396.99 2215.97 2396.94 2216.88 2396.83 2217.84H2334.71ZM2334.55 2205.03H2377.94C2377.62 2201.93 2376.93 2199.05 2375.86 2196.38C2374.79 2193.61 2373.35 2191.26 2371.54 2189.34C2369.72 2187.31 2367.53 2185.71 2364.97 2184.54C2362.52 2183.36 2359.69 2182.77 2356.49 2182.77C2350.51 2182.77 2345.55 2184.86 2341.6 2189.02C2337.76 2193.07 2335.41 2198.41 2334.55 2205.03ZM2435.98 2205.51V2253.22H2416.61V2168.69H2435.98V2181.81C2437.37 2179.79 2438.86 2177.92 2440.46 2176.21C2442.17 2174.4 2444.09 2172.8 2446.23 2171.41C2448.47 2170.02 2450.87 2168.95 2453.43 2168.21C2456.1 2167.35 2459.09 2166.93 2462.4 2166.93C2472 2166.93 2479.42 2169.86 2484.65 2175.73C2489.88 2181.6 2492.49 2189.5 2492.49 2199.42V2253.22H2473.12V2205.19C2473.12 2198.57 2471.52 2193.5 2468.32 2189.98C2465.22 2186.35 2460.79 2184.54 2455.03 2184.54C2449.37 2184.54 2444.78 2186.4 2441.26 2190.14C2437.74 2193.77 2435.98 2198.89 2435.98 2205.51Z" fill="#2D332F"/>
<path d="M4379.25 52.2294C4379.25 54.4708 4379.62 56.392 4380.37 57.9929C4381.12 59.5939 4382.45 61.0882 4384.37 62.4757C4386.4 63.8632 4389.12 65.144 4392.54 66.318C4396.06 67.4921 4400.49 68.7195 4405.83 70.0003C4411.7 71.4945 4416.87 73.1489 4421.35 74.9633C4425.94 76.7778 4429.73 79.0191 4432.72 81.6874C4435.71 84.249 4437.95 87.2909 4439.45 90.813C4441.05 94.2284 4441.85 98.2842 4441.85 102.98C4441.85 108.317 4440.83 113.067 4438.81 117.229C4436.88 121.392 4434.16 124.914 4430.64 127.796C4427.12 130.677 4422.9 132.865 4417.99 134.36C4413.08 135.854 4407.69 136.601 4401.82 136.601C4393.18 136.601 4384.91 135.16 4377.01 132.278C4369.11 129.29 4361.8 124.754 4355.07 118.67L4366.92 104.581C4372.36 109.278 4377.86 112.907 4383.41 115.468C4388.96 117.923 4395.26 119.15 4402.3 119.15C4408.39 119.15 4413.19 117.87 4416.71 115.308C4420.34 112.746 4422.16 109.278 4422.16 104.902C4422.16 102.874 4421.78 101.059 4421.03 99.4583C4420.39 97.8573 4419.11 96.4164 4417.19 95.1356C4415.38 93.7481 4412.82 92.4673 4409.51 91.2933C4406.31 90.1192 4402.09 88.8918 4396.86 87.611C4390.88 86.2235 4385.55 84.6759 4380.85 82.9682C4376.26 81.2605 4372.36 79.1259 4369.16 76.5643C4366.07 74.0027 4363.67 70.9075 4361.96 67.2786C4360.36 63.6497 4359.56 59.2204 4359.56 53.9905C4359.56 49.0808 4360.52 44.6515 4362.44 40.7024C4364.36 36.6466 4366.97 33.1778 4370.28 30.296C4373.7 27.4143 4377.75 25.2263 4382.45 23.732C4387.15 22.131 4392.27 21.3305 4397.82 21.3305C4406.04 21.3305 4413.4 22.558 4419.91 25.0128C4426.53 27.3609 4432.72 30.8297 4438.49 35.4192L4427.92 50.3083C4422.8 46.5726 4417.73 43.7442 4412.71 41.8231C4407.69 39.7952 4402.62 38.7812 4397.5 38.7812C4391.74 38.7812 4387.25 40.1154 4384.05 42.7837C4380.85 45.3452 4379.25 48.4938 4379.25 52.2294ZM4477.49 99.6184C4478.67 106.556 4481.44 111.893 4485.82 115.628C4490.19 119.257 4495.53 121.071 4501.83 121.071C4506.63 121.071 4510.79 120.218 4514.32 118.51C4517.84 116.802 4521.31 114.294 4524.72 110.985L4536.09 121.071C4532.03 125.874 4527.18 129.717 4521.52 132.599C4515.97 135.48 4509.3 136.921 4501.51 136.921C4495.42 136.921 4489.71 135.854 4484.38 133.719C4479.15 131.585 4474.56 128.596 4470.61 124.754C4466.77 120.911 4463.72 116.322 4461.48 110.985C4459.24 105.542 4458.12 99.5117 4458.12 92.8943C4458.12 86.8106 4459.13 81.1004 4461.16 75.7638C4463.19 70.4272 4466.02 65.7844 4469.65 61.8353C4473.38 57.7795 4477.76 54.5775 4482.78 52.2294C4487.79 49.8813 4493.34 48.7073 4499.43 48.7073C4506.15 48.7073 4512.02 49.9347 4517.04 52.3895C4522.16 54.8444 4526.38 58.153 4529.68 62.3156C4533.1 66.4781 4535.66 71.3344 4537.37 76.8845C4539.08 82.4346 4539.93 88.2514 4539.93 94.3352C4539.93 95.189 4539.88 96.0429 4539.77 96.8967C4539.77 97.7506 4539.72 98.6578 4539.61 99.6184H4477.49ZM4477.33 86.8106H4520.72C4520.4 83.7153 4519.71 80.8336 4518.64 78.1653C4517.57 75.3902 4516.13 73.0421 4514.32 71.121C4512.5 69.0931 4510.31 67.4921 4507.75 66.318C4505.3 65.144 4502.47 64.557 4499.27 64.557C4493.29 64.557 4488.33 66.6382 4484.38 70.8008C4480.53 74.8566 4478.19 80.1932 4477.33 86.8106ZM4633.03 121.071C4628.87 125.768 4624.12 129.61 4618.78 132.599C4613.45 135.48 4606.67 136.921 4598.45 136.921C4592.15 136.921 4586.34 135.8 4581 133.559C4575.66 131.211 4571.02 128.062 4567.07 124.113C4563.23 120.058 4560.19 115.415 4557.94 110.185C4555.81 104.848 4554.74 99.1381 4554.74 93.0544C4554.74 86.9707 4555.81 81.2605 4557.94 75.9239C4560.19 70.5873 4563.23 65.8911 4567.07 61.8353C4571.02 57.7795 4575.66 54.5775 4581 52.2294C4586.44 49.8813 4592.31 48.7073 4598.61 48.7073C4606.61 48.7073 4613.23 50.0414 4618.46 52.7097C4623.8 55.378 4628.44 58.9002 4632.39 63.2762L4620.38 76.2441C4617.39 73.1489 4614.19 70.6407 4610.78 68.7195C4607.47 66.6916 4603.36 65.6776 4598.45 65.6776C4594.93 65.6776 4591.67 66.4248 4588.68 67.919C4585.69 69.3065 4583.13 71.2277 4581 73.6825C4578.86 76.1374 4577.16 79.0191 4575.88 82.3278C4574.7 85.5298 4574.11 88.9986 4574.11 92.7342C4574.11 96.5765 4574.7 100.152 4575.88 103.461C4577.16 106.769 4578.92 109.651 4581.16 112.106C4583.4 114.561 4586.07 116.535 4589.16 118.03C4592.26 119.417 4595.67 120.111 4599.41 120.111C4604 120.111 4608 119.15 4611.42 117.229C4614.94 115.201 4618.25 112.64 4621.34 109.544L4633.03 121.071ZM4706.4 98.1775V50.4684H4725.77V135H4706.4V121.872C4703.63 125.928 4700.16 129.45 4696 132.438C4691.83 135.32 4686.5 136.761 4679.99 136.761C4670.38 136.761 4662.96 133.826 4657.73 127.956C4652.5 122.085 4649.89 114.187 4649.89 104.261V50.4684H4669.26V98.4977C4669.26 105.115 4670.81 110.238 4673.9 113.867C4677.1 117.389 4681.59 119.15 4687.35 119.15C4693.01 119.15 4697.6 117.336 4701.12 113.707C4704.64 109.971 4706.4 104.795 4706.4 98.1775ZM4769.5 102.82V135H4750.13V50.4684H4769.5V69.52C4772.17 63.1161 4775.96 57.993 4780.87 54.1506C4785.78 50.3083 4791.97 48.5472 4799.44 48.8674V69.3599H4798.32C4794.05 69.3599 4790.15 70.0537 4786.63 71.4412C4783.11 72.8287 4780.07 74.91 4777.5 77.685C4774.94 80.46 4772.97 83.9822 4771.58 88.2514C4770.19 92.414 4769.5 97.2703 4769.5 102.82ZM4837.39 37.5004H4816.58V19.0892H4837.39V37.5004ZM4836.75 135H4817.38V50.4684H4836.75V135ZM4885.44 67.1185V108.584C4885.44 112.319 4886.35 115.041 4888.17 116.749C4889.98 118.35 4892.54 119.15 4895.85 119.15C4900.01 119.15 4904.02 118.19 4907.86 116.269V132.118C4905.4 133.506 4902.79 134.573 4900.01 135.32C4897.24 136.067 4894.04 136.441 4890.41 136.441C4886.89 136.441 4883.63 136.014 4880.64 135.16C4877.65 134.306 4875.04 132.919 4872.8 130.998C4870.66 129.076 4869.01 126.568 4867.83 123.473C4866.66 120.271 4866.07 116.322 4866.07 111.626V67.1185H4855.35V50.4684H4866.07V27.2542H4885.44V50.4684H4908.18V67.1185H4885.44ZM5006.5 50.4684L4972.88 137.401C4971.18 141.777 4969.41 145.46 4967.6 148.448C4965.79 151.437 4963.76 153.838 4961.52 155.653C4959.27 157.574 4956.82 158.961 4954.15 159.815C4951.48 160.669 4948.44 161.096 4945.03 161.096C4940.97 161.096 4937.34 160.616 4934.14 159.655C4931.04 158.801 4928 157.574 4925.01 155.973L4931.58 141.564C4933.39 142.525 4935.21 143.272 4937.02 143.805C4938.94 144.446 4940.92 144.766 4942.94 144.766C4945.72 144.766 4948.01 144.072 4949.83 142.685C4951.64 141.297 4953.35 138.736 4954.95 135L4919.73 50.4684H4940.38L4964.4 113.227L4986.33 50.4684H5006.5ZM5170.85 117.069C5167.96 120.164 5164.92 122.939 5161.72 125.394C5158.62 127.742 5155.26 129.824 5151.63 131.638C5148 133.346 5144 134.626 5139.63 135.48C5135.36 136.441 5130.61 136.921 5125.38 136.921C5117.16 136.921 5109.58 135.427 5102.64 132.438C5095.71 129.45 5089.68 125.394 5084.55 120.271C5079.54 115.041 5075.59 108.904 5072.71 101.86C5069.82 94.8154 5068.38 87.2375 5068.38 79.1259C5068.38 71.121 5069.77 63.5964 5072.55 56.5521C5075.43 49.5078 5079.43 43.3707 5084.55 38.1408C5089.68 32.8042 5095.76 28.6417 5102.8 25.6532C5109.85 22.558 5117.64 21.0104 5126.18 21.0104C5131.3 21.0104 5135.94 21.4373 5140.11 22.2911C5144.38 23.145 5148.27 24.3724 5151.79 25.9734C5155.32 27.4676 5158.57 29.2821 5161.56 31.4167C5164.55 33.5514 5167.38 35.8995 5170.04 38.461L5157.4 53.0299C5152.91 48.8674 5148.16 45.5053 5143.15 42.9438C5138.13 40.3822 5132.42 39.1014 5126.02 39.1014C5120.68 39.1014 5115.72 40.1687 5111.13 42.3034C5106.65 44.3313 5102.75 47.1597 5099.44 50.7885C5096.13 54.3107 5093.57 58.4732 5091.76 63.2762C5089.94 68.0791 5089.04 73.2556 5089.04 78.8057C5089.04 84.3557 5089.94 89.5856 5091.76 94.4953C5093.57 99.2982 5096.13 103.514 5099.44 107.143C5102.75 110.772 5106.65 113.654 5111.13 115.788C5115.72 117.816 5120.68 118.83 5126.02 118.83C5132.85 118.83 5138.72 117.549 5143.63 114.988C5148.54 112.319 5153.39 108.744 5158.2 104.261L5170.85 117.069ZM5208.67 87.2909V135H5189.3V18.1286H5208.67V63.5964C5210.06 61.5685 5211.56 59.7007 5213.16 57.9929C5214.86 56.1785 5216.78 54.5775 5218.92 53.19C5221.16 51.8025 5223.56 50.7352 5226.12 49.9881C5228.79 49.1342 5231.78 48.7073 5235.09 48.7073C5244.7 48.7073 5252.11 51.6424 5257.34 57.5127C5262.57 63.3829 5265.19 71.2811 5265.19 81.2071V135H5245.82V86.9707C5245.82 80.3533 5244.22 75.2835 5241.01 71.7614C5237.92 68.1325 5233.49 66.318 5227.72 66.318C5222.07 66.318 5217.48 68.1858 5213.96 71.9215C5210.43 75.5503 5208.67 80.6735 5208.67 87.2909ZM5303.31 99.6184C5304.48 106.556 5307.26 111.893 5311.63 115.628C5316.01 119.257 5321.35 121.071 5327.64 121.071C5332.45 121.071 5336.61 120.218 5340.13 118.51C5343.65 116.802 5347.12 114.294 5350.54 110.985L5361.91 121.071C5357.85 125.874 5352.99 129.717 5347.34 132.599C5341.79 135.48 5335.12 136.921 5327.32 136.921C5321.24 136.921 5315.53 135.854 5310.19 133.719C5304.96 131.585 5300.37 128.596 5296.43 124.754C5292.58 120.911 5289.54 116.322 5287.3 110.985C5285.06 105.542 5283.94 99.5117 5283.94 92.8943C5283.94 86.8106 5284.95 81.1004 5286.98 75.7638C5289.01 70.4272 5291.84 65.7844 5295.47 61.8353C5299.2 57.7795 5303.58 54.5775 5308.59 52.2294C5313.61 49.8813 5319.16 48.7073 5325.24 48.7073C5331.97 48.7073 5337.84 49.9347 5342.85 52.3895C5347.98 54.8444 5352.19 58.153 5355.5 62.3156C5358.92 66.4781 5361.48 71.3344 5363.19 76.8845C5364.89 82.4346 5365.75 88.2514 5365.75 94.3352C5365.75 95.189 5365.69 96.0429 5365.59 96.8967C5365.59 97.7506 5365.53 98.6578 5365.43 99.6184H5303.31ZM5303.15 86.8106H5346.54C5346.22 83.7153 5345.52 80.8336 5344.46 78.1653C5343.39 75.3902 5341.95 73.0421 5340.13 71.121C5338.32 69.0931 5336.13 67.4921 5333.57 66.318C5331.11 65.144 5328.29 64.557 5325.08 64.557C5319.11 64.557 5314.14 66.6382 5310.19 70.8008C5306.35 74.8566 5304 80.1932 5303.15 86.8106ZM5458.85 121.071C5454.68 125.768 5449.94 129.61 5444.6 132.599C5439.26 135.48 5432.48 136.921 5424.27 136.921C5417.97 136.921 5412.15 135.8 5406.82 133.559C5401.48 131.211 5396.84 128.062 5392.89 124.113C5389.04 120.058 5386 115.415 5383.76 110.185C5381.63 104.848 5380.56 99.1381 5380.56 93.0544C5380.56 86.9707 5381.63 81.2605 5383.76 75.9239C5386 70.5873 5389.04 65.8911 5392.89 61.8353C5396.84 57.7795 5401.48 54.5775 5406.82 52.2294C5412.26 49.8813 5418.13 48.7073 5424.43 48.7073C5432.43 48.7073 5439.05 50.0414 5444.28 52.7097C5449.62 55.378 5454.26 58.9002 5458.21 63.2762L5446.2 76.2441C5443.21 73.1489 5440.01 70.6407 5436.59 68.7195C5433.29 66.6916 5429.18 65.6776 5424.27 65.6776C5420.74 65.6776 5417.49 66.4248 5414.5 67.919C5411.51 69.3065 5408.95 71.2277 5406.82 73.6825C5404.68 76.1374 5402.97 79.0191 5401.69 82.3278C5400.52 85.5298 5399.93 88.9986 5399.93 92.7342C5399.93 96.5765 5400.52 100.152 5401.69 103.461C5402.97 106.769 5404.73 109.651 5406.98 112.106C5409.22 114.561 5411.89 116.535 5414.98 118.03C5418.08 119.417 5421.49 120.111 5425.23 120.111C5429.82 120.111 5433.82 119.15 5437.23 117.229C5440.76 115.201 5444.06 112.64 5447.16 109.544L5458.85 121.071ZM5521.01 84.8894L5555.75 135H5533.34L5507.88 98.4977L5496.04 110.825V135H5476.66V18.1286H5496.04V87.9312L5531.1 50.4684H5554.63L5521.01 84.8894ZM4585.83 304.835L4571.26 315.241L4556.37 300.032C4551.57 304.515 4546.34 308.09 4540.69 310.759C4535.03 313.32 4528.78 314.601 4521.95 314.601C4516.72 314.601 4511.87 313.854 4507.38 312.36C4503.01 310.865 4499.17 308.731 4495.86 305.956C4492.66 303.074 4490.09 299.659 4488.17 295.709C4486.36 291.76 4485.45 287.331 4485.45 282.421C4485.45 275.057 4487.48 268.813 4491.54 263.69C4495.7 258.46 4501.62 254.191 4509.31 250.882C4506.1 246.72 4503.76 242.824 4502.26 239.195C4500.77 235.459 4500.02 231.51 4500.02 227.348C4500.02 223.505 4500.77 219.876 4502.26 216.461C4503.76 213.046 4505.89 210.057 4508.67 207.496C4511.44 204.934 4514.8 202.906 4518.75 201.412C4522.7 199.811 4527.18 199.01 4532.2 199.01C4536.68 199.01 4540.74 199.704 4544.37 201.092C4548 202.479 4551.09 204.4 4553.65 206.855C4556.32 209.31 4558.35 212.192 4559.74 215.5C4561.23 218.809 4561.98 222.385 4561.98 226.227C4561.98 233.698 4559.74 239.782 4555.25 244.478C4550.77 249.068 4544.79 252.75 4537.32 255.525L4556.53 275.057C4558.67 271.855 4560.75 268.439 4562.78 264.811C4564.81 261.182 4566.73 257.393 4568.54 253.444L4583.43 261.288C4581.19 265.771 4578.79 270.201 4576.23 274.577C4573.77 278.846 4571.1 282.955 4568.22 286.904L4585.83 304.835ZM4544.53 227.348C4544.53 223.399 4543.3 220.303 4540.85 218.062C4538.5 215.714 4535.46 214.54 4531.72 214.54C4527.66 214.54 4524.41 215.821 4521.95 218.382C4519.61 220.837 4518.43 224.092 4518.43 228.148C4518.43 231.03 4519.07 233.698 4520.35 236.153C4521.63 238.608 4523.82 241.543 4526.92 244.958C4532.68 242.824 4537.06 240.422 4540.04 237.754C4543.03 234.979 4544.53 231.51 4544.53 227.348ZM4545.17 288.505L4520.19 263.049C4514.96 265.291 4511.17 268.066 4508.83 271.375C4506.48 274.577 4505.3 278.045 4505.3 281.781C4505.3 286.584 4507.06 290.533 4510.59 293.628C4514.11 296.723 4518.59 298.271 4524.04 298.271C4527.88 298.271 4531.56 297.417 4535.08 295.709C4538.6 294.002 4541.97 291.6 4545.17 288.505ZM4739.86 238.555C4739.86 244.852 4738.69 250.402 4736.34 255.205C4733.99 260.008 4730.79 264.01 4726.73 267.212C4722.68 270.414 4717.93 272.869 4712.49 274.577C4707.04 276.178 4701.22 276.978 4695.03 276.978H4672.78V313H4653.09V200.932H4697.28C4703.79 200.932 4709.66 201.839 4714.89 203.653C4720.22 205.361 4724.71 207.869 4728.33 211.178C4732.07 214.486 4734.9 218.436 4736.82 223.025C4738.85 227.614 4739.86 232.791 4739.86 238.555ZM4719.85 239.035C4719.85 232.311 4717.66 227.294 4713.29 223.986C4708.91 220.57 4703.04 218.862 4695.67 218.862H4672.78V259.207H4695.67C4703.15 259.207 4709.02 257.393 4713.29 253.764C4717.66 250.028 4719.85 245.119 4719.85 239.035ZM4827.15 313H4807.94V302.594C4805.05 306.009 4801.37 308.891 4796.89 311.239C4792.41 313.587 4786.96 314.761 4780.56 314.761C4776.5 314.761 4772.66 314.174 4769.03 313C4765.4 311.933 4762.2 310.332 4759.43 308.197C4756.76 305.956 4754.57 303.234 4752.86 300.032C4751.26 296.723 4750.46 292.934 4750.46 288.665V288.345C4750.46 283.755 4751.31 279.753 4753.02 276.338C4754.73 272.922 4757.08 270.094 4760.07 267.852C4763.16 265.611 4766.79 263.957 4770.95 262.889C4775.22 261.715 4779.81 261.128 4784.72 261.128C4789.84 261.128 4794.17 261.449 4797.69 262.089C4801.32 262.729 4804.79 263.583 4808.1 264.65V262.569C4808.1 256.699 4806.28 252.216 4802.65 249.121C4799.13 246.026 4794.01 244.478 4787.28 244.478C4782.48 244.478 4778.21 244.958 4774.48 245.919C4770.74 246.88 4766.95 248.16 4763.11 249.761L4757.83 234.232C4762.52 232.097 4767.32 230.39 4772.23 229.109C4777.14 227.828 4783.07 227.188 4790.01 227.188C4802.6 227.188 4811.94 230.336 4818.02 236.633C4824.11 242.824 4827.15 251.576 4827.15 262.889V313ZM4808.42 282.421V277.138C4805.96 276.178 4803.03 275.377 4799.61 274.737C4796.3 274.096 4792.78 273.776 4789.04 273.776C4782.96 273.776 4778.21 274.95 4774.8 277.298C4771.38 279.646 4769.67 283.008 4769.67 287.384V287.705C4769.67 291.76 4771.22 294.856 4774.32 296.99C4777.52 299.125 4781.41 300.192 4786 300.192C4789.2 300.192 4792.14 299.765 4794.81 298.911C4797.58 298.058 4799.98 296.883 4802.01 295.389C4804.04 293.788 4805.59 291.92 4806.66 289.786C4807.83 287.544 4808.42 285.09 4808.42 282.421ZM4923.83 299.071C4919.67 303.768 4914.92 307.61 4909.58 310.599C4904.25 313.48 4897.47 314.921 4889.25 314.921C4882.95 314.921 4877.14 313.8 4871.8 311.559C4866.46 309.211 4861.82 306.062 4857.87 302.113C4854.03 298.058 4850.99 293.415 4848.75 288.185C4846.61 282.848 4845.55 277.138 4845.55 271.054C4845.55 264.971 4846.61 259.261 4848.75 253.924C4850.99 248.587 4854.03 243.891 4857.87 239.835C4861.82 235.779 4866.46 232.578 4871.8 230.229C4877.24 227.881 4883.11 226.707 4889.41 226.707C4897.42 226.707 4904.03 228.041 4909.26 230.71C4914.6 233.378 4919.24 236.9 4923.19 241.276L4911.19 254.244C4908.2 251.149 4904.99 248.641 4901.58 246.72C4898.27 244.692 4894.16 243.678 4889.25 243.678C4885.73 243.678 4882.47 244.425 4879.49 245.919C4876.5 247.307 4873.94 249.228 4871.8 251.683C4869.67 254.137 4867.96 257.019 4866.68 260.328C4865.5 263.53 4864.92 266.999 4864.92 270.734C4864.92 274.577 4865.5 278.152 4866.68 281.461C4867.96 284.769 4869.72 287.651 4871.96 290.106C4874.2 292.561 4876.87 294.535 4879.97 296.03C4883.06 297.417 4886.48 298.111 4890.21 298.111C4894.8 298.111 4898.8 297.15 4902.22 295.229C4905.74 293.201 4909.05 290.64 4912.15 287.544L4923.83 299.071ZM4986 262.889L5020.74 313H4998.32L4972.87 276.498L4961.02 288.825V313H4941.65V196.129H4961.02V265.931L4996.08 228.468H5019.62L4986 262.889ZM5104.19 313H5084.98V302.594C5082.1 306.009 5078.42 308.891 5073.93 311.239C5069.45 313.587 5064.01 314.761 5057.6 314.761C5053.55 314.761 5049.71 314.174 5046.08 313C5042.45 311.933 5039.25 310.332 5036.47 308.197C5033.8 305.956 5031.61 303.234 5029.91 300.032C5028.31 296.723 5027.51 292.934 5027.51 288.665V288.345C5027.51 283.755 5028.36 279.753 5030.07 276.338C5031.77 272.922 5034.12 270.094 5037.11 267.852C5040.21 265.611 5043.84 263.957 5048 262.889C5052.27 261.715 5056.86 261.128 5061.77 261.128C5066.89 261.128 5071.21 261.449 5074.73 262.089C5078.36 262.729 5081.83 263.583 5085.14 264.65V262.569C5085.14 256.699 5083.33 252.216 5079.7 249.121C5076.17 246.026 5071.05 244.478 5064.33 244.478C5059.52 244.478 5055.26 244.958 5051.52 245.919C5047.78 246.88 5044 248.16 5040.15 249.761L5034.87 234.232C5039.57 232.097 5044.37 230.39 5049.28 229.109C5054.19 227.828 5060.11 227.188 5067.05 227.188C5079.64 227.188 5088.98 230.336 5095.07 236.633C5101.15 242.824 5104.19 251.576 5104.19 262.889V313ZM5085.46 282.421V277.138C5083.01 276.178 5080.07 275.377 5076.66 274.737C5073.35 274.096 5069.82 273.776 5066.09 273.776C5060.01 273.776 5055.26 274.95 5051.84 277.298C5048.42 279.646 5046.72 283.008 5046.72 287.384V287.705C5046.72 291.76 5048.26 294.856 5051.36 296.99C5054.56 299.125 5058.46 300.192 5063.05 300.192C5066.25 300.192 5069.18 299.765 5071.85 298.911C5074.63 298.058 5077.03 296.883 5079.06 295.389C5081.08 293.788 5082.63 291.92 5083.7 289.786C5084.87 287.544 5085.46 285.09 5085.46 282.421ZM5210.32 295.709C5210.32 310.652 5206.37 321.592 5198.48 328.529C5190.58 335.467 5179.37 338.936 5164.86 338.936C5150.77 338.936 5138.17 335.574 5127.07 328.85L5134.28 314.281C5138.76 317.056 5143.46 319.244 5148.37 320.845C5153.27 322.446 5158.61 323.246 5164.38 323.246C5173.02 323.246 5179.64 321.058 5184.23 316.682C5188.82 312.306 5191.11 305.849 5191.11 297.31V290.746C5187.59 295.336 5183.48 299.071 5178.78 301.953C5174.09 304.835 5168.27 306.276 5161.33 306.276C5156.32 306.276 5151.51 305.422 5146.92 303.714C5142.33 301.9 5138.23 299.285 5134.6 295.87C5131.07 292.454 5128.25 288.292 5126.11 283.382C5123.98 278.472 5122.91 272.869 5122.91 266.572C5122.91 260.274 5123.98 254.671 5126.11 249.761C5128.25 244.852 5131.07 240.689 5134.6 237.274C5138.23 233.858 5142.33 231.243 5146.92 229.429C5151.62 227.614 5156.42 226.707 5161.33 226.707C5168.48 226.707 5174.35 228.148 5178.94 231.03C5183.64 233.805 5187.64 237.167 5190.95 241.116V228.468H5210.32V295.709ZM5191.27 266.572C5191.27 263.049 5190.58 259.848 5189.19 256.966C5187.91 253.977 5186.15 251.469 5183.91 249.441C5181.67 247.413 5179 245.866 5175.9 244.798C5172.91 243.624 5169.76 243.037 5166.46 243.037C5163.04 243.037 5159.89 243.624 5157.01 244.798C5154.13 245.866 5151.57 247.413 5149.33 249.441C5147.19 251.469 5145.48 253.924 5144.2 256.806C5143.03 259.687 5142.44 262.889 5142.44 266.412C5142.44 269.934 5143.08 273.136 5144.36 276.017C5145.64 278.899 5147.35 281.407 5149.49 283.542C5151.62 285.57 5154.13 287.171 5157.01 288.345C5160 289.412 5163.15 289.946 5166.46 289.946C5169.76 289.946 5172.91 289.412 5175.9 288.345C5179 287.171 5181.67 285.57 5183.91 283.542C5186.15 281.407 5187.91 278.953 5189.19 276.178C5190.58 273.296 5191.27 270.094 5191.27 266.572ZM5255.62 215.5H5234.81V197.089H5255.62V215.5ZM5254.98 313H5235.61V228.468H5254.98V313ZM5299.67 265.291V313H5280.29V228.468H5299.67V241.596C5301.05 239.568 5302.55 237.701 5304.15 235.993C5305.86 234.179 5307.78 232.578 5309.91 231.19C5312.15 229.802 5314.56 228.735 5317.12 227.988C5319.79 227.134 5322.77 226.707 5326.08 226.707C5335.69 226.707 5343.11 229.642 5348.34 235.513C5353.57 241.383 5356.18 249.281 5356.18 259.207V313H5336.81V264.971C5336.81 258.353 5335.21 253.284 5332.01 249.761C5328.91 246.132 5324.48 244.318 5318.72 244.318C5313.06 244.318 5308.47 246.186 5304.95 249.921C5301.43 253.55 5299.67 258.673 5299.67 265.291ZM5462.66 295.709C5462.66 310.652 5458.72 321.592 5450.82 328.529C5442.92 335.467 5431.71 338.936 5417.2 338.936C5403.11 338.936 5390.51 335.574 5379.41 328.85L5386.62 314.281C5391.1 317.056 5395.8 319.244 5400.71 320.845C5405.62 322.446 5410.95 323.246 5416.72 323.246C5425.36 323.246 5431.98 321.058 5436.57 316.682C5441.16 312.306 5443.45 305.849 5443.45 297.31V290.746C5439.93 295.336 5435.82 299.071 5431.13 301.953C5426.43 304.835 5420.61 306.276 5413.67 306.276C5408.66 306.276 5403.86 305.422 5399.27 303.714C5394.68 301.9 5390.57 299.285 5386.94 295.87C5383.42 292.454 5380.59 288.292 5378.45 283.382C5376.32 278.472 5375.25 272.869 5375.25 266.572C5375.25 260.274 5376.32 254.671 5378.45 249.761C5380.59 244.852 5383.42 240.689 5386.94 237.274C5390.57 233.858 5394.68 231.243 5399.27 229.429C5403.96 227.614 5408.77 226.707 5413.67 226.707C5420.83 226.707 5426.7 228.148 5431.29 231.03C5435.98 233.805 5439.98 237.167 5443.29 241.116V228.468H5462.66V295.709ZM5443.61 266.572C5443.61 263.049 5442.92 259.848 5441.53 256.966C5440.25 253.977 5438.49 251.469 5436.25 249.441C5434.01 247.413 5431.34 245.866 5428.24 244.798C5425.26 243.624 5422.11 243.037 5418.8 243.037C5415.38 243.037 5412.23 243.624 5409.35 244.798C5406.47 245.866 5403.91 247.413 5401.67 249.441C5399.53 251.469 5397.83 253.924 5396.54 256.806C5395.37 259.687 5394.78 262.889 5394.78 266.412C5394.78 269.934 5395.42 273.136 5396.7 276.017C5397.99 278.899 5399.69 281.407 5401.83 283.542C5403.96 285.57 5406.47 287.171 5409.35 288.345C5412.34 289.412 5415.49 289.946 5418.8 289.946C5422.11 289.946 5425.26 289.412 5428.24 288.345C5431.34 287.171 5434.01 285.57 5436.25 283.542C5438.49 281.407 5440.25 278.953 5441.53 276.178C5442.92 273.296 5443.61 270.094 5443.61 266.572Z" fill="#2D332F"/>
<path d="M7899.9 2086.19C7899.9 2094.08 7898.46 2101.5 7895.58 2108.44C7892.7 2115.27 7888.59 2121.19 7883.25 2126.21C7878.02 2131.23 7871.72 2135.18 7864.36 2138.06C7857.1 2140.94 7849.1 2142.38 7840.34 2142.38H7798.56V2030.31H7840.34C7849.1 2030.31 7857.1 2031.75 7864.36 2034.64C7871.72 2037.41 7878.02 2041.31 7883.25 2046.32C7888.59 2051.34 7892.7 2057.26 7895.58 2064.09C7898.46 2070.92 7899.9 2078.29 7899.9 2086.19ZM7879.25 2086.51C7879.25 2080.96 7878.29 2075.89 7876.37 2071.3C7874.55 2066.6 7871.94 2062.55 7868.52 2059.13C7865.21 2055.71 7861.16 2053.05 7856.35 2051.13C7851.55 2049.2 7846.21 2048.24 7840.34 2048.24H7818.25V2124.45H7840.34C7846.21 2124.45 7851.55 2123.54 7856.35 2121.73C7861.16 2119.81 7865.21 2117.19 7868.52 2113.88C7871.94 2110.47 7874.55 2106.47 7876.37 2101.88C7878.29 2097.18 7879.25 2092.06 7879.25 2086.51ZM7942.68 2044.88H7921.87V2026.47H7942.68V2044.88ZM7942.04 2142.38H7922.67V2057.85H7942.04V2142.38ZM8027.72 2117.41C8027.72 2121.89 8026.92 2125.78 8025.31 2129.09C8023.71 2132.4 8021.47 2135.18 8018.59 2137.42C8015.82 2139.55 8012.51 2141.21 8008.66 2142.38C8004.82 2143.45 8000.71 2143.98 7996.34 2143.98C7990.25 2143.98 7984.06 2142.91 7977.77 2140.78C7971.58 2138.65 7965.81 2135.5 7960.48 2131.33L7969.12 2118.21C7973.71 2121.62 7978.35 2124.24 7983.05 2126.05C7987.85 2127.76 7992.44 2128.61 7996.82 2128.61C8000.98 2128.61 8004.18 2127.81 8006.42 2126.21C8008.77 2124.5 8009.95 2122.26 8009.95 2119.49V2119.17C8009.95 2117.57 8009.41 2116.18 8008.34 2115C8007.38 2113.83 8006 2112.82 8004.18 2111.96C8002.47 2111 8000.45 2110.2 7998.1 2109.56C7995.86 2108.81 7993.51 2108.07 7991.05 2107.32C7987.96 2106.36 7984.81 2105.29 7981.61 2104.12C7978.51 2102.94 7975.68 2101.45 7973.12 2099.63C7970.67 2097.71 7968.64 2095.42 7967.04 2092.75C7965.44 2089.98 7964.64 2086.56 7964.64 2082.5V2082.18C7964.64 2078.24 7965.38 2074.66 7966.88 2071.46C7968.48 2068.26 7970.61 2065.53 7973.28 2063.29C7976.06 2061.05 7979.26 2059.34 7982.89 2058.17C7986.62 2057 7990.57 2056.41 7994.74 2056.41C8000.07 2056.41 8005.46 2057.26 8010.91 2058.97C8016.35 2060.68 8021.31 2063.03 8025.8 2066.01L8018.11 2079.78C8014.05 2077.33 8009.95 2075.41 8005.78 2074.02C8001.62 2072.52 7997.78 2071.78 7994.26 2071.78C7990.52 2071.78 7987.59 2072.58 7985.45 2074.18C7983.42 2075.78 7982.41 2077.81 7982.41 2080.26V2080.58C7982.41 2082.08 7982.94 2083.41 7984.01 2084.59C7985.08 2085.65 7986.46 2086.67 7988.17 2087.63C7989.99 2088.48 7992.01 2089.34 7994.26 2090.19C7996.6 2090.94 7999.01 2091.68 8001.46 2092.43C8004.56 2093.39 8007.65 2094.51 8010.75 2095.79C8013.84 2097.07 8016.62 2098.67 8019.07 2100.6C8021.63 2102.41 8023.71 2104.65 8025.31 2107.32C8026.92 2109.99 8027.72 2113.24 8027.72 2117.09V2117.41ZM8134.82 2100.12C8134.82 2107.16 8133.7 2113.4 8131.46 2118.85C8129.32 2124.29 8126.39 2128.93 8122.65 2132.77C8119.03 2136.51 8114.81 2139.34 8110.01 2141.26C8105.31 2143.18 8100.45 2144.14 8095.44 2144.14C8088.5 2144.14 8082.74 2142.65 8078.15 2139.66C8073.56 2136.67 8069.77 2133.2 8066.78 2129.25V2168H8047.41V2057.85H8066.78V2071.94C8069.88 2067.46 8073.72 2063.72 8078.31 2060.73C8082.9 2057.64 8088.61 2056.09 8095.44 2056.09C8100.45 2056.09 8105.31 2057.05 8110.01 2058.97C8114.7 2060.89 8118.87 2063.77 8122.49 2067.62C8126.23 2071.35 8129.22 2075.94 8131.46 2081.38C8133.7 2086.83 8134.82 2093.07 8134.82 2100.12ZM8115.13 2100.12C8115.13 2095.95 8114.49 2092.22 8113.21 2088.91C8111.93 2085.49 8110.17 2082.61 8107.93 2080.26C8105.79 2077.91 8103.23 2076.1 8100.24 2074.82C8097.36 2073.54 8094.26 2072.9 8090.95 2072.9C8087.65 2072.9 8084.5 2073.54 8081.51 2074.82C8078.52 2076.1 8075.91 2077.97 8073.66 2080.42C8071.42 2082.77 8069.61 2085.6 8068.22 2088.91C8066.94 2092.22 8066.3 2095.95 8066.3 2100.12C8066.3 2104.28 8066.94 2108.01 8068.22 2111.32C8069.61 2114.63 8071.42 2117.51 8073.66 2119.97C8075.91 2122.32 8078.52 2124.13 8081.51 2125.41C8084.5 2126.69 8087.65 2127.33 8090.95 2127.33C8094.26 2127.33 8097.36 2126.69 8100.24 2125.41C8103.23 2124.13 8105.79 2122.32 8107.93 2119.97C8110.17 2117.62 8111.93 2114.79 8113.21 2111.48C8114.49 2108.07 8115.13 2104.28 8115.13 2100.12ZM8225.58 2142.38H8206.37V2131.97C8203.49 2135.39 8199.81 2138.27 8195.33 2140.62C8190.84 2142.97 8185.4 2144.14 8179 2144.14C8174.94 2144.14 8171.1 2143.55 8167.47 2142.38C8163.84 2141.31 8160.64 2139.71 8157.86 2137.58C8155.19 2135.34 8153.01 2132.61 8151.3 2129.41C8149.7 2126.1 8148.9 2122.32 8148.9 2118.05V2117.73C8148.9 2113.14 8149.75 2109.13 8151.46 2105.72C8153.17 2102.3 8155.52 2099.47 8158.5 2097.23C8161.6 2094.99 8165.23 2093.34 8169.39 2092.27C8173.66 2091.1 8178.25 2090.51 8183.16 2090.51C8188.28 2090.51 8192.6 2090.83 8196.13 2091.47C8199.76 2092.11 8203.22 2092.96 8206.53 2094.03V2091.95C8206.53 2086.08 8204.72 2081.6 8201.09 2078.5C8197.57 2075.41 8192.44 2073.86 8185.72 2073.86C8180.92 2073.86 8176.65 2074.34 8172.91 2075.3C8169.18 2076.26 8165.39 2077.54 8161.55 2079.14L8156.26 2063.61C8160.96 2061.48 8165.76 2059.77 8170.67 2058.49C8175.58 2057.21 8181.5 2056.57 8188.44 2056.57C8201.04 2056.57 8210.38 2059.72 8216.46 2066.01C8222.54 2072.2 8225.58 2080.96 8225.58 2092.27V2142.38ZM8206.85 2111.8V2106.52C8204.4 2105.56 8201.46 2104.76 8198.05 2104.12C8194.74 2103.48 8191.22 2103.16 8187.48 2103.16C8181.4 2103.16 8176.65 2104.33 8173.23 2106.68C8169.82 2109.03 8168.11 2112.39 8168.11 2116.77V2117.09C8168.11 2121.14 8169.66 2124.24 8172.75 2126.37C8175.95 2128.51 8179.85 2129.57 8184.44 2129.57C8187.64 2129.57 8190.58 2129.15 8193.24 2128.29C8196.02 2127.44 8198.42 2126.26 8200.45 2124.77C8202.48 2123.17 8204.02 2121.3 8205.09 2119.17C8206.27 2116.93 8206.85 2114.47 8206.85 2111.8ZM8271.22 2074.5V2115.96C8271.22 2119.7 8272.12 2122.42 8273.94 2124.13C8275.75 2125.73 8278.32 2126.53 8281.62 2126.53C8285.79 2126.53 8289.79 2125.57 8293.63 2123.65V2139.5C8291.18 2140.89 8288.56 2141.95 8285.79 2142.7C8283.01 2143.45 8279.81 2143.82 8276.18 2143.82C8272.66 2143.82 8269.4 2143.39 8266.41 2142.54C8263.43 2141.69 8260.81 2140.3 8258.57 2138.38C8256.44 2136.46 8254.78 2133.95 8253.61 2130.85C8252.43 2127.65 8251.85 2123.7 8251.85 2119.01V2074.5H8241.12V2057.85H8251.85V2034.64H8271.22V2057.85H8293.95V2074.5H8271.22ZM8384.81 2128.45C8380.65 2133.15 8375.9 2136.99 8370.56 2139.98C8365.22 2142.86 8358.45 2144.3 8350.23 2144.3C8343.93 2144.3 8338.11 2143.18 8332.78 2140.94C8327.44 2138.59 8322.8 2135.44 8318.85 2131.49C8315.01 2127.44 8311.96 2122.8 8309.72 2117.57C8307.59 2112.23 8306.52 2106.52 8306.52 2100.44C8306.52 2094.35 8307.59 2088.64 8309.72 2083.3C8311.96 2077.97 8315.01 2073.27 8318.85 2069.22C8322.8 2065.16 8327.44 2061.96 8332.78 2059.61C8338.22 2057.26 8344.09 2056.09 8350.39 2056.09C8358.39 2056.09 8365.01 2057.42 8370.24 2060.09C8375.58 2062.76 8380.22 2066.28 8384.17 2070.66L8372.16 2083.62C8369.17 2080.53 8365.97 2078.02 8362.55 2076.1C8359.25 2074.07 8355.14 2073.06 8350.23 2073.06C8346.7 2073.06 8343.45 2073.81 8340.46 2075.3C8337.47 2076.69 8334.91 2078.61 8332.78 2081.06C8330.64 2083.52 8328.93 2086.4 8327.65 2089.71C8326.48 2092.91 8325.89 2096.38 8325.89 2100.12C8325.89 2103.96 8326.48 2107.53 8327.65 2110.84C8328.93 2114.15 8330.7 2117.03 8332.94 2119.49C8335.18 2121.94 8337.85 2123.92 8340.94 2125.41C8344.04 2126.8 8347.45 2127.49 8351.19 2127.49C8355.78 2127.49 8359.78 2126.53 8363.19 2124.61C8366.72 2122.58 8370.03 2120.02 8373.12 2116.93L8384.81 2128.45ZM8422 2094.67V2142.38H8402.63V2025.51H8422V2070.98C8423.38 2068.95 8424.88 2067.08 8426.48 2065.37C8428.19 2063.56 8430.11 2061.96 8432.24 2060.57C8434.48 2059.18 8436.89 2058.12 8439.45 2057.37C8442.12 2056.52 8445.1 2056.09 8448.41 2056.09C8458.02 2056.09 8465.44 2059.02 8470.67 2064.89C8475.9 2070.76 8478.51 2078.66 8478.51 2088.59V2142.38H8459.14V2094.35C8459.14 2087.73 8457.54 2082.66 8454.34 2079.14C8451.24 2075.51 8446.81 2073.7 8441.05 2073.7C8435.39 2073.7 8430.8 2075.57 8427.28 2079.3C8423.76 2082.93 8422 2088.05 8422 2094.67ZM8516.63 2107C8517.81 2113.94 8520.58 2119.27 8524.96 2123.01C8529.33 2126.64 8534.67 2128.45 8540.97 2128.45C8545.77 2128.45 8549.93 2127.6 8553.46 2125.89C8556.98 2124.18 8560.45 2121.67 8563.86 2118.37L8575.23 2128.45C8571.17 2133.26 8566.32 2137.1 8560.66 2139.98C8555.11 2142.86 8548.44 2144.3 8540.65 2144.3C8534.56 2144.3 8528.85 2143.23 8523.52 2141.1C8518.29 2138.97 8513.7 2135.98 8509.75 2132.13C8505.91 2128.29 8502.87 2123.7 8500.62 2118.37C8498.38 2112.92 8497.26 2106.89 8497.26 2100.28C8497.26 2094.19 8498.28 2088.48 8500.3 2083.14C8502.33 2077.81 8505.16 2073.17 8508.79 2069.22C8512.52 2065.16 8516.9 2061.96 8521.92 2059.61C8526.93 2057.26 8532.48 2056.09 8538.57 2056.09C8545.29 2056.09 8551.16 2057.32 8556.18 2059.77C8561.3 2062.23 8565.52 2065.53 8568.83 2069.7C8572.24 2073.86 8574.8 2078.72 8576.51 2084.27C8578.22 2089.82 8579.07 2095.63 8579.07 2101.72C8579.07 2102.57 8579.02 2103.42 8578.91 2104.28C8578.91 2105.13 8578.86 2106.04 8578.75 2107H8516.63ZM8516.47 2094.19H8559.86C8559.54 2091.1 8558.85 2088.21 8557.78 2085.55C8556.71 2082.77 8555.27 2080.42 8553.46 2078.5C8551.64 2076.47 8549.45 2074.87 8546.89 2073.7C8544.44 2072.52 8541.61 2071.94 8538.41 2071.94C8532.43 2071.94 8527.47 2074.02 8523.52 2078.18C8519.68 2082.24 8517.33 2087.57 8516.47 2094.19ZM8681.62 2142.38H8662.25V2128.29C8659.15 2132.67 8655.25 2136.4 8650.56 2139.5C8645.97 2142.59 8640.26 2144.14 8633.43 2144.14C8628.41 2144.14 8623.55 2143.18 8618.86 2141.26C8614.16 2139.34 8610 2136.51 8606.37 2132.77C8602.74 2128.93 8599.81 2124.29 8597.57 2118.85C8595.32 2113.4 8594.2 2107.16 8594.2 2100.12C8594.2 2093.07 8595.27 2086.83 8597.41 2081.38C8599.65 2075.94 8602.58 2071.35 8606.21 2067.62C8609.84 2063.77 8614 2060.89 8618.7 2058.97C8623.5 2057.05 8628.41 2056.09 8633.43 2056.09C8640.37 2056.09 8646.13 2057.58 8650.72 2060.57C8655.31 2063.56 8659.15 2067.03 8662.25 2070.98V2025.51H8681.62V2142.38ZM8662.57 2100.12C8662.57 2095.95 8661.87 2092.22 8660.48 2088.91C8659.2 2085.6 8657.44 2082.77 8655.2 2080.42C8652.96 2077.97 8650.34 2076.1 8647.36 2074.82C8644.37 2073.54 8641.27 2072.9 8638.07 2072.9C8634.76 2072.9 8631.61 2073.54 8628.62 2074.82C8625.74 2075.99 8623.18 2077.75 8620.94 2080.1C8618.7 2082.45 8616.94 2085.33 8615.66 2088.75C8614.38 2092.06 8613.74 2095.85 8613.74 2100.12C8613.74 2104.28 8614.38 2108.07 8615.66 2111.48C8616.94 2114.79 8618.7 2117.62 8620.94 2119.97C8623.18 2122.32 8625.74 2124.13 8628.62 2125.41C8631.61 2126.69 8634.76 2127.33 8638.07 2127.33C8641.27 2127.33 8644.37 2126.69 8647.36 2125.41C8650.34 2124.13 8652.96 2122.32 8655.2 2119.97C8657.44 2117.51 8659.2 2114.63 8660.48 2111.32C8661.87 2108.01 8662.57 2104.28 8662.57 2100.12Z" fill="#2D332F"/>
<path d="M9871.64 273.903C9871.64 276.145 9872.02 278.066 9872.76 279.667C9873.51 281.268 9874.85 282.762 9876.77 284.15C9878.79 285.537 9881.52 286.818 9884.93 287.992C9888.45 289.166 9892.88 290.393 9898.22 291.674C9904.09 293.168 9909.27 294.823 9913.75 296.637C9918.34 298.452 9922.13 300.693 9925.12 303.361C9928.1 305.923 9930.35 308.965 9931.84 312.487C9933.44 315.902 9934.24 319.958 9934.24 324.654C9934.24 329.991 9933.23 334.74 9931.2 338.903C9929.28 343.066 9926.56 346.588 9923.04 349.469C9919.51 352.351 9915.3 354.539 9910.39 356.033C9905.48 357.528 9900.09 358.275 9894.22 358.275C9885.57 358.275 9877.3 356.834 9869.4 353.952C9861.5 350.964 9854.19 346.428 9847.47 340.344L9859.32 326.255C9864.76 330.951 9870.26 334.58 9875.81 337.142C9881.36 339.597 9887.65 340.824 9894.7 340.824C9900.78 340.824 9905.58 339.543 9909.11 336.982C9912.74 334.42 9914.55 330.951 9914.55 326.575C9914.55 324.548 9914.18 322.733 9913.43 321.132C9912.79 319.531 9911.51 318.09 9909.59 316.809C9907.77 315.422 9905.21 314.141 9901.9 312.967C9898.7 311.793 9894.48 310.566 9889.25 309.285C9883.28 307.897 9877.94 306.35 9873.24 304.642C9868.66 302.934 9864.76 300.8 9861.56 298.238C9858.46 295.677 9856.06 292.581 9854.35 288.952C9852.75 285.324 9851.95 280.894 9851.95 275.664C9851.95 270.755 9852.91 266.325 9854.83 262.376C9856.75 258.32 9859.37 254.852 9862.68 251.97C9866.09 249.088 9870.15 246.9 9874.85 245.406C9879.54 243.805 9884.66 243.004 9890.22 243.004C9898.43 243.004 9905.8 244.232 9912.31 246.687C9918.93 249.035 9925.12 252.504 9930.88 257.093L9920.31 271.982C9915.19 268.246 9910.12 265.418 9905.1 263.497C9900.09 261.469 9895.02 260.455 9889.89 260.455C9884.13 260.455 9879.65 261.789 9876.45 264.457C9873.24 267.019 9871.64 270.168 9871.64 273.903ZM9974.53 308.965V356.674H9955.16V239.802H9974.53V285.27C9975.92 283.242 9977.41 281.374 9979.01 279.667C9980.72 277.852 9982.64 276.251 9984.78 274.864C9987.02 273.476 9989.42 272.409 9991.98 271.662C9994.65 270.808 9997.64 270.381 10000.9 270.381C10010.6 270.381 10018 273.316 10023.2 279.186C10028.4 285.057 10031 292.955 10031 302.881V356.674H10011.7V308.644C10011.7 302.027 10010.1 296.957 10006.9 293.435C10003.8 289.806 9999.35 287.992 9993.58 287.992C9987.93 287.992 9983.34 289.86 9979.81 293.595C9976.29 297.224 9974.53 302.347 9974.53 308.965ZM10075.6 259.174H10054.8V240.763H10075.6V259.174ZM10074.9 356.674H10055.6V272.142H10074.9V356.674ZM10187.7 314.408C10187.7 321.452 10186.5 327.696 10184.3 333.139C10182.2 338.583 10179.2 343.226 10175.5 347.068C10171.9 350.804 10167.6 353.632 10162.8 355.553C10158.1 357.474 10153.3 358.435 10148.3 358.435C10141.3 358.435 10135.6 356.941 10131 353.952C10126.4 350.964 10122.6 347.495 10119.6 343.546V382.289H10100.2V272.142H10119.6V286.231C10122.7 281.748 10126.6 278.012 10131.1 275.024C10135.7 271.929 10141.4 270.381 10148.3 270.381C10153.3 270.381 10158.1 271.342 10162.8 273.263C10167.5 275.184 10171.7 278.066 10175.3 281.908C10179.1 285.644 10182.1 290.233 10184.3 295.677C10186.5 301.12 10187.7 307.364 10187.7 314.408ZM10168 314.408C10168 310.245 10167.3 306.51 10166 303.201C10164.8 299.786 10163 296.904 10160.8 294.556C10158.6 292.208 10156.1 290.393 10153.1 289.113C10150.2 287.832 10147.1 287.191 10143.8 287.191C10140.5 287.191 10137.3 287.832 10134.3 289.113C10131.4 290.393 10128.7 292.261 10126.5 294.716C10124.3 297.064 10122.4 299.892 10121.1 303.201C10119.8 306.51 10119.1 310.245 10119.1 314.408C10119.1 318.571 10119.8 322.306 10121.1 325.615C10122.4 328.924 10124.3 331.805 10126.5 334.26C10128.7 336.608 10131.4 338.423 10134.3 339.703C10137.3 340.984 10140.5 341.625 10143.8 341.625C10147.1 341.625 10150.2 340.984 10153.1 339.703C10156.1 338.423 10158.6 336.608 10160.8 334.26C10163 331.912 10164.8 329.084 10166 325.775C10167.3 322.36 10168 318.571 10168 314.408ZM10294.9 314.408C10294.9 321.452 10293.8 327.696 10291.6 333.139C10289.4 338.583 10286.5 343.226 10282.7 347.068C10279.1 350.804 10274.9 353.632 10270.1 355.553C10265.4 357.474 10260.5 358.435 10255.5 358.435C10248.6 358.435 10242.8 356.941 10238.2 353.952C10233.6 350.964 10229.9 347.495 10226.9 343.546V382.289H10207.5V272.142H10226.9V286.231C10230 281.748 10233.8 278.012 10238.4 275.024C10243 271.929 10248.7 270.381 10255.5 270.381C10260.5 270.381 10265.4 271.342 10270.1 273.263C10274.8 275.184 10279 278.066 10282.6 281.908C10286.3 285.644 10289.3 290.233 10291.6 295.677C10293.8 301.12 10294.9 307.364 10294.9 314.408ZM10275.2 314.408C10275.2 310.245 10274.6 306.51 10273.3 303.201C10272 299.786 10270.3 296.904 10268 294.556C10265.9 292.208 10263.3 290.393 10260.3 289.113C10257.5 287.832 10254.4 287.191 10251 287.191C10247.7 287.191 10244.6 287.832 10241.6 289.113C10238.6 290.393 10236 292.261 10233.8 294.716C10231.5 297.064 10229.7 299.892 10228.3 303.201C10227 306.51 10226.4 310.245 10226.4 314.408C10226.4 318.571 10227 322.306 10228.3 325.615C10229.7 328.924 10231.5 331.805 10233.8 334.26C10236 336.608 10238.6 338.423 10241.6 339.703C10244.6 340.984 10247.7 341.625 10251 341.625C10254.4 341.625 10257.5 340.984 10260.3 339.703C10263.3 338.423 10265.9 336.608 10268 334.26C10270.3 331.912 10272 329.084 10273.3 325.775C10274.6 322.36 10275.2 318.571 10275.2 314.408ZM10329.5 321.292C10330.7 328.23 10333.4 333.566 10337.8 337.302C10342.2 340.931 10347.5 342.745 10353.8 342.745C10358.6 342.745 10362.8 341.891 10366.3 340.184C10369.8 338.476 10373.3 335.968 10376.7 332.659L10388.1 342.745C10384 347.548 10379.2 351.391 10373.5 354.272C10368 357.154 10361.3 358.595 10353.5 358.595C10347.4 358.595 10341.7 357.528 10336.4 355.393C10331.1 353.258 10326.5 350.27 10322.6 346.428C10318.8 342.585 10315.7 337.996 10313.5 332.659C10311.2 327.216 10310.1 321.185 10310.1 314.568C10310.1 308.484 10311.1 302.774 10313.2 297.438C10315.2 292.101 10318 287.458 10321.6 283.509C10325.4 279.453 10329.7 276.251 10334.8 273.903C10339.8 271.555 10345.3 270.381 10351.4 270.381C10358.1 270.381 10364 271.609 10369 274.063C10374.1 276.518 10378.4 279.827 10381.7 283.989C10385.1 288.152 10387.7 293.008 10389.4 298.558C10391.1 304.108 10391.9 309.925 10391.9 316.009C10391.9 316.863 10391.9 317.717 10391.8 318.571C10391.8 319.424 10391.7 320.332 10391.6 321.292H10329.5ZM10329.3 308.484H10372.7C10372.4 305.389 10371.7 302.507 10370.6 299.839C10369.6 297.064 10368.1 294.716 10366.3 292.795C10364.5 290.767 10362.3 289.166 10359.7 287.992C10357.3 286.818 10354.5 286.231 10351.3 286.231C10345.3 286.231 10340.3 288.312 10336.4 292.475C10332.5 296.53 10330.2 301.867 10329.3 308.484ZM10494.5 356.674H10475.1V342.585C10472 346.961 10468.1 350.697 10463.4 353.792C10458.8 356.887 10453.1 358.435 10446.3 358.435C10441.3 358.435 10436.4 357.474 10431.7 355.553C10427 353.632 10422.8 350.804 10419.2 347.068C10415.6 343.226 10412.7 338.583 10410.4 333.139C10408.2 327.696 10407.1 321.452 10407.1 314.408C10407.1 307.364 10408.1 301.12 10410.3 295.677C10412.5 290.233 10415.4 285.644 10419.1 281.908C10422.7 278.066 10426.9 275.184 10431.5 273.263C10436.3 271.342 10441.3 270.381 10446.3 270.381C10453.2 270.381 10459 271.875 10463.6 274.864C10468.2 277.852 10472 281.321 10475.1 285.27V239.802H10494.5V356.674ZM10475.4 314.408C10475.4 310.245 10474.7 306.51 10473.3 303.201C10472.1 299.892 10470.3 297.064 10468 294.716C10465.8 292.261 10463.2 290.393 10460.2 289.113C10457.2 287.832 10454.1 287.191 10450.9 287.191C10447.6 287.191 10444.5 287.832 10441.5 289.113C10438.6 290.287 10436 292.048 10433.8 294.396C10431.5 296.744 10429.8 299.626 10428.5 303.041C10427.2 306.35 10426.6 310.139 10426.6 314.408C10426.6 318.571 10427.2 322.36 10428.5 325.775C10429.8 329.084 10431.5 331.912 10433.8 334.26C10436 336.608 10438.6 338.423 10441.5 339.703C10444.5 340.984 10447.6 341.625 10450.9 341.625C10454.1 341.625 10457.2 340.984 10460.2 339.703C10463.2 338.423 10465.8 336.608 10468 334.26C10470.3 331.805 10472.1 328.924 10473.3 325.615C10474.7 322.306 10475.4 318.571 10475.4 314.408Z" fill="#2D332F"/>
<path d="M400.907 578.804C400.907 578.804 985.291 1523.61 1595.48 1847.27C2797.32 2484.76 3375.03 751.214 4483.4 578.798C6430.64 275.89 7645.43 2658.49 9218.6 1471.65C9798.97 1033.81 9988.3 751.219 9988.3 751.219" stroke="#E0E3EB" stroke-width="49.2609"/>
<path d="M429.408 621.548L195.586 517.401L402.69 366.979L429.408 621.548Z" fill="#E0E3EB"/>
<path d="M9860.5 710.709L10104.8 634.252L10048.9 884.035L9860.5 710.709Z" fill="#E0E3EB"/>
<path d="M1503.12 1791.86C1503.12 1791.86 1780.21 1995.07 2143.51 1988.91C2526.02 1982.42 2820.85 1717.97 2820.85 1717.97" stroke="#DEFF98" stroke-width="49.2609"/>
<path d="M5745.71 726.599C5745.71 726.599 5240.81 559.076 4877.49 554.318C4397.2 548.028 4175.52 671.18 4175.52 671.18" stroke="#DEFF98" stroke-width="49.2609"/>
<path d="M7469.84 1600.98C7469.84 1600.98 7962.45 1828.81 8331.91 1804.18C8657.57 1782.47 8990.77 1619.45 8990.77 1619.45" stroke="#DEFF98" stroke-width="49.2609"/>
</svg>
