<svg width="1659" height="2221" viewBox="0 0 1659 2221" fill="none" xmlns="http://www.w3.org/2000/svg">
<g clip-path="url(#clip0_579_235)">
<path d="M1660.14 615.355H228.47V2097.06H1660.14V615.355Z" fill="#094446"/>
<path d="M1341.15 615.354V800.524L1326.08 791.775L1308.51 801.929C1308.36 801.999 1308.19 802.035 1308.02 802.035C1307.85 802.035 1307.68 801.999 1307.53 801.929L1289.96 791.775L1272.39 801.929C1272.24 801.999 1272.07 802.035 1271.9 802.035C1271.73 802.035 1271.56 801.999 1271.41 801.929L1253.84 791.775L1248.57 794.832V621.538L1159.64 295.015H679.884L590.602 621.538V801.297L589.689 801.824C589.534 801.894 589.367 801.93 589.197 801.93C589.027 801.93 588.86 801.894 588.705 801.824L571.137 791.669L553.569 801.824C553.414 801.894 553.246 801.93 553.077 801.93C552.907 801.93 552.739 801.894 552.585 801.824L535.016 791.669L517.448 801.824C517.294 801.894 517.126 801.93 516.956 801.93C516.787 801.93 516.619 801.894 516.464 801.824L498.896 791.669L497.877 792.267V615.354L499.493 603.162L596.224 251.059C598.766 241.745 604.296 233.523 611.966 227.658L632.837 211.741C640.504 205.908 649.871 202.748 659.505 202.746H1179.95C1189.59 202.748 1198.97 205.908 1206.65 211.741L1227.49 227.658C1235.17 233.521 1240.71 241.742 1243.26 251.059L1339.54 603.162L1341.15 615.354Z" fill="#094446"/>
<path d="M274.122 680.624L302.649 647.894L233.347 618.804C233.124 618.709 232.922 618.57 232.753 618.397C232.583 618.223 232.45 618.018 232.361 617.794C232.272 617.569 232.228 617.329 232.233 617.087C232.238 616.846 232.29 616.608 232.388 616.386C232.481 616.166 232.616 615.966 232.788 615.798C232.959 615.63 233.162 615.498 233.386 615.41C233.609 615.321 233.848 615.277 234.089 615.282C234.329 615.286 234.567 615.337 234.787 615.434L309.476 646.795L232.233 617.087L494.76 619.574C495.002 619.514 495.254 619.501 495.501 619.538C495.748 619.574 495.986 619.659 496.2 619.787C496.414 619.914 496.601 620.082 496.749 620.282C496.898 620.481 497.006 620.707 497.066 620.948C497.127 621.188 497.139 621.438 497.102 621.684C497.066 621.929 496.981 622.164 496.852 622.377C496.724 622.59 496.554 622.775 496.353 622.923C496.153 623.07 495.925 623.177 495.682 623.238L274.122 680.624Z" fill="white"/>
<path d="M1249.48 628.736L928.119 637.715L593.287 628.736C592.785 628.736 592.303 628.263 591.949 627.421C591.594 626.579 591.394 625.437 591.394 624.246C591.394 623.055 591.594 621.914 591.949 621.072C592.303 620.23 592.785 619.757 593.287 619.757V617.512H928.119H1249.13C1249.63 617.512 1250.47 620.23 1250.82 621.072C1251.18 621.914 1251.38 623.055 1251.38 624.246C1251.38 625.437 1251.18 626.579 1250.82 627.421C1250.47 628.263 1249.98 628.736 1249.48 628.736Z" fill="white"/>
<path d="M1608.31 2096.86C1607.71 2096.86 1607.14 2096.44 1606.72 2095.7C1606.3 2094.95 1606.06 2093.94 1606.06 2092.89V682.092C1606.06 681.039 1606.3 680.03 1606.72 679.285C1606.13 679.285 1607.14 678.541 1606.72 679.285L1583.27 653.397C1583.27 653.397 1656.75 619.692 1656.76 620.739V2093.18C1656.76 2094.24 1610.32 2094.95 1609.9 2095.7C1609.48 2096.44 1608.9 2096.86 1608.31 2096.86Z" fill="white"/>
<path d="M270.051 2095.9C270.536 2095.9 271.001 2095.49 271.344 2094.74C271.687 2094 271.88 2092.99 271.88 2091.94V682.071C271.88 681.019 271.687 680.01 271.344 679.266C271.83 679.266 271.001 678.522 271.344 679.266L290.455 653.395C290.455 653.395 230.586 619.713 230.577 620.758V2092.23C230.577 2093.28 268.415 2094 268.758 2094.74C269.101 2095.49 269.566 2095.9 270.051 2095.9Z" fill="white"/>
<rect x="1249.9" y="1229.45" width="616.517" height="224.945" rx="112.473" transform="rotate(-180 1249.9 1229.45)" fill="white"/>
<path d="M820.826 1111.33C820.826 1102.77 819.14 1094.29 815.864 1086.38C812.587 1078.47 807.785 1071.29 801.731 1065.23C795.677 1059.18 788.49 1054.38 780.58 1051.1C772.67 1047.82 764.193 1046.14 755.631 1046.14L755.631 1111.33L820.826 1111.33Z" fill="#AFAFAF"/>
<path d="M744.386 1057.39C731.492 1057.39 718.887 1061.21 708.166 1068.38C697.444 1075.54 689.088 1085.72 684.154 1097.64C679.219 1109.55 677.928 1122.66 680.444 1135.3C682.959 1147.95 689.168 1159.57 698.286 1168.69C707.404 1177.8 719.021 1184.01 731.667 1186.53C744.314 1189.04 757.422 1187.75 769.335 1182.82C781.248 1177.88 791.43 1169.53 798.594 1158.81C805.758 1148.09 809.581 1135.48 809.581 1122.59L744.386 1122.59L744.386 1057.39Z" fill="#373737"/>
<path d="M903.017 1103.99H889.021V1092.66H929.944V1103.99H915.947V1139.32H903.017V1103.99ZM934.886 1103.26H947.55V1108.32C948.128 1107.57 948.772 1106.84 949.483 1106.12C950.194 1105.41 950.994 1104.79 951.882 1104.26C952.771 1103.73 953.749 1103.3 954.815 1102.99C955.881 1102.64 957.059 1102.46 958.347 1102.46C962.213 1102.46 965.212 1103.64 967.345 1105.99C969.523 1108.35 970.611 1111.59 970.611 1115.72V1139.32H957.948V1119.79C957.948 1117.79 957.481 1116.28 956.548 1115.26C955.615 1114.23 954.393 1113.72 952.882 1113.72C951.327 1113.72 950.038 1114.23 949.016 1115.26C948.039 1116.28 947.55 1117.79 947.55 1119.79V1139.32H934.886V1103.26ZM1000.19 1118.32C999.968 1116.32 999.301 1114.74 998.19 1113.59C997.08 1112.39 995.658 1111.79 993.925 1111.79C992.236 1111.79 990.859 1112.39 989.792 1113.59C988.726 1114.74 988.015 1116.32 987.66 1118.32H1000.19ZM994.991 1140.18C992.147 1140.18 989.548 1139.74 987.193 1138.85C984.838 1137.92 982.794 1136.65 981.061 1135.05C979.373 1133.41 978.04 1131.43 977.062 1129.12C976.129 1126.81 975.663 1124.25 975.663 1121.45V1121.32C975.663 1118.7 976.107 1116.26 976.996 1113.99C977.884 1111.68 979.128 1109.68 980.728 1107.99C982.372 1106.26 984.305 1104.9 986.527 1103.92C988.748 1102.95 991.192 1102.46 993.858 1102.46C996.968 1102.46 999.657 1102.99 1001.92 1104.06C1004.23 1105.12 1006.12 1106.57 1007.59 1108.39C1009.1 1110.17 1010.21 1112.26 1010.92 1114.66C1011.68 1117.01 1012.05 1119.52 1012.05 1122.19C1012.05 1122.59 1012.05 1123.01 1012.05 1123.45C1012.05 1123.9 1012.03 1124.34 1011.99 1124.79H987.86C988.348 1126.79 989.259 1128.27 990.592 1129.25C991.97 1130.23 993.658 1130.72 995.658 1130.72C997.168 1130.72 998.546 1130.43 999.79 1129.85C1001.08 1129.27 1002.37 1128.34 1003.66 1127.05L1010.65 1132.85C1008.92 1135.07 1006.77 1136.85 1004.19 1138.18C1001.66 1139.52 998.59 1140.18 994.991 1140.18ZM1017.48 1103.26H1030.15V1108.32C1030.72 1107.57 1031.37 1106.84 1032.08 1106.12C1032.79 1105.41 1033.59 1104.79 1034.48 1104.26C1035.37 1103.73 1036.35 1103.3 1037.41 1102.99C1038.48 1102.64 1039.66 1102.46 1040.94 1102.46C1044.81 1102.46 1047.81 1103.64 1049.94 1105.99C1052.12 1108.35 1053.21 1111.59 1053.21 1115.72V1139.32H1040.54V1119.79C1040.54 1117.79 1040.08 1116.28 1039.15 1115.26C1038.21 1114.23 1036.99 1113.72 1035.48 1113.72C1033.92 1113.72 1032.64 1114.23 1031.61 1115.26C1030.64 1116.28 1030.15 1117.79 1030.15 1119.79V1139.32H1017.48V1103.26ZM1059.73 1103.26H1072.39V1108.32C1072.97 1107.57 1073.61 1106.84 1074.32 1106.12C1075.03 1105.41 1075.83 1104.79 1076.72 1104.26C1077.61 1103.73 1078.59 1103.3 1079.65 1102.99C1080.72 1102.64 1081.9 1102.46 1083.19 1102.46C1087.05 1102.46 1090.05 1103.64 1092.18 1105.99C1094.36 1108.35 1095.45 1111.59 1095.45 1115.72V1139.32H1082.79V1119.79C1082.79 1117.79 1082.32 1116.28 1081.39 1115.26C1080.45 1114.23 1079.23 1113.72 1077.72 1113.72C1076.17 1113.72 1074.88 1114.23 1073.86 1115.26C1072.88 1116.28 1072.39 1117.79 1072.39 1119.79V1139.32H1059.73V1103.26ZM1116.3 1140.05C1112.48 1140.05 1109.5 1139.14 1107.37 1137.32C1105.23 1135.5 1104.17 1132.43 1104.17 1128.12V1113.46H1099.9V1103.26H1104.17V1094.13H1116.83V1103.26H1125.23V1113.46H1116.83V1125.65C1116.83 1126.94 1117.12 1127.87 1117.7 1128.45C1118.28 1128.99 1119.14 1129.25 1120.3 1129.25C1121.14 1129.25 1121.96 1129.14 1122.76 1128.92C1123.56 1128.7 1124.34 1128.41 1125.1 1128.05V1137.98C1123.94 1138.61 1122.63 1139.09 1121.16 1139.45C1119.7 1139.85 1118.08 1140.05 1116.3 1140.05ZM1130.14 1126.32H1143.34V1139.32H1130.14V1126.32Z" fill="#272822"/>
<path d="M1606.66 682.812L1560.25 649.283L1655.06 622.367C1655.31 622.284 1655.54 622.16 1655.74 622.003C1655.93 621.845 1656.09 621.657 1656.19 621.45C1656.3 621.243 1656.35 621.02 1656.35 620.795C1656.35 620.569 1656.3 620.345 1656.19 620.136C1656.09 619.928 1655.95 619.738 1655.76 619.577C1655.57 619.416 1655.34 619.287 1655.09 619.198C1654.84 619.11 1654.57 619.063 1654.3 619.06C1654.03 619.057 1653.76 619.099 1653.51 619.183L1552.58 648.075L1656.35 620.795L1344.5 617.717C1344.23 617.655 1343.95 617.637 1343.67 617.664C1343.39 617.691 1343.12 617.764 1342.88 617.877C1342.63 617.991 1342.42 618.142 1342.25 618.324C1342.07 618.506 1341.95 618.715 1341.87 618.938C1341.8 619.16 1341.78 619.393 1341.82 619.623C1341.85 619.853 1341.94 620.075 1342.08 620.277C1342.22 620.479 1342.41 620.656 1342.63 620.799C1342.86 620.943 1343.11 621.049 1343.38 621.111L1606.66 682.812Z" fill="white"/>
</g>
<path d="M266.298 1898.18C265.832 1898.18 265.385 1898 265.056 1897.67C264.726 1897.34 264.541 1896.89 264.541 1896.42V802.132C264.55 801.669 264.738 801.227 265.066 800.9C265.393 800.572 265.835 800.384 266.298 800.375C266.764 800.375 267.211 800.56 267.54 800.89C267.87 801.219 268.055 801.666 268.055 802.132V1896.42C268.055 1896.89 267.87 1897.34 267.54 1897.67C267.211 1898 266.764 1898.18 266.298 1898.18Z" fill="#C1C1C1"/>
<path d="M693.588 1560.13H71.9178L0.660889 1692.59V2220.66H764.845V1692.59L693.588 1560.13ZM613.653 1610.06C613.653 1616.66 611.032 1622.98 606.367 1627.65C601.701 1632.31 595.374 1634.93 588.776 1634.93H271.142C267.862 1634.95 264.61 1634.32 261.574 1633.08C258.537 1631.84 255.776 1630.01 253.448 1627.7C251.12 1625.39 249.272 1622.64 248.009 1619.61C246.747 1616.59 246.094 1613.34 246.09 1610.06C246.09 1603.45 248.714 1597.11 253.386 1592.44C258.058 1587.77 264.394 1585.15 271.001 1585.15H588.636C591.905 1585.15 595.143 1585.79 598.164 1587.04C601.184 1588.3 603.928 1590.13 606.239 1592.44C608.549 1594.76 610.381 1597.51 611.629 1600.53C612.877 1603.55 613.517 1606.79 613.512 1610.06H613.653Z" fill="#EBEBEB"/>
<path d="M162.71 2214.41C162.247 2214.4 161.805 2214.21 161.478 2213.88C161.15 2213.55 160.962 2213.11 160.953 2212.65V1692.1L71.9526 1563.75C71.6894 1563.36 71.5862 1562.89 71.6649 1562.43C71.7436 1561.97 71.998 1561.56 72.3742 1561.29C72.5652 1561.16 72.7807 1561.06 73.0082 1561.01C73.2357 1560.96 73.4707 1560.96 73.6995 1561C73.9284 1561.04 74.1465 1561.13 74.3412 1561.26C74.5359 1561.39 74.7034 1561.55 74.8338 1561.74L164.467 1690.87V2212.68C164.458 2213.14 164.269 2213.58 163.94 2213.9C163.612 2214.23 163.17 2214.41 162.71 2214.41Z" fill="#2A332C"/>
<path d="M8.40993 2214.43C8.11659 2214.43 7.82862 2214.36 7.57131 2214.21C7.31401 2214.07 7.09523 2213.87 6.93419 2213.63C6.67992 2213.24 6.58896 2212.77 6.68109 2212.31C6.77322 2211.86 7.04099 2211.46 7.4261 2211.2L70.1448 2169.99V1703.06C70.1448 1702.59 70.3299 1702.14 70.6594 1701.82C70.9888 1701.49 71.4357 1701.3 71.9016 1701.3C72.3676 1701.3 72.8144 1701.49 73.1439 1701.82C73.4734 1702.14 73.6585 1702.59 73.6585 1703.06V2171.92L9.35861 2214.08C9.08087 2214.29 8.75252 2214.41 8.40993 2214.43Z" fill="#2A332C"/>
<path d="M149.65 2214.42C149.357 2214.41 149.068 2214.34 148.807 2214.21L71.085 2172.5C70.675 2172.27 70.3706 2171.9 70.2388 2171.45C70.107 2171 70.1586 2170.52 70.3823 2170.11C70.6059 2169.7 70.9833 2169.39 71.4314 2169.26C71.8794 2169.13 72.3615 2169.18 72.7716 2169.41L150.458 2211.15C150.664 2211.25 150.846 2211.4 150.995 2211.57C151.143 2211.75 151.255 2211.95 151.324 2212.17C151.393 2212.39 151.417 2212.62 151.395 2212.85C151.373 2213.08 151.306 2213.3 151.196 2213.5C151.042 2213.78 150.817 2214.01 150.546 2214.17C150.275 2214.33 149.966 2214.41 149.65 2214.42Z" fill="#2A332C"/>
<path d="M764.843 1694.41L162.744 1693.35C162.278 1693.35 161.831 1693.17 161.501 1692.84C161.172 1692.51 160.987 1692.06 160.987 1691.6C160.987 1691.13 161.172 1690.68 161.501 1690.35C161.831 1690.02 162.278 1689.84 162.744 1689.84L764.843 1690.89C765.309 1690.89 765.756 1691.08 766.086 1691.41C766.415 1691.74 766.6 1692.18 766.6 1692.65C766.591 1693.11 766.403 1693.56 766.076 1693.88C765.748 1694.21 765.307 1694.4 764.843 1694.41Z" fill="#2A332C"/>
<path d="M442.683 1880.39C425.924 1880.39 409.542 1885.36 395.608 1894.67C381.674 1903.98 370.813 1917.22 364.4 1932.7C357.987 1948.18 356.309 1965.22 359.578 1981.66C362.848 1998.09 370.918 2013.19 382.768 2025.04C394.618 2036.89 409.716 2044.96 426.152 2048.23C442.589 2051.5 459.626 2049.82 475.109 2043.41C490.592 2037 503.825 2026.14 513.136 2012.2C522.446 1998.27 527.416 1981.89 527.416 1965.13L442.683 1965.13L442.683 1880.39Z" fill="#373737"/>
<path d="M542.021 1950.52C542.021 1939.39 539.829 1928.38 535.571 1918.1C531.312 1907.82 525.071 1898.47 517.203 1890.61C509.335 1882.74 499.994 1876.5 489.714 1872.24C479.433 1867.98 468.415 1865.79 457.288 1865.79L457.288 1950.52L542.021 1950.52Z" fill="#B7B7B7"/>
<defs>
<clipPath id="clip0_579_235">
<rect width="1658.44" height="2101.16" fill="white" transform="translate(0.130859 0.191406)"/>
</clipPath>
</defs>
</svg>
